%TF.GenerationSoftware,KiCad,Pcbnew,(6.0.7)*%
%TF.CreationDate,2022-10-16T13:30:07+08:00*%
%TF.ProjectId,numpad-test,6e756d70-6164-42d7-9465-73742e6b6963,rev?*%
%TF.SameCoordinates,Original*%
%TF.FileFunction,Paste,Bot*%
%TF.FilePolarity,Positive*%
%FSLAX46Y46*%
G04 Gerber Fmt 4.6, Leading zero omitted, Abs format (unit mm)*
G04 Created by KiCad (PCBNEW (6.0.7)) date 2022-10-16 13:30:07*
%MOMM*%
%LPD*%
G01*
G04 APERTURE LIST*
G04 Aperture macros list*
%AMRoundRect*
0 Rectangle with rounded corners*
0 $1 Rounding radius*
0 $2 $3 $4 $5 $6 $7 $8 $9 X,Y pos of 4 corners*
0 Add a 4 corners polygon primitive as box body*
4,1,4,$2,$3,$4,$5,$6,$7,$8,$9,$2,$3,0*
0 Add four circle primitives for the rounded corners*
1,1,$1+$1,$2,$3*
1,1,$1+$1,$4,$5*
1,1,$1+$1,$6,$7*
1,1,$1+$1,$8,$9*
0 Add four rect primitives between the rounded corners*
20,1,$1+$1,$2,$3,$4,$5,0*
20,1,$1+$1,$4,$5,$6,$7,0*
20,1,$1+$1,$6,$7,$8,$9,0*
20,1,$1+$1,$8,$9,$2,$3,0*%
G04 Aperture macros list end*
%ADD10R,2.550000X2.500000*%
%ADD11R,1.899920X1.798320*%
%ADD12R,1.597660X1.498600*%
%ADD13RoundRect,0.250000X0.325000X0.450000X-0.325000X0.450000X-0.325000X-0.450000X0.325000X-0.450000X0*%
%ADD14R,1.597660X2.298700*%
%ADD15R,0.250000X0.700000*%
%ADD16R,0.700000X0.250000*%
%ADD17R,2.750000X2.750000*%
%ADD18R,0.400000X0.900000*%
%ADD19R,1.000000X1.500000*%
%ADD20R,0.900000X0.400000*%
%ADD21RoundRect,0.250000X0.475000X-0.337500X0.475000X0.337500X-0.475000X0.337500X-0.475000X-0.337500X0*%
G04 APERTURE END LIST*
D10*
%TO.C,SW16*%
X121790000Y-60920000D03*
X107940000Y-63460000D03*
%TD*%
%TO.C,SW12*%
X102290000Y-60920000D03*
X88440000Y-63460000D03*
%TD*%
%TO.C,SW10*%
X82790000Y-99920000D03*
X68940000Y-102460000D03*
%TD*%
%TO.C,SW5*%
X63290000Y-80420000D03*
X49440000Y-82960000D03*
%TD*%
%TO.C,SW4*%
X63290000Y-60920000D03*
X49440000Y-63460000D03*
%TD*%
%TO.C,SW15*%
X102290000Y-119420000D03*
X88440000Y-121960000D03*
%TD*%
%TO.C,SW11*%
X82790000Y-119420000D03*
X68940000Y-121960000D03*
%TD*%
%TO.C,SW13*%
X102290000Y-80420000D03*
X88440000Y-82960000D03*
%TD*%
%TO.C,SW8*%
X82790000Y-60920000D03*
X68940000Y-63460000D03*
%TD*%
%TO.C,SW7*%
X63290000Y-119420000D03*
X49440000Y-121960000D03*
%TD*%
%TO.C,SW9*%
X82790000Y-80420000D03*
X68940000Y-82960000D03*
%TD*%
%TO.C,SW14*%
X102290000Y-99920000D03*
X88440000Y-102460000D03*
%TD*%
%TO.C,SW6*%
X63290000Y-99920000D03*
X49440000Y-102460000D03*
%TD*%
%TO.C,SW17*%
X121790000Y-80420000D03*
X107940000Y-82960000D03*
%TD*%
%TO.C,SW18*%
X107940000Y-112210000D03*
X121790000Y-109670000D03*
%TD*%
D11*
%TO.C,S1*%
X133400640Y-95925160D03*
X138399360Y-95925160D03*
D12*
X141297500Y-100674960D03*
X130502500Y-100674960D03*
D11*
X135900000Y-95925160D03*
%TD*%
D13*
%TO.C,D11*%
X74525000Y-109500000D03*
X72475000Y-109500000D03*
%TD*%
%TO.C,D19*%
X113525000Y-119250000D03*
X111475000Y-119250000D03*
%TD*%
%TO.C,D10*%
X74525000Y-90000000D03*
X72475000Y-90000000D03*
%TD*%
D14*
%TO.C,SW20*%
X131125000Y-81875000D03*
X131125000Y-75575800D03*
%TD*%
D13*
%TO.C,D5*%
X55025000Y-70500000D03*
X52975000Y-70500000D03*
%TD*%
%TO.C,D7*%
X55025000Y-109500000D03*
X52975000Y-109500000D03*
%TD*%
%TO.C,D18*%
X113475000Y-90000000D03*
X111425000Y-90000000D03*
%TD*%
%TO.C,D13*%
X94025000Y-70500000D03*
X91975000Y-70500000D03*
%TD*%
D15*
%TO.C,U1*%
X134200000Y-90800000D03*
X133700000Y-90800000D03*
X133200000Y-90800000D03*
X132700000Y-90800000D03*
X132200000Y-90800000D03*
X131700000Y-90800000D03*
D16*
X130975000Y-90075000D03*
X130975000Y-89575000D03*
X130975000Y-89075000D03*
X130975000Y-88575000D03*
X130975000Y-88075000D03*
X130975000Y-87575000D03*
D15*
X131700000Y-86850000D03*
X132200000Y-86850000D03*
X132700000Y-86850000D03*
X133200000Y-86850000D03*
X133700000Y-86850000D03*
X134200000Y-86850000D03*
D16*
X134925000Y-87575000D03*
X134925000Y-88075000D03*
X134925000Y-88575000D03*
X134925000Y-89075000D03*
X134925000Y-89575000D03*
X134925000Y-90075000D03*
D17*
X132950000Y-88825000D03*
%TD*%
D13*
%TO.C,D9*%
X74525000Y-70500000D03*
X72475000Y-70500000D03*
%TD*%
%TO.C,D12*%
X74525000Y-129000000D03*
X72475000Y-129000000D03*
%TD*%
D18*
%TO.C,RN3*%
X134275000Y-76125000D03*
X135075000Y-76125000D03*
X135875000Y-76125000D03*
X136675000Y-76125000D03*
X136675000Y-77825000D03*
X135875000Y-77825000D03*
X135075000Y-77825000D03*
X134275000Y-77825000D03*
%TD*%
D13*
%TO.C,D15*%
X94025000Y-109500000D03*
X91975000Y-109500000D03*
%TD*%
%TO.C,D8*%
X55025000Y-129000000D03*
X52975000Y-129000000D03*
%TD*%
D19*
%TO.C,D1*%
X144800000Y-63375000D03*
X141600000Y-63375000D03*
X141600000Y-58475000D03*
X144800000Y-58475000D03*
%TD*%
D20*
%TO.C,RN1*%
X141550000Y-90975000D03*
X141550000Y-91775000D03*
X141550000Y-92575000D03*
X141550000Y-93375000D03*
X139850000Y-93375000D03*
X139850000Y-92575000D03*
X139850000Y-91775000D03*
X139850000Y-90975000D03*
%TD*%
D18*
%TO.C,RN2*%
X135000000Y-81125000D03*
X135800000Y-81125000D03*
X136600000Y-81125000D03*
X137400000Y-81125000D03*
X137400000Y-82825000D03*
X136600000Y-82825000D03*
X135800000Y-82825000D03*
X135000000Y-82825000D03*
%TD*%
D13*
%TO.C,D6*%
X55025000Y-90000000D03*
X52975000Y-90000000D03*
%TD*%
D21*
%TO.C,C10*%
X137125000Y-88050000D03*
X137125000Y-85975000D03*
%TD*%
D13*
%TO.C,D17*%
X113525000Y-70500000D03*
X111475000Y-70500000D03*
%TD*%
%TO.C,D14*%
X94025000Y-90000000D03*
X91975000Y-90000000D03*
%TD*%
%TO.C,D16*%
X94025000Y-129000000D03*
X91975000Y-129000000D03*
%TD*%
D21*
%TO.C,C4*%
X129286000Y-38354000D03*
X129286000Y-36279000D03*
%TD*%
M02*
