%TF.GenerationSoftware,KiCad,Pcbnew,(6.0.7)*%
%TF.CreationDate,2022-10-16T13:30:07+08:00*%
%TF.ProjectId,numpad-test,6e756d70-6164-42d7-9465-73742e6b6963,rev?*%
%TF.SameCoordinates,Original*%
%TF.FileFunction,Copper,L2,Bot*%
%TF.FilePolarity,Positive*%
%FSLAX46Y46*%
G04 Gerber Fmt 4.6, Leading zero omitted, Abs format (unit mm)*
G04 Created by KiCad (PCBNEW (6.0.7)) date 2022-10-16 13:30:07*
%MOMM*%
%LPD*%
G01*
G04 APERTURE LIST*
G04 Aperture macros list*
%AMRoundRect*
0 Rectangle with rounded corners*
0 $1 Rounding radius*
0 $2 $3 $4 $5 $6 $7 $8 $9 X,Y pos of 4 corners*
0 Add a 4 corners polygon primitive as box body*
4,1,4,$2,$3,$4,$5,$6,$7,$8,$9,$2,$3,0*
0 Add four circle primitives for the rounded corners*
1,1,$1+$1,$2,$3*
1,1,$1+$1,$4,$5*
1,1,$1+$1,$6,$7*
1,1,$1+$1,$8,$9*
0 Add four rect primitives between the rounded corners*
20,1,$1+$1,$2,$3,$4,$5,0*
20,1,$1+$1,$4,$5,$6,$7,0*
20,1,$1+$1,$6,$7,$8,$9,0*
20,1,$1+$1,$8,$9,$2,$3,0*%
G04 Aperture macros list end*
%TA.AperFunction,SMDPad,CuDef*%
%ADD10R,2.550000X2.500000*%
%TD*%
%TA.AperFunction,ComponentPad*%
%ADD11RoundRect,0.250000X0.625000X-0.350000X0.625000X0.350000X-0.625000X0.350000X-0.625000X-0.350000X0*%
%TD*%
%TA.AperFunction,ComponentPad*%
%ADD12O,1.750000X1.200000*%
%TD*%
%TA.AperFunction,ComponentPad*%
%ADD13R,1.700000X1.700000*%
%TD*%
%TA.AperFunction,ComponentPad*%
%ADD14O,1.700000X1.700000*%
%TD*%
%TA.AperFunction,ComponentPad*%
%ADD15O,0.900000X2.000000*%
%TD*%
%TA.AperFunction,ComponentPad*%
%ADD16O,0.900000X1.700000*%
%TD*%
%TA.AperFunction,SMDPad,CuDef*%
%ADD17R,1.899920X1.798320*%
%TD*%
%TA.AperFunction,SMDPad,CuDef*%
%ADD18R,1.597660X1.498600*%
%TD*%
%TA.AperFunction,SMDPad,CuDef*%
%ADD19RoundRect,0.250000X0.325000X0.450000X-0.325000X0.450000X-0.325000X-0.450000X0.325000X-0.450000X0*%
%TD*%
%TA.AperFunction,SMDPad,CuDef*%
%ADD20R,1.597660X2.298700*%
%TD*%
%TA.AperFunction,SMDPad,CuDef*%
%ADD21R,0.250000X0.700000*%
%TD*%
%TA.AperFunction,SMDPad,CuDef*%
%ADD22R,0.700000X0.250000*%
%TD*%
%TA.AperFunction,SMDPad,CuDef*%
%ADD23R,2.750000X2.750000*%
%TD*%
%TA.AperFunction,SMDPad,CuDef*%
%ADD24R,0.400000X0.900000*%
%TD*%
%TA.AperFunction,SMDPad,CuDef*%
%ADD25R,1.000000X1.500000*%
%TD*%
%TA.AperFunction,SMDPad,CuDef*%
%ADD26R,0.900000X0.400000*%
%TD*%
%TA.AperFunction,SMDPad,CuDef*%
%ADD27RoundRect,0.250000X0.475000X-0.337500X0.475000X0.337500X-0.475000X0.337500X-0.475000X-0.337500X0*%
%TD*%
%TA.AperFunction,ViaPad*%
%ADD28C,0.800000*%
%TD*%
%TA.AperFunction,Conductor*%
%ADD29C,0.254000*%
%TD*%
%TA.AperFunction,Conductor*%
%ADD30C,0.508000*%
%TD*%
%TA.AperFunction,Conductor*%
%ADD31C,0.200000*%
%TD*%
%TA.AperFunction,Conductor*%
%ADD32C,1.016000*%
%TD*%
%TA.AperFunction,Conductor*%
%ADD33C,0.762000*%
%TD*%
G04 APERTURE END LIST*
D10*
%TO.P,SW16,1,1*%
%TO.N,ROW0*%
X121790000Y-60920000D03*
%TO.P,SW16,2,2*%
%TO.N,Net-(D17-Pad2)*%
X107940000Y-63460000D03*
%TD*%
%TO.P,SW12,1,1*%
%TO.N,ROW0*%
X102290000Y-60920000D03*
%TO.P,SW12,2,2*%
%TO.N,Net-(D13-Pad2)*%
X88440000Y-63460000D03*
%TD*%
D11*
%TO.P,J1,1,Pin_1*%
%TO.N,LDO_IN+*%
X50950000Y-42000000D03*
D12*
%TO.P,J1,2,Pin_2*%
%TO.N,+3.3V*%
X50950000Y-40000000D03*
%TO.P,J1,3,Pin_3*%
%TO.N,GND*%
X50950000Y-38000000D03*
%TD*%
D10*
%TO.P,SW10,1,1*%
%TO.N,ROW2*%
X82790000Y-99920000D03*
%TO.P,SW10,2,2*%
%TO.N,Net-(D11-Pad2)*%
X68940000Y-102460000D03*
%TD*%
D13*
%TO.P,J3,1,Pin_1*%
%TO.N,GND*%
X131380000Y-65935000D03*
D14*
%TO.P,J3,2,Pin_2*%
%TO.N,+3.3V*%
X133920000Y-65935000D03*
%TO.P,J3,3,Pin_3*%
%TO.N,I2C_SCL*%
X136460000Y-65935000D03*
%TO.P,J3,4,Pin_4*%
%TO.N,I2C_SDA*%
X139000000Y-65935000D03*
%TD*%
D11*
%TO.P,J2,1,Pin_1*%
%TO.N,TXD*%
X84963000Y-42037000D03*
D12*
%TO.P,J2,2,Pin_2*%
%TO.N,RXD*%
X84963000Y-40037000D03*
%TO.P,J2,3,Pin_3*%
%TO.N,GND*%
X84963000Y-38037000D03*
%TD*%
D10*
%TO.P,SW5,1,1*%
%TO.N,ROW1*%
X63290000Y-80420000D03*
%TO.P,SW5,2,2*%
%TO.N,Net-(D6-Pad2)*%
X49440000Y-82960000D03*
%TD*%
%TO.P,SW4,1,1*%
%TO.N,ROW0*%
X63290000Y-60920000D03*
%TO.P,SW4,2,2*%
%TO.N,Net-(D5-Pad2)*%
X49440000Y-63460000D03*
%TD*%
%TO.P,SW15,1,1*%
%TO.N,ROW3*%
X102290000Y-119420000D03*
%TO.P,SW15,2,2*%
%TO.N,Net-(D16-Pad2)*%
X88440000Y-121960000D03*
%TD*%
%TO.P,SW11,1,1*%
%TO.N,ROW3*%
X82790000Y-119420000D03*
%TO.P,SW11,2,2*%
%TO.N,Net-(D12-Pad2)*%
X68940000Y-121960000D03*
%TD*%
D15*
%TO.P,J4,S1,SHIELD*%
%TO.N,Net-(C6-Pad2)*%
X58180000Y-40805000D03*
D16*
X58180000Y-36635000D03*
D15*
X66820000Y-40805000D03*
D16*
X66820000Y-36635000D03*
%TD*%
D10*
%TO.P,SW13,1,1*%
%TO.N,ROW1*%
X102290000Y-80420000D03*
%TO.P,SW13,2,2*%
%TO.N,Net-(D14-Pad2)*%
X88440000Y-82960000D03*
%TD*%
%TO.P,SW8,1,1*%
%TO.N,ROW0*%
X82790000Y-60920000D03*
%TO.P,SW8,2,2*%
%TO.N,Net-(D9-Pad2)*%
X68940000Y-63460000D03*
%TD*%
%TO.P,SW7,1,1*%
%TO.N,ROW3*%
X63290000Y-119420000D03*
%TO.P,SW7,2,2*%
%TO.N,Net-(D8-Pad2)*%
X49440000Y-121960000D03*
%TD*%
%TO.P,SW9,1,1*%
%TO.N,ROW1*%
X82790000Y-80420000D03*
%TO.P,SW9,2,2*%
%TO.N,Net-(D10-Pad2)*%
X68940000Y-82960000D03*
%TD*%
%TO.P,SW14,1,1*%
%TO.N,ROW2*%
X102290000Y-99920000D03*
%TO.P,SW14,2,2*%
%TO.N,Net-(D15-Pad2)*%
X88440000Y-102460000D03*
%TD*%
%TO.P,SW6,1,1*%
%TO.N,ROW2*%
X63290000Y-99920000D03*
%TO.P,SW6,2,2*%
%TO.N,Net-(D7-Pad2)*%
X49440000Y-102460000D03*
%TD*%
%TO.P,SW17,1,1*%
%TO.N,ROW1*%
X121790000Y-80420000D03*
%TO.P,SW17,2,2*%
%TO.N,Net-(D18-Pad2)*%
X107940000Y-82960000D03*
%TD*%
%TO.P,SW18,2,2*%
%TO.N,Net-(D19-Pad2)*%
X107940000Y-112210000D03*
%TO.P,SW18,1,1*%
%TO.N,ROW2*%
X121790000Y-109670000D03*
%TD*%
D17*
%TO.P,S1,1,1*%
%TO.N,BTN1*%
X133400640Y-95925160D03*
%TO.P,S1,2,2*%
%TO.N,BTN2*%
X138399360Y-95925160D03*
D18*
%TO.P,S1,C,C*%
%TO.N,GND*%
X141297500Y-100674960D03*
%TO.P,S1,NC*%
%TO.N,N/C*%
X130502500Y-100674960D03*
D17*
%TO.P,S1,T,T*%
%TO.N,BTNT*%
X135900000Y-95925160D03*
%TD*%
D19*
%TO.P,D11,1,K*%
%TO.N,COL1*%
X74525000Y-109500000D03*
%TO.P,D11,2,A*%
%TO.N,Net-(D11-Pad2)*%
X72475000Y-109500000D03*
%TD*%
%TO.P,D19,1,K*%
%TO.N,COL3*%
X113525000Y-119250000D03*
%TO.P,D19,2,A*%
%TO.N,Net-(D19-Pad2)*%
X111475000Y-119250000D03*
%TD*%
%TO.P,D10,1,K*%
%TO.N,COL1*%
X74525000Y-90000000D03*
%TO.P,D10,2,A*%
%TO.N,Net-(D10-Pad2)*%
X72475000Y-90000000D03*
%TD*%
D20*
%TO.P,SW20,1,1*%
%TO.N,SW_UP*%
X131125000Y-81875000D03*
%TO.P,SW20,2,2*%
%TO.N,GND*%
X131125000Y-75575800D03*
%TD*%
D19*
%TO.P,D5,1,K*%
%TO.N,COL0*%
X55025000Y-70500000D03*
%TO.P,D5,2,A*%
%TO.N,Net-(D5-Pad2)*%
X52975000Y-70500000D03*
%TD*%
%TO.P,D7,1,K*%
%TO.N,COL0*%
X55025000Y-109500000D03*
%TO.P,D7,2,A*%
%TO.N,Net-(D7-Pad2)*%
X52975000Y-109500000D03*
%TD*%
%TO.P,D18,1,K*%
%TO.N,COL3*%
X113475000Y-90000000D03*
%TO.P,D18,2,A*%
%TO.N,Net-(D18-Pad2)*%
X111425000Y-90000000D03*
%TD*%
%TO.P,D13,1,K*%
%TO.N,COL2*%
X94025000Y-70500000D03*
%TO.P,D13,2,A*%
%TO.N,Net-(D13-Pad2)*%
X91975000Y-70500000D03*
%TD*%
D21*
%TO.P,U1,1,ROW7*%
%TO.N,BTN2*%
X134200000Y-90800000D03*
%TO.P,U1,2,ROW6*%
%TO.N,BTNT*%
X133700000Y-90800000D03*
%TO.P,U1,3,ROW5*%
%TO.N,BTN1*%
X133200000Y-90800000D03*
%TO.P,U1,4,ROW4*%
%TO.N,ROW4_NC*%
X132700000Y-90800000D03*
%TO.P,U1,5,ROW3*%
%TO.N,ROW3*%
X132200000Y-90800000D03*
%TO.P,U1,6,ROW2*%
%TO.N,ROW2*%
X131700000Y-90800000D03*
D22*
%TO.P,U1,7,ROW1*%
%TO.N,ROW1*%
X130975000Y-90075000D03*
%TO.P,U1,8,ROW0*%
%TO.N,ROW0*%
X130975000Y-89575000D03*
%TO.P,U1,9,COL0*%
%TO.N,COL0*%
X130975000Y-89075000D03*
%TO.P,U1,10,COL1*%
%TO.N,COL1*%
X130975000Y-88575000D03*
%TO.P,U1,11,COL2*%
%TO.N,COL2*%
X130975000Y-88075000D03*
%TO.P,U1,12,COL3*%
%TO.N,COL3*%
X130975000Y-87575000D03*
D21*
%TO.P,U1,13,COL4*%
%TO.N,SW_UP*%
X131700000Y-86850000D03*
%TO.P,U1,14,COL5*%
%TO.N,COL5_NC*%
X132200000Y-86850000D03*
%TO.P,U1,15,COL6*%
%TO.N,COL6_NC*%
X132700000Y-86850000D03*
%TO.P,U1,16,COL7*%
%TO.N,COL7_NC*%
X133200000Y-86850000D03*
%TO.P,U1,17,COL8*%
%TO.N,COL8_NC*%
X133700000Y-86850000D03*
%TO.P,U1,18,COL9*%
%TO.N,COL9_NC*%
X134200000Y-86850000D03*
D22*
%TO.P,U1,19,GND*%
%TO.N,GND*%
X134925000Y-87575000D03*
%TO.P,U1,20,RESET*%
%TO.N,KEY_RST*%
X134925000Y-88075000D03*
%TO.P,U1,21,VCC*%
%TO.N,+3.3V*%
X134925000Y-88575000D03*
%TO.P,U1,22,SDA*%
%TO.N,I2C_SDA*%
X134925000Y-89075000D03*
%TO.P,U1,23,SCL*%
%TO.N,I2C_SCL*%
X134925000Y-89575000D03*
%TO.P,U1,24,INT*%
%TO.N,KEY_INT*%
X134925000Y-90075000D03*
D23*
%TO.P,U1,25*%
%TO.N,N/C*%
X132950000Y-88825000D03*
%TD*%
D19*
%TO.P,D9,1,K*%
%TO.N,COL1*%
X74525000Y-70500000D03*
%TO.P,D9,2,A*%
%TO.N,Net-(D9-Pad2)*%
X72475000Y-70500000D03*
%TD*%
%TO.P,D12,1,K*%
%TO.N,COL1*%
X74525000Y-129000000D03*
%TO.P,D12,2,A*%
%TO.N,Net-(D12-Pad2)*%
X72475000Y-129000000D03*
%TD*%
D24*
%TO.P,RN3,1,R1.1*%
%TO.N,+3.3V*%
X134275000Y-76125000D03*
%TO.P,RN3,2,R2.1*%
X135075000Y-76125000D03*
%TO.P,RN3,3,R3.1*%
X135875000Y-76125000D03*
%TO.P,RN3,4,R4.1*%
X136675000Y-76125000D03*
%TO.P,RN3,5,R4.2*%
%TO.N,unconnected-(RN3-Pad5)*%
X136675000Y-77825000D03*
%TO.P,RN3,6,R3.2*%
%TO.N,unconnected-(RN3-Pad6)*%
X135875000Y-77825000D03*
%TO.P,RN3,7,R2.2*%
%TO.N,COL6_NC*%
X135075000Y-77825000D03*
%TO.P,RN3,8,R1.2*%
%TO.N,COL5_NC*%
X134275000Y-77825000D03*
%TD*%
D19*
%TO.P,D15,1,K*%
%TO.N,COL2*%
X94025000Y-109500000D03*
%TO.P,D15,2,A*%
%TO.N,Net-(D15-Pad2)*%
X91975000Y-109500000D03*
%TD*%
%TO.P,D8,1,K*%
%TO.N,COL0*%
X55025000Y-129000000D03*
%TO.P,D8,2,A*%
%TO.N,Net-(D8-Pad2)*%
X52975000Y-129000000D03*
%TD*%
D25*
%TO.P,D1,1,VDD*%
%TO.N,+3.3V*%
X144800000Y-63375000D03*
%TO.P,D1,2,DOUT*%
%TO.N,unconnected-(D1-Pad2)*%
X141600000Y-63375000D03*
%TO.P,D1,3,VSS*%
%TO.N,GND*%
X141600000Y-58475000D03*
%TO.P,D1,4,DIN*%
%TO.N,LED_WS*%
X144800000Y-58475000D03*
%TD*%
D26*
%TO.P,RN1,1,R1.1*%
%TO.N,+3.3V*%
X141550000Y-90975000D03*
%TO.P,RN1,2,R2.1*%
X141550000Y-91775000D03*
%TO.P,RN1,3,R3.1*%
X141550000Y-92575000D03*
%TO.P,RN1,4,R4.1*%
X141550000Y-93375000D03*
%TO.P,RN1,5,R4.2*%
%TO.N,ROW4_NC*%
X139850000Y-93375000D03*
%TO.P,RN1,6,R3.2*%
%TO.N,KEY_INT*%
X139850000Y-92575000D03*
%TO.P,RN1,7,R2.2*%
%TO.N,I2C_SCL*%
X139850000Y-91775000D03*
%TO.P,RN1,8,R1.2*%
%TO.N,I2C_SDA*%
X139850000Y-90975000D03*
%TD*%
D24*
%TO.P,RN2,1,R1.1*%
%TO.N,+3.3V*%
X135000000Y-81125000D03*
%TO.P,RN2,2,R2.1*%
X135800000Y-81125000D03*
%TO.P,RN2,3,R3.1*%
X136600000Y-81125000D03*
%TO.P,RN2,4,R4.1*%
X137400000Y-81125000D03*
%TO.P,RN2,5,R4.2*%
%TO.N,KEY_RST*%
X137400000Y-82825000D03*
%TO.P,RN2,6,R3.2*%
%TO.N,COL9_NC*%
X136600000Y-82825000D03*
%TO.P,RN2,7,R2.2*%
%TO.N,COL8_NC*%
X135800000Y-82825000D03*
%TO.P,RN2,8,R1.2*%
%TO.N,COL7_NC*%
X135000000Y-82825000D03*
%TD*%
D19*
%TO.P,D6,1,K*%
%TO.N,COL0*%
X55025000Y-90000000D03*
%TO.P,D6,2,A*%
%TO.N,Net-(D6-Pad2)*%
X52975000Y-90000000D03*
%TD*%
D27*
%TO.P,C10,1*%
%TO.N,+3.3V*%
X137125000Y-88050000D03*
%TO.P,C10,2*%
%TO.N,GND*%
X137125000Y-85975000D03*
%TD*%
D19*
%TO.P,D17,1,K*%
%TO.N,COL3*%
X113525000Y-70500000D03*
%TO.P,D17,2,A*%
%TO.N,Net-(D17-Pad2)*%
X111475000Y-70500000D03*
%TD*%
%TO.P,D14,1,K*%
%TO.N,COL2*%
X94025000Y-90000000D03*
%TO.P,D14,2,A*%
%TO.N,Net-(D14-Pad2)*%
X91975000Y-90000000D03*
%TD*%
%TO.P,D16,1,K*%
%TO.N,COL2*%
X94025000Y-129000000D03*
%TO.P,D16,2,A*%
%TO.N,Net-(D16-Pad2)*%
X91975000Y-129000000D03*
%TD*%
D27*
%TO.P,C4,1*%
%TO.N,+3.3V*%
X129286000Y-38354000D03*
%TO.P,C4,2*%
%TO.N,GND*%
X129286000Y-36279000D03*
%TD*%
D28*
%TO.N,GND*%
X51800000Y-46400000D03*
X93600000Y-39100000D03*
X83600000Y-53600000D03*
X86100000Y-52400000D03*
%TO.N,COL3*%
X113600000Y-98000000D03*
%TO.N,+3.3V*%
X119900000Y-44975000D03*
X111200000Y-48500000D03*
X129286000Y-38354000D03*
X94400000Y-55550000D03*
X121650000Y-44975000D03*
X120775000Y-44975000D03*
%TO.N,ROW0*%
X122875000Y-77450000D03*
X121790000Y-74710000D03*
%TO.N,COL0*%
X126400000Y-91625000D03*
X124075000Y-94300000D03*
%TO.N,GND*%
X134100000Y-42300000D03*
X53848000Y-56896000D03*
X135200000Y-43400000D03*
X136550000Y-86625000D03*
X66600000Y-54200000D03*
X129286000Y-36322000D03*
X107200000Y-51900000D03*
X112200000Y-43100000D03*
X74204000Y-56896000D03*
X67570000Y-48350000D03*
X110600000Y-41200000D03*
X124300000Y-59300000D03*
X58300000Y-54000000D03*
X57600000Y-45400000D03*
X91800000Y-37000000D03*
X108100000Y-43400000D03*
X75500000Y-38700000D03*
X86630000Y-49360000D03*
X77200000Y-39950000D03*
X86106000Y-56896000D03*
X67870000Y-42370000D03*
X58800000Y-45400000D03*
X133000000Y-43400000D03*
X97028000Y-56896000D03*
X86650000Y-47080000D03*
X100940000Y-47120000D03*
X48260000Y-56896000D03*
X58000000Y-51100000D03*
X65410000Y-48730000D03*
X135025000Y-86900000D03*
X134100000Y-43400000D03*
X102300000Y-50700000D03*
X140000000Y-100675000D03*
X75950000Y-39950000D03*
X68910000Y-42370000D03*
X73600000Y-48400000D03*
X62738000Y-56896000D03*
X94200000Y-47500000D03*
X76650000Y-38700000D03*
X133000000Y-42300000D03*
X129750000Y-76275000D03*
X142600000Y-58700000D03*
X135200000Y-42300000D03*
X105410000Y-56896000D03*
%TO.N,COL3*%
X124778500Y-87575000D03*
X113792000Y-78867000D03*
X122050000Y-87575000D03*
X113500000Y-91800000D03*
X113700000Y-74800000D03*
%TO.N,COL2*%
X124800000Y-88750000D03*
X94107000Y-91694000D03*
X122025000Y-88750000D03*
X94107000Y-115062000D03*
X94234000Y-78613000D03*
X94107000Y-117602000D03*
X94107000Y-98044000D03*
X94225000Y-75275000D03*
%TO.N,COL1*%
X74549000Y-98171000D03*
X74549000Y-115316000D03*
X74549000Y-117729000D03*
X74550000Y-76454000D03*
X122900000Y-93825000D03*
X74549000Y-91821000D03*
X125400000Y-91275000D03*
X74550000Y-78613000D03*
%TO.N,RST*%
X97400000Y-49200000D03*
X108300000Y-53400000D03*
%TO.N,LED_WS*%
X145162500Y-56887500D03*
%TO.N,LDO_IN+*%
X72971500Y-45868500D03*
X83630000Y-35600000D03*
X82620000Y-35600000D03*
X71181500Y-45868500D03*
X72051500Y-45868500D03*
%TO.N,RXD*%
X132000000Y-48800000D03*
X122875000Y-48275000D03*
X94425000Y-45500000D03*
%TO.N,TXD*%
X91900000Y-46425000D03*
X131800000Y-47300000D03*
X123000000Y-47025000D03*
%TO.N,I2C_SCL*%
X139900000Y-39700000D03*
X90400000Y-60200000D03*
X136475000Y-58425000D03*
X139825000Y-89025000D03*
%TO.N,I2C_SDA*%
X138725000Y-90000000D03*
X141725000Y-47475000D03*
X88000000Y-60200000D03*
X139475000Y-58050000D03*
%TO.N,Net-(J4-PadB5)*%
X64770000Y-43688000D03*
X62992000Y-43180000D03*
%TO.N,LED_BLUE*%
X125425000Y-56125000D03*
X133425000Y-49925000D03*
%TO.N,IO0*%
X114675000Y-46575000D03*
X130225000Y-43825000D03*
%TO.N,Net-(SW1-Pad2)*%
X112475000Y-38500000D03*
X113620000Y-41320000D03*
%TO.N,KEY_RST*%
X139419622Y-80805378D03*
%TO.N,KEY_INT*%
X133250000Y-56675500D03*
X130820000Y-57250000D03*
X138200000Y-92225000D03*
%TD*%
D29*
%TO.N,COL3*%
X118364000Y-116684000D02*
X115798000Y-119250000D01*
X115798000Y-119250000D02*
X113550000Y-119250000D01*
X118364000Y-112874000D02*
X118364000Y-116684000D01*
X113600000Y-98000000D02*
X113600000Y-108110000D01*
X113600000Y-108110000D02*
X118364000Y-112874000D01*
X115779882Y-90000000D02*
X118872000Y-86907882D01*
X118872000Y-86907882D02*
X118872000Y-86487000D01*
X113500000Y-90000000D02*
X115779882Y-90000000D01*
X113500000Y-91800000D02*
X113500000Y-90000000D01*
D30*
%TO.N,ROW2*%
X118000000Y-97000000D02*
X105500000Y-97000000D01*
X121790000Y-100790000D02*
X118000000Y-97000000D01*
X121790000Y-109670000D02*
X121790000Y-100790000D01*
%TO.N,ROW3*%
X99370000Y-116500000D02*
X86000000Y-116500000D01*
X102290000Y-119420000D02*
X99370000Y-116500000D01*
D31*
X102420000Y-119420000D02*
X102290000Y-119420000D01*
X121750000Y-124250000D02*
X107250000Y-124250000D01*
X124350000Y-121650000D02*
X121750000Y-124250000D01*
X107250000Y-124250000D02*
X102420000Y-119420000D01*
X124350000Y-99325000D02*
X124350000Y-121650000D01*
X132200000Y-91475000D02*
X124350000Y-99325000D01*
X132200000Y-90800000D02*
X132200000Y-91475000D01*
%TO.N,ROW2*%
X131700000Y-90800000D02*
X121790000Y-100710000D01*
X121790000Y-100710000D02*
X121790000Y-109670000D01*
D32*
%TO.N,+3.3V*%
X129075000Y-45025000D02*
X119675000Y-45025000D01*
D33*
X49750000Y-55500000D02*
X48600000Y-54350000D01*
D32*
X119675000Y-45025000D02*
X115700000Y-49000000D01*
D33*
X48600000Y-54350000D02*
X48600000Y-41050000D01*
D32*
X94400000Y-55550000D02*
X122925000Y-55550000D01*
X129600000Y-45550000D02*
X129075000Y-45025000D01*
X127886000Y-59325000D02*
X133920000Y-65359000D01*
D33*
X48600000Y-41050000D02*
X49650000Y-40000000D01*
D32*
X115700000Y-49000000D02*
X115700000Y-53000000D01*
X126700000Y-59325000D02*
X127886000Y-59325000D01*
X118250000Y-55550000D02*
X115700000Y-53000000D01*
X122925000Y-55550000D02*
X126700000Y-59325000D01*
D33*
X94400000Y-55550000D02*
X94350000Y-55500000D01*
X94350000Y-55500000D02*
X49750000Y-55500000D01*
D31*
X134925000Y-88575000D02*
X135825000Y-88575000D01*
D32*
X119850000Y-55550000D02*
X118250000Y-55550000D01*
X133920000Y-65359000D02*
X133920000Y-65935000D01*
D31*
X135825000Y-88575000D02*
X136350000Y-88050000D01*
D30*
X111200000Y-48500000D02*
X115700000Y-53000000D01*
D31*
X136350000Y-88050000D02*
X137125000Y-88050000D01*
D33*
X49650000Y-40000000D02*
X50950000Y-40000000D01*
D30*
%TO.N,ROW0*%
X85710000Y-58000000D02*
X66210000Y-58000000D01*
D31*
X124079000Y-92279000D02*
X124425000Y-92625000D01*
D30*
X121790000Y-58790000D02*
X121000000Y-58000000D01*
D31*
X126675000Y-92625000D02*
X129725000Y-89575000D01*
X124425000Y-92625000D02*
X126675000Y-92625000D01*
D30*
X121000000Y-58000000D02*
X105210000Y-58000000D01*
X105210000Y-58000000D02*
X102290000Y-60920000D01*
D31*
X122875000Y-77450000D02*
X124079000Y-78654000D01*
X121790000Y-60920000D02*
X121790000Y-74710000D01*
D30*
X105210000Y-58000000D02*
X85710000Y-58000000D01*
D31*
X129725000Y-89575000D02*
X130975000Y-89575000D01*
D30*
X85710000Y-58000000D02*
X82790000Y-60920000D01*
D31*
X124079000Y-78654000D02*
X124079000Y-92279000D01*
D30*
X121790000Y-60920000D02*
X121790000Y-58790000D01*
X66210000Y-58000000D02*
X63290000Y-60920000D01*
D31*
%TO.N,COL0*%
X122617000Y-95758000D02*
X56379000Y-95758000D01*
D29*
X60000000Y-123900000D02*
X60000000Y-127000000D01*
X60000000Y-107000000D02*
X57500000Y-109500000D01*
X58000000Y-129000000D02*
X55050000Y-129000000D01*
X55050000Y-109500000D02*
X55050000Y-118950000D01*
X55050000Y-118950000D02*
X60000000Y-123900000D01*
D31*
X60325000Y-84582000D02*
X60325000Y-87249000D01*
X55050000Y-79307000D02*
X60325000Y-84582000D01*
D29*
X57500000Y-109500000D02*
X55050000Y-109500000D01*
X60000000Y-127000000D02*
X58000000Y-129000000D01*
D31*
X60325000Y-87249000D02*
X57574000Y-90000000D01*
X56379000Y-95758000D02*
X55050000Y-94429000D01*
D29*
X55050000Y-98934002D02*
X60000000Y-103884002D01*
D31*
X126400000Y-91625000D02*
X128950000Y-89075000D01*
X124075000Y-94300000D02*
X122617000Y-95758000D01*
D29*
X55050000Y-94429000D02*
X55050000Y-98934002D01*
D31*
X57574000Y-90000000D02*
X55050000Y-90000000D01*
D29*
X60000000Y-103884002D02*
X60000000Y-107000000D01*
D31*
X128950000Y-89075000D02*
X130975000Y-89075000D01*
X55050000Y-70500000D02*
X55050000Y-79307000D01*
D29*
X55050000Y-90000000D02*
X55050000Y-94429000D01*
D31*
%TO.N,GND*%
X140000000Y-100675000D02*
X140000040Y-100674960D01*
D30*
X97028000Y-56896000D02*
X105410000Y-56896000D01*
D31*
X130449200Y-75575800D02*
X129750000Y-76275000D01*
D30*
X53848000Y-56896000D02*
X62738000Y-56896000D01*
X62738000Y-56896000D02*
X70358000Y-56896000D01*
X133000000Y-42300000D02*
X134100000Y-42300000D01*
D33*
X130590000Y-42290000D02*
X115870000Y-42290000D01*
D29*
X135025000Y-87475000D02*
X134925000Y-87575000D01*
X142375000Y-58475000D02*
X142600000Y-58700000D01*
D30*
X121896000Y-56896000D02*
X124300000Y-59300000D01*
D31*
X140000040Y-100674960D02*
X141297500Y-100674960D01*
D33*
X115800000Y-40830000D02*
X115790000Y-40840000D01*
D29*
X141600000Y-58475000D02*
X142375000Y-58475000D01*
D30*
X48260000Y-56896000D02*
X53848000Y-56896000D01*
D33*
X133000000Y-43400000D02*
X131700000Y-43400000D01*
X133000000Y-42300000D02*
X131530000Y-40830000D01*
D30*
X134100000Y-43400000D02*
X135200000Y-43400000D01*
X86106000Y-56896000D02*
X97028000Y-56896000D01*
D31*
X137125000Y-86050000D02*
X137125000Y-85975000D01*
D33*
X131700000Y-43400000D02*
X130590000Y-42290000D01*
X131530000Y-40830000D02*
X115800000Y-40830000D01*
D30*
X133000000Y-43400000D02*
X134100000Y-43400000D01*
D31*
X136550000Y-86625000D02*
X137125000Y-86050000D01*
D29*
X135025000Y-86900000D02*
X135025000Y-87475000D01*
D30*
X70358000Y-56896000D02*
X74204000Y-56896000D01*
D31*
X131125000Y-75575800D02*
X130449200Y-75575800D01*
D30*
X105410000Y-56896000D02*
X121896000Y-56896000D01*
X134100000Y-42300000D02*
X135200000Y-42300000D01*
X74204000Y-56896000D02*
X86106000Y-56896000D01*
D31*
%TO.N,COL3*%
X119960000Y-87575000D02*
X118872000Y-86487000D01*
D29*
X113700000Y-74800000D02*
X113550000Y-74650000D01*
D31*
X124778500Y-87575000D02*
X130975000Y-87575000D01*
D29*
X118872000Y-85090000D02*
X118872000Y-86487000D01*
X113550000Y-74650000D02*
X113550000Y-70500000D01*
X113792000Y-78867000D02*
X113792000Y-80010000D01*
X113792000Y-80010000D02*
X118872000Y-85090000D01*
D31*
X122050000Y-87575000D02*
X119960000Y-87575000D01*
%TO.N,COL2*%
X127425000Y-88075000D02*
X130975000Y-88075000D01*
D29*
X94050000Y-115005000D02*
X94107000Y-115062000D01*
X94050000Y-91637000D02*
X94050000Y-90000000D01*
X94050000Y-109500000D02*
X94050000Y-115005000D01*
X98806000Y-103886000D02*
X98806000Y-107823000D01*
X98806000Y-86341882D02*
X95147882Y-90000000D01*
X94050000Y-75100000D02*
X94050000Y-70500000D01*
X95147882Y-90000000D02*
X94050000Y-90000000D01*
D31*
X124800000Y-88750000D02*
X126750000Y-88750000D01*
D29*
X94107000Y-99187000D02*
X98806000Y-103886000D01*
X94234000Y-78613000D02*
X94234000Y-79375000D01*
X94234000Y-79375000D02*
X98806000Y-83947000D01*
D31*
X96012000Y-93599000D02*
X94107000Y-91694000D01*
D29*
X94107000Y-118307000D02*
X98750000Y-122950000D01*
D31*
X126750000Y-88750000D02*
X127425000Y-88075000D01*
D29*
X98806000Y-107823000D02*
X97129000Y-109500000D01*
D31*
X120200000Y-88750000D02*
X115351000Y-93599000D01*
X122025000Y-88750000D02*
X120200000Y-88750000D01*
D29*
X97820038Y-129000000D02*
X94050000Y-129000000D01*
X94107000Y-91694000D02*
X94050000Y-91637000D01*
X94107000Y-117602000D02*
X94107000Y-118307000D01*
X97129000Y-109500000D02*
X94050000Y-109500000D01*
D31*
X115351000Y-93599000D02*
X96012000Y-93599000D01*
D29*
X94225000Y-75275000D02*
X94050000Y-75100000D01*
X98750000Y-128070038D02*
X97820038Y-129000000D01*
X94107000Y-98044000D02*
X94107000Y-99187000D01*
X98750000Y-122950000D02*
X98750000Y-128070038D01*
X98806000Y-83947000D02*
X98806000Y-86341882D01*
D31*
%TO.N,COL1*%
X125400000Y-91275000D02*
X128100000Y-88575000D01*
X122110000Y-94615000D02*
X77343000Y-94615000D01*
D29*
X74550000Y-91820000D02*
X74550000Y-90000000D01*
X78870901Y-102492901D02*
X74549000Y-98171000D01*
X76809000Y-109500000D02*
X78870901Y-107438099D01*
X78926802Y-83496802D02*
X78926802Y-88332198D01*
X76359000Y-129000000D02*
X74550000Y-129000000D01*
X78870901Y-107438099D02*
X78870901Y-102492901D01*
X74549000Y-117729000D02*
X78870901Y-122050901D01*
D31*
X122900000Y-93825000D02*
X122110000Y-94615000D01*
D29*
X74550000Y-79120000D02*
X78926802Y-83496802D01*
X74550000Y-115315000D02*
X74549000Y-115316000D01*
X74550000Y-78613000D02*
X74550000Y-79120000D01*
X78926802Y-88332198D02*
X77259000Y-90000000D01*
X74550000Y-109500000D02*
X74550000Y-115315000D01*
D31*
X128100000Y-88575000D02*
X130975000Y-88575000D01*
D29*
X74549000Y-91821000D02*
X74550000Y-91820000D01*
X74550000Y-109500000D02*
X76809000Y-109500000D01*
X74550000Y-70500000D02*
X74550000Y-76454000D01*
X78870901Y-126488099D02*
X76359000Y-129000000D01*
X78870901Y-122050901D02*
X78870901Y-126488099D01*
D31*
X77343000Y-94615000D02*
X74549000Y-91821000D01*
D29*
X77259000Y-90000000D02*
X74550000Y-90000000D01*
D30*
%TO.N,ROW3*%
X86000000Y-116500000D02*
X66210000Y-116500000D01*
X86000000Y-116500000D02*
X85710000Y-116500000D01*
X85710000Y-116500000D02*
X82790000Y-119420000D01*
X66210000Y-116500000D02*
X63290000Y-119420000D01*
%TO.N,ROW2*%
X85710000Y-97000000D02*
X82790000Y-99920000D01*
X86000000Y-97000000D02*
X66210000Y-97000000D01*
X105500000Y-97000000D02*
X105210000Y-97000000D01*
X105210000Y-97000000D02*
X102290000Y-99920000D01*
X105500000Y-97000000D02*
X86000000Y-97000000D01*
X66210000Y-97000000D02*
X63290000Y-99920000D01*
X86000000Y-97000000D02*
X85710000Y-97000000D01*
%TO.N,ROW1*%
X105210000Y-77500000D02*
X102290000Y-80420000D01*
D31*
X127350000Y-93400000D02*
X123875000Y-93400000D01*
X121790000Y-83165000D02*
X121790000Y-80420000D01*
D30*
X120500000Y-77500000D02*
X105500000Y-77500000D01*
X105500000Y-77500000D02*
X105210000Y-77500000D01*
X121790000Y-78790000D02*
X120500000Y-77500000D01*
X85710000Y-77500000D02*
X66210000Y-77500000D01*
X105500000Y-77500000D02*
X85710000Y-77500000D01*
D31*
X123150000Y-92675000D02*
X123150000Y-84525000D01*
X130675000Y-90075000D02*
X127350000Y-93400000D01*
X123875000Y-93400000D02*
X123150000Y-92675000D01*
D30*
X121790000Y-80420000D02*
X121790000Y-78790000D01*
X66210000Y-77500000D02*
X63290000Y-80420000D01*
D31*
X123150000Y-84525000D02*
X121790000Y-83165000D01*
D30*
X85710000Y-77500000D02*
X82790000Y-80420000D01*
D31*
X130975000Y-90075000D02*
X130675000Y-90075000D01*
D29*
%TO.N,RST*%
X101600000Y-53400000D02*
X97400000Y-49200000D01*
X108300000Y-53400000D02*
X101600000Y-53400000D01*
%TO.N,LED_WS*%
X144800000Y-57250000D02*
X145162500Y-56887500D01*
X144800000Y-58475000D02*
X144800000Y-57250000D01*
D30*
%TO.N,LDO_IN+*%
X71193000Y-45880000D02*
X77220000Y-45880000D01*
X82620000Y-35600000D02*
X83630000Y-35600000D01*
X82000000Y-36220000D02*
X82620000Y-35600000D01*
X71181500Y-45868500D02*
X71193000Y-45880000D01*
X77220000Y-45880000D02*
X82000000Y-41100000D01*
X82000000Y-41100000D02*
X82000000Y-36220000D01*
D29*
%TO.N,Net-(D5-Pad2)*%
X49440000Y-63460000D02*
X49440000Y-66990000D01*
X49440000Y-66990000D02*
X52950000Y-70500000D01*
%TO.N,Net-(D6-Pad2)*%
X49440000Y-86490000D02*
X52950000Y-90000000D01*
X49440000Y-82960000D02*
X49440000Y-86490000D01*
%TO.N,Net-(D7-Pad2)*%
X49440000Y-105990000D02*
X52950000Y-109500000D01*
X49440000Y-102460000D02*
X49440000Y-105990000D01*
%TO.N,Net-(D8-Pad2)*%
X49440000Y-125490000D02*
X52950000Y-129000000D01*
X49440000Y-121960000D02*
X49440000Y-125490000D01*
%TO.N,Net-(D9-Pad2)*%
X68940000Y-63460000D02*
X68940000Y-66990000D01*
X68940000Y-66990000D02*
X72450000Y-70500000D01*
%TO.N,Net-(D10-Pad2)*%
X68940000Y-82960000D02*
X68940000Y-86490000D01*
X68940000Y-86490000D02*
X72450000Y-90000000D01*
%TO.N,Net-(D11-Pad2)*%
X68940000Y-102460000D02*
X68940000Y-105990000D01*
X68940000Y-105990000D02*
X72450000Y-109500000D01*
%TO.N,Net-(D12-Pad2)*%
X68940000Y-125490000D02*
X72450000Y-129000000D01*
X68940000Y-121960000D02*
X68940000Y-125490000D01*
%TO.N,Net-(D13-Pad2)*%
X88440000Y-66990000D02*
X91950000Y-70500000D01*
X88440000Y-63460000D02*
X88440000Y-66990000D01*
%TO.N,Net-(D14-Pad2)*%
X88440000Y-86490000D02*
X91950000Y-90000000D01*
X88440000Y-82960000D02*
X88440000Y-86490000D01*
%TO.N,Net-(D15-Pad2)*%
X88440000Y-102460000D02*
X88440000Y-105990000D01*
X88440000Y-105990000D02*
X91950000Y-109500000D01*
%TO.N,Net-(D16-Pad2)*%
X88440000Y-121960000D02*
X88440000Y-125490000D01*
X88440000Y-125490000D02*
X91950000Y-129000000D01*
%TO.N,Net-(D17-Pad2)*%
X107940000Y-66990000D02*
X111450000Y-70500000D01*
X107940000Y-63460000D02*
X107940000Y-66990000D01*
%TO.N,Net-(D18-Pad2)*%
X107940000Y-86540000D02*
X111400000Y-90000000D01*
X107940000Y-82960000D02*
X107940000Y-86540000D01*
%TO.N,Net-(D19-Pad2)*%
X107940000Y-115740000D02*
X111450000Y-119250000D01*
X107940000Y-112210000D02*
X107940000Y-115740000D01*
%TO.N,RXD*%
X94425000Y-45500000D02*
X94125000Y-45200000D01*
X122875000Y-48275000D02*
X123400000Y-48800000D01*
X123400000Y-48800000D02*
X132000000Y-48800000D01*
X85537000Y-40037000D02*
X84963000Y-40037000D01*
X94125000Y-45200000D02*
X90700000Y-45200000D01*
X90700000Y-45200000D02*
X85537000Y-40037000D01*
%TO.N,TXD*%
X123275000Y-47300000D02*
X131800000Y-47300000D01*
X91900000Y-46425000D02*
X91801500Y-46326500D01*
X91801500Y-46326500D02*
X89252500Y-46326500D01*
X123000000Y-47025000D02*
X123275000Y-47300000D01*
X89252500Y-46326500D02*
X84963000Y-42037000D01*
%TO.N,I2C_SCL*%
X101600000Y-63800000D02*
X97970901Y-63800000D01*
D31*
X140500000Y-91775000D02*
X139850000Y-91775000D01*
X139159314Y-91775000D02*
X139850000Y-91775000D01*
D29*
X139250000Y-55650000D02*
X139250000Y-40350000D01*
X136475000Y-58425000D02*
X139250000Y-55650000D01*
D31*
X136959314Y-89575000D02*
X139159314Y-91775000D01*
D29*
X103600000Y-65800000D02*
X101600000Y-63800000D01*
D31*
X139825000Y-89025000D02*
X140675000Y-89875000D01*
X140675000Y-91600000D02*
X140500000Y-91775000D01*
D29*
X139250000Y-40350000D02*
X139900000Y-39700000D01*
D31*
X134925000Y-89575000D02*
X136959314Y-89575000D01*
D29*
X103600000Y-68700000D02*
X103600000Y-65800000D01*
X110427000Y-75527000D02*
X103600000Y-68700000D01*
X133975000Y-68825000D02*
X129025000Y-68825000D01*
D31*
X140675000Y-89875000D02*
X140675000Y-91600000D01*
D29*
X129025000Y-68825000D02*
X122323000Y-75527000D01*
X122323000Y-75527000D02*
X110427000Y-75527000D01*
X136460000Y-65935000D02*
X136460000Y-66340000D01*
X136460000Y-66340000D02*
X133975000Y-68825000D01*
X97970901Y-63800000D02*
X94370901Y-60200000D01*
X94370901Y-60200000D02*
X90400000Y-60200000D01*
%TO.N,I2C_SDA*%
X123600000Y-76500000D02*
X129625000Y-70475000D01*
D31*
X138725000Y-90000000D02*
X139700000Y-90975000D01*
D29*
X140825000Y-56700000D02*
X140825000Y-48375000D01*
X88000000Y-60200000D02*
X86100000Y-62100000D01*
X134460000Y-70475000D02*
X139000000Y-65935000D01*
D31*
X137800000Y-89075000D02*
X134925000Y-89075000D01*
D29*
X129625000Y-70475000D02*
X134460000Y-70475000D01*
X93800000Y-76500000D02*
X123600000Y-76500000D01*
D31*
X139700000Y-90975000D02*
X139850000Y-90975000D01*
X138725000Y-90000000D02*
X137800000Y-89075000D01*
D29*
X86100000Y-62100000D02*
X86100000Y-68800000D01*
X140825000Y-48375000D02*
X141725000Y-47475000D01*
X86100000Y-68800000D02*
X93800000Y-76500000D01*
X139475000Y-58050000D02*
X140825000Y-56700000D01*
%TO.N,Net-(J4-PadB5)*%
X64262000Y-43180000D02*
X64770000Y-43688000D01*
X62992000Y-43180000D02*
X64262000Y-43180000D01*
%TO.N,LED_BLUE*%
X131750000Y-49900000D02*
X133400000Y-49900000D01*
X133400000Y-49900000D02*
X133425000Y-49925000D01*
X125425000Y-56125000D02*
X125525000Y-56125000D01*
X125525000Y-56125000D02*
X131750000Y-49900000D01*
%TO.N,IO0*%
X119025000Y-43875000D02*
X130175000Y-43875000D01*
X116125000Y-46775000D02*
X119025000Y-43875000D01*
X114675000Y-46575000D02*
X114875000Y-46775000D01*
X130175000Y-43875000D02*
X130225000Y-43825000D01*
X114875000Y-46775000D02*
X116125000Y-46775000D01*
D31*
%TO.N,BTN1*%
X133200000Y-90800000D02*
X133200000Y-95724520D01*
X133200000Y-95724520D02*
X133400640Y-95925160D01*
%TO.N,BTN2*%
X138399360Y-95474360D02*
X138399360Y-95925160D01*
X134200000Y-90800000D02*
X134200000Y-91275000D01*
X134200000Y-91275000D02*
X138399360Y-95474360D01*
%TO.N,BTNT*%
X133700000Y-90800000D02*
X133700000Y-92625000D01*
X135900000Y-94825000D02*
X135900000Y-95925160D01*
X133700000Y-92625000D02*
X135900000Y-94825000D01*
D29*
%TO.N,Net-(SW1-Pad2)*%
X113620000Y-39645000D02*
X112475000Y-38500000D01*
X113620000Y-41320000D02*
X113620000Y-39645000D01*
D31*
%TO.N,KEY_RST*%
X139419622Y-80805378D02*
X137400000Y-82825000D01*
X134925000Y-88075000D02*
X135625000Y-88075000D01*
X137400000Y-83575000D02*
X137400000Y-82825000D01*
X135775000Y-87925000D02*
X135775000Y-85200000D01*
X135775000Y-85200000D02*
X137400000Y-83575000D01*
X135625000Y-88075000D02*
X135775000Y-87925000D01*
%TO.N,KEY_INT*%
X138200000Y-92225000D02*
X136050000Y-90075000D01*
D29*
X131660000Y-57250000D02*
X132234500Y-56675500D01*
D31*
X136050000Y-90075000D02*
X134925000Y-90075000D01*
X138200000Y-92225000D02*
X138550000Y-92575000D01*
D29*
X132234500Y-56675500D02*
X133250000Y-56675500D01*
D31*
X138550000Y-92575000D02*
X139850000Y-92575000D01*
D29*
X130820000Y-57250000D02*
X131660000Y-57250000D01*
D31*
%TO.N,SW_UP*%
X131125000Y-86275000D02*
X131700000Y-86850000D01*
X131125000Y-81875000D02*
X131125000Y-86275000D01*
%TO.N,COL7_NC*%
X135000000Y-83525000D02*
X135000000Y-82825000D01*
X133200000Y-86850000D02*
X133200000Y-85325000D01*
X133200000Y-85325000D02*
X135000000Y-83525000D01*
%TO.N,COL8_NC*%
X133700000Y-85625000D02*
X135800000Y-83525000D01*
X133700000Y-86850000D02*
X133700000Y-85625000D01*
X135800000Y-83525000D02*
X135800000Y-82825000D01*
%TO.N,COL9_NC*%
X134200000Y-86850000D02*
X134200000Y-86025000D01*
X134200000Y-86025000D02*
X136600000Y-83625000D01*
X136600000Y-83625000D02*
X136600000Y-82825000D01*
%TO.N,ROW4_NC*%
X131175000Y-93650000D02*
X131175000Y-97525000D01*
X140200000Y-97525000D02*
X140200000Y-93725000D01*
X140200000Y-93725000D02*
X139850000Y-93375000D01*
X139625000Y-98100000D02*
X140200000Y-97525000D01*
X131175000Y-97525000D02*
X131750000Y-98100000D01*
X132700000Y-90800000D02*
X132700000Y-92125000D01*
X131750000Y-98100000D02*
X139625000Y-98100000D01*
X132700000Y-92125000D02*
X131175000Y-93650000D01*
%TO.N,COL6_NC*%
X134100000Y-78800000D02*
X134325000Y-78575000D01*
X132700000Y-86850000D02*
X132700000Y-84800000D01*
X134100000Y-83400000D02*
X134100000Y-78800000D01*
X134775000Y-78575000D02*
X135075000Y-78275000D01*
X134325000Y-78575000D02*
X134775000Y-78575000D01*
X135075000Y-78275000D02*
X135075000Y-77825000D01*
X132700000Y-84800000D02*
X134100000Y-83400000D01*
%TO.N,COL5_NC*%
X133375000Y-82800000D02*
X132200000Y-83975000D01*
X133375000Y-78725000D02*
X133375000Y-82800000D01*
X134275000Y-77825000D02*
X133375000Y-78725000D01*
X132200000Y-86850000D02*
X132200000Y-83975000D01*
%TD*%
%TA.AperFunction,Conductor*%
%TO.N,GND*%
G36*
X81762341Y-35028502D02*
G01*
X81808834Y-35082158D01*
X81818938Y-35152432D01*
X81803338Y-35197501D01*
X81785473Y-35228444D01*
X81767257Y-35284508D01*
X81733335Y-35388907D01*
X81702597Y-35439065D01*
X81508472Y-35633190D01*
X81494059Y-35645577D01*
X81476436Y-35658546D01*
X81471692Y-35664129D01*
X81471693Y-35664129D01*
X81442021Y-35699055D01*
X81435091Y-35706571D01*
X81429347Y-35712315D01*
X81427073Y-35715189D01*
X81427067Y-35715196D01*
X81411628Y-35734711D01*
X81408837Y-35738115D01*
X81366055Y-35788472D01*
X81366052Y-35788476D01*
X81361316Y-35794051D01*
X81357988Y-35800568D01*
X81354611Y-35805632D01*
X81351384Y-35810856D01*
X81346840Y-35816600D01*
X81343741Y-35823231D01*
X81315768Y-35883082D01*
X81313837Y-35887033D01*
X81298829Y-35916425D01*
X81280457Y-35952404D01*
X81278716Y-35959519D01*
X81276579Y-35965265D01*
X81274655Y-35971048D01*
X81271556Y-35977679D01*
X81270066Y-35984843D01*
X81256608Y-36049547D01*
X81255639Y-36053829D01*
X81238196Y-36125112D01*
X81237849Y-36130711D01*
X81237848Y-36130715D01*
X81237626Y-36134293D01*
X81237500Y-36136330D01*
X81237461Y-36136328D01*
X81237228Y-36140229D01*
X81236839Y-36144588D01*
X81235348Y-36151756D01*
X81235546Y-36159073D01*
X81237454Y-36229577D01*
X81237500Y-36232986D01*
X81237500Y-40731972D01*
X81217498Y-40800093D01*
X81200595Y-40821067D01*
X76941067Y-45080595D01*
X76878755Y-45114621D01*
X76851972Y-45117500D01*
X73524410Y-45117500D01*
X73456289Y-45097498D01*
X73450348Y-45093435D01*
X73433596Y-45081264D01*
X73433591Y-45081261D01*
X73428252Y-45077382D01*
X73422222Y-45074697D01*
X73259819Y-45002391D01*
X73259818Y-45002391D01*
X73253788Y-44999706D01*
X73160388Y-44979853D01*
X73073444Y-44961372D01*
X73073439Y-44961372D01*
X73066987Y-44960000D01*
X72876013Y-44960000D01*
X72869561Y-44961372D01*
X72869556Y-44961372D01*
X72782612Y-44979853D01*
X72689212Y-44999706D01*
X72562748Y-45056011D01*
X72492382Y-45065445D01*
X72460253Y-45056012D01*
X72333788Y-44999706D01*
X72240388Y-44979853D01*
X72153444Y-44961372D01*
X72153439Y-44961372D01*
X72146987Y-44960000D01*
X71956013Y-44960000D01*
X71949561Y-44961372D01*
X71949556Y-44961372D01*
X71810840Y-44990858D01*
X71769212Y-44999706D01*
X71763179Y-45002392D01*
X71763176Y-45002393D01*
X71667748Y-45044880D01*
X71597381Y-45054314D01*
X71565252Y-45044880D01*
X71469824Y-45002393D01*
X71469821Y-45002392D01*
X71463788Y-44999706D01*
X71422160Y-44990858D01*
X71283444Y-44961372D01*
X71283439Y-44961372D01*
X71276987Y-44960000D01*
X71086013Y-44960000D01*
X71079561Y-44961372D01*
X71079556Y-44961372D01*
X70992612Y-44979853D01*
X70899212Y-44999706D01*
X70893182Y-45002391D01*
X70893181Y-45002391D01*
X70730778Y-45074697D01*
X70730776Y-45074698D01*
X70724748Y-45077382D01*
X70570247Y-45189634D01*
X70442460Y-45331556D01*
X70346973Y-45496944D01*
X70287958Y-45678572D01*
X70287268Y-45685133D01*
X70287268Y-45685135D01*
X70284771Y-45708891D01*
X70267996Y-45868500D01*
X70268686Y-45875065D01*
X70286833Y-46047721D01*
X70287958Y-46058428D01*
X70346973Y-46240056D01*
X70442460Y-46405444D01*
X70446878Y-46410351D01*
X70446879Y-46410352D01*
X70565825Y-46542455D01*
X70570247Y-46547366D01*
X70644494Y-46601310D01*
X70703160Y-46643933D01*
X70724748Y-46659618D01*
X70730776Y-46662302D01*
X70730778Y-46662303D01*
X70874420Y-46726256D01*
X70899212Y-46737294D01*
X70992613Y-46757147D01*
X71079556Y-46775628D01*
X71079561Y-46775628D01*
X71086013Y-46777000D01*
X71276987Y-46777000D01*
X71283439Y-46775628D01*
X71283444Y-46775628D01*
X71449994Y-46740226D01*
X71463788Y-46737294D01*
X71469821Y-46734608D01*
X71469824Y-46734607D01*
X71565252Y-46692120D01*
X71635619Y-46682686D01*
X71667748Y-46692120D01*
X71763176Y-46734607D01*
X71763179Y-46734608D01*
X71769212Y-46737294D01*
X71783006Y-46740226D01*
X71949556Y-46775628D01*
X71949561Y-46775628D01*
X71956013Y-46777000D01*
X72146987Y-46777000D01*
X72153439Y-46775628D01*
X72153444Y-46775628D01*
X72240387Y-46757147D01*
X72333788Y-46737294D01*
X72460252Y-46680989D01*
X72530618Y-46671555D01*
X72562747Y-46680988D01*
X72689212Y-46737294D01*
X72782613Y-46757147D01*
X72869556Y-46775628D01*
X72869561Y-46775628D01*
X72876013Y-46777000D01*
X73066987Y-46777000D01*
X73073439Y-46775628D01*
X73073444Y-46775628D01*
X73160387Y-46757147D01*
X73253788Y-46737294D01*
X73278580Y-46726256D01*
X73422224Y-46662302D01*
X73422225Y-46662301D01*
X73428252Y-46659618D01*
X73429335Y-46658831D01*
X73490283Y-46642500D01*
X77152624Y-46642500D01*
X77171574Y-46643933D01*
X77185973Y-46646124D01*
X77185979Y-46646124D01*
X77193208Y-46647224D01*
X77200500Y-46646631D01*
X77200503Y-46646631D01*
X77246183Y-46642915D01*
X77256398Y-46642500D01*
X77264525Y-46642500D01*
X77268161Y-46642076D01*
X77268163Y-46642076D01*
X77271615Y-46641673D01*
X77292924Y-46639189D01*
X77297244Y-46638762D01*
X77370426Y-46632809D01*
X77377388Y-46630553D01*
X77383376Y-46629357D01*
X77389333Y-46627949D01*
X77396607Y-46627101D01*
X77403489Y-46624603D01*
X77403493Y-46624602D01*
X77465607Y-46602055D01*
X77469711Y-46600645D01*
X77539575Y-46578013D01*
X77545838Y-46574213D01*
X77551380Y-46571675D01*
X77556856Y-46568933D01*
X77563741Y-46566434D01*
X77625132Y-46526185D01*
X77628800Y-46523870D01*
X77691581Y-46485773D01*
X77695786Y-46482059D01*
X77695789Y-46482057D01*
X77700005Y-46478333D01*
X77700031Y-46478362D01*
X77702962Y-46475762D01*
X77706316Y-46472958D01*
X77712435Y-46468946D01*
X77765989Y-46412413D01*
X77768366Y-46409972D01*
X82491528Y-41686810D01*
X82505941Y-41674423D01*
X82517665Y-41665795D01*
X82523564Y-41661454D01*
X82557979Y-41620945D01*
X82564909Y-41613429D01*
X82570653Y-41607685D01*
X82572927Y-41604811D01*
X82572933Y-41604804D01*
X82588372Y-41585289D01*
X82591163Y-41581885D01*
X82633945Y-41531528D01*
X82633948Y-41531524D01*
X82638684Y-41525949D01*
X82642012Y-41519432D01*
X82645389Y-41514368D01*
X82648616Y-41509144D01*
X82653160Y-41503400D01*
X82684242Y-41436896D01*
X82686147Y-41432999D01*
X82719543Y-41367596D01*
X82721284Y-41360482D01*
X82723416Y-41354748D01*
X82725344Y-41348952D01*
X82728444Y-41342320D01*
X82743395Y-41270440D01*
X82744365Y-41266156D01*
X82755677Y-41219928D01*
X82761804Y-41194888D01*
X82762500Y-41183670D01*
X82762537Y-41183672D01*
X82762773Y-41179773D01*
X82763163Y-41175402D01*
X82764652Y-41168243D01*
X82762546Y-41090423D01*
X82762500Y-41087014D01*
X82762500Y-39982604D01*
X83575787Y-39982604D01*
X83585567Y-40193899D01*
X83586971Y-40199724D01*
X83586971Y-40199725D01*
X83632884Y-40390234D01*
X83635125Y-40399534D01*
X83637607Y-40404992D01*
X83637608Y-40404996D01*
X83666592Y-40468742D01*
X83722674Y-40592087D01*
X83790581Y-40687818D01*
X83821902Y-40731972D01*
X83845054Y-40764611D01*
X83849381Y-40768753D01*
X83849386Y-40768759D01*
X83940317Y-40855806D01*
X83975694Y-40917361D01*
X83972175Y-40988270D01*
X83930879Y-41046021D01*
X83919496Y-41053965D01*
X83863652Y-41088522D01*
X83858479Y-41093704D01*
X83836142Y-41116080D01*
X83738695Y-41213697D01*
X83734855Y-41219927D01*
X83734854Y-41219928D01*
X83651750Y-41354748D01*
X83645885Y-41364262D01*
X83632816Y-41403663D01*
X83601935Y-41496769D01*
X83590203Y-41532139D01*
X83579500Y-41636600D01*
X83579500Y-42437400D01*
X83579837Y-42440646D01*
X83579837Y-42440650D01*
X83587081Y-42510460D01*
X83590474Y-42543166D01*
X83592655Y-42549702D01*
X83592655Y-42549704D01*
X83618994Y-42628650D01*
X83646450Y-42710946D01*
X83739522Y-42861348D01*
X83864697Y-42986305D01*
X83870927Y-42990145D01*
X83870928Y-42990146D01*
X83954321Y-43041550D01*
X84015262Y-43079115D01*
X84073700Y-43098498D01*
X84176611Y-43132632D01*
X84176613Y-43132632D01*
X84183139Y-43134797D01*
X84189975Y-43135497D01*
X84189978Y-43135498D01*
X84233031Y-43139909D01*
X84287600Y-43145500D01*
X85120578Y-43145500D01*
X85188699Y-43165502D01*
X85209673Y-43182405D01*
X88747250Y-46719983D01*
X88754826Y-46728309D01*
X88758947Y-46734803D01*
X88764722Y-46740226D01*
X88808765Y-46781585D01*
X88811607Y-46784340D01*
X88831406Y-46804139D01*
X88834537Y-46806568D01*
X88834542Y-46806572D01*
X88834628Y-46806639D01*
X88843653Y-46814347D01*
X88870215Y-46839291D01*
X88870219Y-46839294D01*
X88875994Y-46844717D01*
X88882940Y-46848536D01*
X88882945Y-46848539D01*
X88893828Y-46854522D01*
X88910356Y-46865378D01*
X88920171Y-46872992D01*
X88920174Y-46872994D01*
X88926433Y-46877849D01*
X88933703Y-46880995D01*
X88933708Y-46880998D01*
X88967150Y-46895469D01*
X88977811Y-46900692D01*
X89009747Y-46918249D01*
X89009752Y-46918251D01*
X89016697Y-46922069D01*
X89024371Y-46924039D01*
X89024378Y-46924042D01*
X89036413Y-46927132D01*
X89055118Y-46933536D01*
X89066513Y-46938467D01*
X89073792Y-46941617D01*
X89100842Y-46945901D01*
X89117627Y-46948560D01*
X89129240Y-46950965D01*
X89172218Y-46962000D01*
X89192565Y-46962000D01*
X89212277Y-46963551D01*
X89232379Y-46966735D01*
X89240271Y-46965989D01*
X89276556Y-46962559D01*
X89288414Y-46962000D01*
X91104911Y-46962000D01*
X91173032Y-46982002D01*
X91198547Y-47003689D01*
X91288747Y-47103866D01*
X91443248Y-47216118D01*
X91449276Y-47218802D01*
X91449278Y-47218803D01*
X91536753Y-47257749D01*
X91617712Y-47293794D01*
X91711113Y-47313647D01*
X91798056Y-47332128D01*
X91798061Y-47332128D01*
X91804513Y-47333500D01*
X91995487Y-47333500D01*
X92001939Y-47332128D01*
X92001944Y-47332128D01*
X92088887Y-47313647D01*
X92182288Y-47293794D01*
X92263247Y-47257749D01*
X92350722Y-47218803D01*
X92350724Y-47218802D01*
X92356752Y-47216118D01*
X92511253Y-47103866D01*
X92639040Y-46961944D01*
X92734527Y-46796556D01*
X92793542Y-46614928D01*
X92807896Y-46478362D01*
X92812814Y-46431565D01*
X92813504Y-46425000D01*
X92799025Y-46287237D01*
X92794232Y-46241635D01*
X92794232Y-46241633D01*
X92793542Y-46235072D01*
X92734527Y-46053444D01*
X92717816Y-46024500D01*
X92701078Y-45955505D01*
X92724298Y-45888413D01*
X92780105Y-45844526D01*
X92826935Y-45835500D01*
X93496910Y-45835500D01*
X93565031Y-45855502D01*
X93606029Y-45898500D01*
X93632637Y-45944587D01*
X93685960Y-46036944D01*
X93690378Y-46041851D01*
X93690379Y-46041852D01*
X93705304Y-46058428D01*
X93813747Y-46178866D01*
X93968248Y-46291118D01*
X93974276Y-46293802D01*
X93974278Y-46293803D01*
X94136681Y-46366109D01*
X94142712Y-46368794D01*
X94219294Y-46385072D01*
X94323056Y-46407128D01*
X94323061Y-46407128D01*
X94329513Y-46408500D01*
X94520487Y-46408500D01*
X94526939Y-46407128D01*
X94526944Y-46407128D01*
X94630706Y-46385072D01*
X94707288Y-46368794D01*
X94713319Y-46366109D01*
X94875722Y-46293803D01*
X94875724Y-46293802D01*
X94881752Y-46291118D01*
X95036253Y-46178866D01*
X95144696Y-46058428D01*
X95159621Y-46041852D01*
X95159622Y-46041851D01*
X95164040Y-46036944D01*
X95222314Y-45936010D01*
X95256223Y-45877279D01*
X95256224Y-45877278D01*
X95259527Y-45871556D01*
X95318542Y-45689928D01*
X95320396Y-45672294D01*
X95337814Y-45506565D01*
X95338504Y-45500000D01*
X95318542Y-45310072D01*
X95259527Y-45128444D01*
X95253209Y-45117500D01*
X95167341Y-44968774D01*
X95164040Y-44963056D01*
X95036253Y-44821134D01*
X94881752Y-44708882D01*
X94875724Y-44706198D01*
X94875722Y-44706197D01*
X94713319Y-44633891D01*
X94713318Y-44633891D01*
X94707288Y-44631206D01*
X94613888Y-44611353D01*
X94526944Y-44592872D01*
X94526939Y-44592872D01*
X94520487Y-44591500D01*
X94340855Y-44591500D01*
X94308286Y-44586864D01*
X94303708Y-44584883D01*
X94269872Y-44579524D01*
X94259873Y-44577940D01*
X94248260Y-44575535D01*
X94205282Y-44564500D01*
X94184935Y-44564500D01*
X94165224Y-44562949D01*
X94152950Y-44561005D01*
X94145121Y-44559765D01*
X94137229Y-44560511D01*
X94100944Y-44563941D01*
X94089086Y-44564500D01*
X91015423Y-44564500D01*
X90947302Y-44544498D01*
X90926328Y-44527595D01*
X86377936Y-39979203D01*
X86343910Y-39916891D01*
X86341166Y-39895935D01*
X86340710Y-39886092D01*
X86340433Y-39880101D01*
X86313322Y-39767607D01*
X86292281Y-39680299D01*
X86292280Y-39680297D01*
X86290875Y-39674466D01*
X86282708Y-39656502D01*
X86228456Y-39537184D01*
X86203326Y-39481913D01*
X86090876Y-39323388D01*
X86084412Y-39314275D01*
X86084411Y-39314274D01*
X86080946Y-39309389D01*
X85948656Y-39182749D01*
X85932480Y-39167264D01*
X85928150Y-39163119D01*
X85923119Y-39159870D01*
X85923112Y-39159865D01*
X85895393Y-39141967D01*
X85849016Y-39088211D01*
X85839063Y-39017915D01*
X85868696Y-38953398D01*
X85885909Y-38937030D01*
X86000857Y-38846738D01*
X86009506Y-38838501D01*
X86140212Y-38687877D01*
X86147147Y-38678153D01*
X86247010Y-38505533D01*
X86249543Y-38500000D01*
X111561496Y-38500000D01*
X111562186Y-38506565D01*
X111577354Y-38650877D01*
X111581458Y-38689928D01*
X111640473Y-38871556D01*
X111643776Y-38877278D01*
X111643777Y-38877279D01*
X111660557Y-38906342D01*
X111735960Y-39036944D01*
X111740378Y-39041851D01*
X111740379Y-39041852D01*
X111855978Y-39170238D01*
X111863747Y-39178866D01*
X111945157Y-39238014D01*
X111981846Y-39264670D01*
X112018248Y-39291118D01*
X112024276Y-39293802D01*
X112024278Y-39293803D01*
X112186681Y-39366109D01*
X112192712Y-39368794D01*
X112286112Y-39388647D01*
X112373056Y-39407128D01*
X112373061Y-39407128D01*
X112379513Y-39408500D01*
X112432577Y-39408500D01*
X112500698Y-39428502D01*
X112521673Y-39445405D01*
X112947596Y-39871329D01*
X112981621Y-39933641D01*
X112984500Y-39960424D01*
X112984500Y-40619697D01*
X112964498Y-40687818D01*
X112952136Y-40704006D01*
X112880960Y-40783056D01*
X112785473Y-40948444D01*
X112726458Y-41130072D01*
X112725768Y-41136633D01*
X112725768Y-41136635D01*
X112719763Y-41193770D01*
X112706496Y-41320000D01*
X112707186Y-41326565D01*
X112724904Y-41495139D01*
X112726458Y-41509928D01*
X112785473Y-41691556D01*
X112880960Y-41856944D01*
X113008747Y-41998866D01*
X113163248Y-42111118D01*
X113169276Y-42113802D01*
X113169278Y-42113803D01*
X113331681Y-42186109D01*
X113337712Y-42188794D01*
X113431113Y-42208647D01*
X113518056Y-42227128D01*
X113518061Y-42227128D01*
X113524513Y-42228500D01*
X113715487Y-42228500D01*
X113721939Y-42227128D01*
X113721944Y-42227128D01*
X113808887Y-42208647D01*
X113902288Y-42188794D01*
X113908319Y-42186109D01*
X114070722Y-42113803D01*
X114070724Y-42113802D01*
X114076752Y-42111118D01*
X114231253Y-41998866D01*
X114359040Y-41856944D01*
X114454527Y-41691556D01*
X114513542Y-41509928D01*
X114515097Y-41495139D01*
X114532814Y-41326565D01*
X114533504Y-41320000D01*
X114520237Y-41193770D01*
X114514232Y-41136635D01*
X114514232Y-41136633D01*
X114513542Y-41130072D01*
X114454527Y-40948444D01*
X114359040Y-40783056D01*
X114287864Y-40704007D01*
X114257146Y-40640000D01*
X114255500Y-40619697D01*
X114255500Y-39724032D01*
X114256030Y-39712793D01*
X114257709Y-39705281D01*
X114256741Y-39674466D01*
X114255562Y-39636970D01*
X114255500Y-39633012D01*
X114255500Y-39605017D01*
X114254992Y-39600994D01*
X114254059Y-39589152D01*
X114254053Y-39588936D01*
X114252665Y-39544796D01*
X114246988Y-39525257D01*
X114242979Y-39505896D01*
X114241422Y-39493568D01*
X114241419Y-39493558D01*
X114240427Y-39485701D01*
X114237509Y-39478330D01*
X114224094Y-39444446D01*
X114220249Y-39433219D01*
X114207869Y-39390607D01*
X114197510Y-39373091D01*
X114188813Y-39355341D01*
X114181319Y-39336412D01*
X114155238Y-39300514D01*
X114148722Y-39290594D01*
X114130173Y-39259229D01*
X114130171Y-39259226D01*
X114126135Y-39252402D01*
X114111747Y-39238014D01*
X114098906Y-39222980D01*
X114091602Y-39212927D01*
X114086942Y-39206513D01*
X114052750Y-39178227D01*
X114043971Y-39170238D01*
X113421790Y-38548057D01*
X113387764Y-38485745D01*
X113385575Y-38472132D01*
X113369232Y-38316635D01*
X113369232Y-38316633D01*
X113368542Y-38310072D01*
X113309527Y-38128444D01*
X113214040Y-37963056D01*
X113192946Y-37939628D01*
X113090675Y-37826045D01*
X113090674Y-37826044D01*
X113086253Y-37821134D01*
X112931752Y-37708882D01*
X112925724Y-37706198D01*
X112925722Y-37706197D01*
X112763319Y-37633891D01*
X112763318Y-37633891D01*
X112757288Y-37631206D01*
X112663887Y-37611353D01*
X112576944Y-37592872D01*
X112576939Y-37592872D01*
X112570487Y-37591500D01*
X112379513Y-37591500D01*
X112373061Y-37592872D01*
X112373056Y-37592872D01*
X112286113Y-37611353D01*
X112192712Y-37631206D01*
X112186682Y-37633891D01*
X112186681Y-37633891D01*
X112024278Y-37706197D01*
X112024276Y-37706198D01*
X112018248Y-37708882D01*
X111863747Y-37821134D01*
X111859326Y-37826044D01*
X111859325Y-37826045D01*
X111757055Y-37939628D01*
X111735960Y-37963056D01*
X111640473Y-38128444D01*
X111581458Y-38310072D01*
X111580768Y-38316633D01*
X111580768Y-38316635D01*
X111571498Y-38404832D01*
X111561496Y-38500000D01*
X86249543Y-38500000D01*
X86251984Y-38494669D01*
X86317407Y-38306273D01*
X86317648Y-38305284D01*
X86316180Y-38294992D01*
X86302615Y-38291000D01*
X83627598Y-38291000D01*
X83614067Y-38294973D01*
X83612712Y-38304399D01*
X83634194Y-38393537D01*
X83638083Y-38404832D01*
X83720629Y-38586382D01*
X83726576Y-38596724D01*
X83841968Y-38759397D01*
X83849761Y-38768425D01*
X83993831Y-38906342D01*
X84003200Y-38913741D01*
X84030577Y-38931418D01*
X84076955Y-38985172D01*
X84086909Y-39055468D01*
X84057278Y-39119985D01*
X84040063Y-39136356D01*
X83920080Y-39230604D01*
X83916148Y-39235135D01*
X83916145Y-39235138D01*
X83812308Y-39354800D01*
X83781448Y-39390363D01*
X83778448Y-39395549D01*
X83778445Y-39395553D01*
X83728485Y-39481913D01*
X83675527Y-39573454D01*
X83606139Y-39773271D01*
X83605278Y-39779206D01*
X83605278Y-39779208D01*
X83589781Y-39886092D01*
X83575787Y-39982604D01*
X82762500Y-39982604D01*
X82762500Y-37768716D01*
X83608352Y-37768716D01*
X83609820Y-37779008D01*
X83623385Y-37783000D01*
X84690885Y-37783000D01*
X84706124Y-37778525D01*
X84707329Y-37777135D01*
X84709000Y-37769452D01*
X84709000Y-37764885D01*
X85217000Y-37764885D01*
X85221475Y-37780124D01*
X85222865Y-37781329D01*
X85230548Y-37783000D01*
X86298402Y-37783000D01*
X86311933Y-37779027D01*
X86313288Y-37769601D01*
X86291806Y-37680463D01*
X86287917Y-37669168D01*
X86205371Y-37487618D01*
X86199424Y-37477276D01*
X86084032Y-37314603D01*
X86076239Y-37305575D01*
X85932169Y-37167658D01*
X85922804Y-37160262D01*
X85755259Y-37052079D01*
X85744655Y-37046583D01*
X85559688Y-36972039D01*
X85548230Y-36968645D01*
X85351072Y-36930143D01*
X85342209Y-36929066D01*
X85339500Y-36929000D01*
X85235115Y-36929000D01*
X85219876Y-36933475D01*
X85218671Y-36934865D01*
X85217000Y-36942548D01*
X85217000Y-37764885D01*
X84709000Y-37764885D01*
X84709000Y-36947115D01*
X84704525Y-36931876D01*
X84703135Y-36930671D01*
X84695452Y-36929000D01*
X84638168Y-36929000D01*
X84632192Y-36929285D01*
X84483506Y-36943471D01*
X84471772Y-36945730D01*
X84280401Y-37001872D01*
X84269325Y-37006302D01*
X84092022Y-37097619D01*
X84081976Y-37104069D01*
X83925143Y-37227262D01*
X83916494Y-37235499D01*
X83785788Y-37386123D01*
X83778853Y-37395847D01*
X83678990Y-37568467D01*
X83674016Y-37579331D01*
X83608593Y-37767727D01*
X83608352Y-37768716D01*
X82762500Y-37768716D01*
X82762500Y-36600540D01*
X82782502Y-36532419D01*
X82836158Y-36485926D01*
X82862303Y-36477293D01*
X82902288Y-36468794D01*
X82917162Y-36462172D01*
X83073751Y-36392454D01*
X83144118Y-36383020D01*
X83176249Y-36392454D01*
X83332839Y-36462172D01*
X83347712Y-36468794D01*
X83430353Y-36486360D01*
X83528056Y-36507128D01*
X83528061Y-36507128D01*
X83534513Y-36508500D01*
X83725487Y-36508500D01*
X83731939Y-36507128D01*
X83731944Y-36507128D01*
X83829647Y-36486360D01*
X83912288Y-36468794D01*
X83918319Y-36466109D01*
X84080722Y-36393803D01*
X84080724Y-36393802D01*
X84086752Y-36391118D01*
X84241253Y-36278866D01*
X84245675Y-36273955D01*
X84364621Y-36141852D01*
X84364622Y-36141851D01*
X84369040Y-36136944D01*
X84464527Y-35971556D01*
X84523542Y-35789928D01*
X84525549Y-35770838D01*
X84542814Y-35606565D01*
X84543504Y-35600000D01*
X84524782Y-35421869D01*
X84524232Y-35416635D01*
X84524232Y-35416633D01*
X84523542Y-35410072D01*
X84464527Y-35228444D01*
X84446662Y-35197501D01*
X84429923Y-35128506D01*
X84453143Y-35061414D01*
X84508949Y-35017526D01*
X84555780Y-35008500D01*
X110050703Y-35008500D01*
X110118824Y-35028502D01*
X110165317Y-35082158D01*
X110175421Y-35152432D01*
X110145927Y-35217012D01*
X110111790Y-35244702D01*
X110055729Y-35275777D01*
X110055726Y-35275779D01*
X110050150Y-35278870D01*
X110045309Y-35283019D01*
X110045305Y-35283022D01*
X109907145Y-35401440D01*
X109902302Y-35405591D01*
X109898391Y-35410633D01*
X109898390Y-35410634D01*
X109846503Y-35477526D01*
X109782954Y-35559453D01*
X109780138Y-35565176D01*
X109780136Y-35565179D01*
X109736608Y-35653640D01*
X109696982Y-35734171D01*
X109695373Y-35740349D01*
X109695372Y-35740351D01*
X109658194Y-35883082D01*
X109647898Y-35922607D01*
X109645662Y-35965271D01*
X109641021Y-36053838D01*
X109637707Y-36117064D01*
X109666825Y-36309599D01*
X109669028Y-36315585D01*
X109669029Y-36315591D01*
X109731860Y-36486360D01*
X109731862Y-36486365D01*
X109734063Y-36492346D01*
X109836674Y-36657840D01*
X109970466Y-36799322D01*
X110129975Y-36911011D01*
X110135838Y-36913548D01*
X110302825Y-36985810D01*
X110302829Y-36985811D01*
X110308684Y-36988345D01*
X110314931Y-36989650D01*
X110314934Y-36989651D01*
X110494557Y-37027176D01*
X110494562Y-37027177D01*
X110499293Y-37028165D01*
X110505685Y-37028500D01*
X110648663Y-37028500D01*
X110717951Y-37021462D01*
X110787378Y-37014410D01*
X110787379Y-37014410D01*
X110793727Y-37013765D01*
X110874843Y-36988345D01*
X110973451Y-36957444D01*
X110973456Y-36957442D01*
X110979541Y-36955535D01*
X111086087Y-36896475D01*
X111144271Y-36864223D01*
X111144274Y-36864221D01*
X111149850Y-36861130D01*
X111154691Y-36856981D01*
X111154695Y-36856978D01*
X111292855Y-36738560D01*
X111297698Y-36734409D01*
X111417046Y-36580547D01*
X111440236Y-36533420D01*
X111500200Y-36411556D01*
X111503018Y-36405829D01*
X111507861Y-36387237D01*
X111550492Y-36223575D01*
X111550492Y-36223572D01*
X111552102Y-36217393D01*
X111559313Y-36079796D01*
X111561959Y-36029317D01*
X111561959Y-36029313D01*
X111562293Y-36022936D01*
X111533175Y-35830401D01*
X111530972Y-35824415D01*
X111530971Y-35824409D01*
X111468140Y-35653640D01*
X111468138Y-35653635D01*
X111465937Y-35647654D01*
X111395090Y-35533390D01*
X111366688Y-35487582D01*
X111366687Y-35487581D01*
X111363326Y-35482160D01*
X111301363Y-35416635D01*
X111233919Y-35345315D01*
X111229534Y-35340678D01*
X111221140Y-35334800D01*
X111093277Y-35245270D01*
X111082484Y-35237713D01*
X111038155Y-35182256D01*
X111030846Y-35111637D01*
X111062876Y-35048276D01*
X111124078Y-35012291D01*
X111154754Y-35008500D01*
X113050703Y-35008500D01*
X113118824Y-35028502D01*
X113165317Y-35082158D01*
X113175421Y-35152432D01*
X113145927Y-35217012D01*
X113111790Y-35244702D01*
X113055729Y-35275777D01*
X113055726Y-35275779D01*
X113050150Y-35278870D01*
X113045309Y-35283019D01*
X113045305Y-35283022D01*
X112907145Y-35401440D01*
X112902302Y-35405591D01*
X112898391Y-35410633D01*
X112898390Y-35410634D01*
X112846503Y-35477526D01*
X112782954Y-35559453D01*
X112780138Y-35565176D01*
X112780136Y-35565179D01*
X112736608Y-35653640D01*
X112696982Y-35734171D01*
X112695373Y-35740349D01*
X112695372Y-35740351D01*
X112658194Y-35883082D01*
X112647898Y-35922607D01*
X112645662Y-35965271D01*
X112641021Y-36053838D01*
X112637707Y-36117064D01*
X112666825Y-36309599D01*
X112669028Y-36315585D01*
X112669029Y-36315591D01*
X112731860Y-36486360D01*
X112731862Y-36486365D01*
X112734063Y-36492346D01*
X112836674Y-36657840D01*
X112970466Y-36799322D01*
X113129975Y-36911011D01*
X113135838Y-36913548D01*
X113302825Y-36985810D01*
X113302829Y-36985811D01*
X113308684Y-36988345D01*
X113314931Y-36989650D01*
X113314934Y-36989651D01*
X113494557Y-37027176D01*
X113494562Y-37027177D01*
X113499293Y-37028165D01*
X113505685Y-37028500D01*
X113648663Y-37028500D01*
X113717951Y-37021462D01*
X113787378Y-37014410D01*
X113787379Y-37014410D01*
X113793727Y-37013765D01*
X113874843Y-36988345D01*
X113973451Y-36957444D01*
X113973456Y-36957442D01*
X113979541Y-36955535D01*
X114086087Y-36896475D01*
X114144271Y-36864223D01*
X114144274Y-36864221D01*
X114149850Y-36861130D01*
X114154691Y-36856981D01*
X114154695Y-36856978D01*
X114292855Y-36738560D01*
X114297698Y-36734409D01*
X114417046Y-36580547D01*
X114440236Y-36533420D01*
X114500200Y-36411556D01*
X114503018Y-36405829D01*
X114507861Y-36387237D01*
X114550492Y-36223575D01*
X114550492Y-36223572D01*
X114552102Y-36217393D01*
X114559313Y-36079796D01*
X114561959Y-36029317D01*
X114561959Y-36029313D01*
X114562293Y-36022936D01*
X114533175Y-35830401D01*
X114530972Y-35824415D01*
X114530971Y-35824409D01*
X114468140Y-35653640D01*
X114468138Y-35653635D01*
X114465937Y-35647654D01*
X114395090Y-35533390D01*
X114366688Y-35487582D01*
X114366687Y-35487581D01*
X114363326Y-35482160D01*
X114301363Y-35416635D01*
X114233919Y-35345315D01*
X114229534Y-35340678D01*
X114221140Y-35334800D01*
X114093277Y-35245270D01*
X114082484Y-35237713D01*
X114038155Y-35182256D01*
X114030846Y-35111637D01*
X114062876Y-35048276D01*
X114124078Y-35012291D01*
X114154754Y-35008500D01*
X117223939Y-35008500D01*
X117292060Y-35028502D01*
X117338553Y-35082158D01*
X117349938Y-35134509D01*
X117349451Y-40157288D01*
X117349019Y-44600070D01*
X117329010Y-44668189D01*
X117312114Y-44689153D01*
X115898672Y-46102595D01*
X115836360Y-46136621D01*
X115809577Y-46139500D01*
X115545355Y-46139500D01*
X115477234Y-46119498D01*
X115436236Y-46076501D01*
X115426553Y-46059729D01*
X115414040Y-46038056D01*
X115286253Y-45896134D01*
X115131752Y-45783882D01*
X115125724Y-45781198D01*
X115125722Y-45781197D01*
X114963319Y-45708891D01*
X114963318Y-45708891D01*
X114957288Y-45706206D01*
X114851764Y-45683776D01*
X114776944Y-45667872D01*
X114776939Y-45667872D01*
X114770487Y-45666500D01*
X114579513Y-45666500D01*
X114573061Y-45667872D01*
X114573056Y-45667872D01*
X114498236Y-45683776D01*
X114392712Y-45706206D01*
X114386682Y-45708891D01*
X114386681Y-45708891D01*
X114224278Y-45781197D01*
X114224276Y-45781198D01*
X114218248Y-45783882D01*
X114063747Y-45896134D01*
X113935960Y-46038056D01*
X113927076Y-46053444D01*
X113857499Y-46173955D01*
X113840473Y-46203444D01*
X113781458Y-46385072D01*
X113780768Y-46391633D01*
X113780768Y-46391635D01*
X113770874Y-46485773D01*
X113761496Y-46575000D01*
X113762186Y-46581565D01*
X113778554Y-46737294D01*
X113781458Y-46764928D01*
X113840473Y-46946556D01*
X113843776Y-46952278D01*
X113843777Y-46952279D01*
X113849712Y-46962559D01*
X113935960Y-47111944D01*
X113940378Y-47116851D01*
X113940379Y-47116852D01*
X114032176Y-47218803D01*
X114063747Y-47253866D01*
X114218248Y-47366118D01*
X114224276Y-47368802D01*
X114224278Y-47368803D01*
X114386679Y-47441108D01*
X114392712Y-47443794D01*
X114486112Y-47463647D01*
X114573056Y-47482128D01*
X114573061Y-47482128D01*
X114579513Y-47483500D01*
X114770487Y-47483500D01*
X114776939Y-47482128D01*
X114776944Y-47482128D01*
X114863888Y-47463647D01*
X114957288Y-47443794D01*
X114963315Y-47441111D01*
X114963323Y-47441108D01*
X115007603Y-47421393D01*
X115058851Y-47410500D01*
X115547762Y-47410500D01*
X115615883Y-47430502D01*
X115662376Y-47484158D01*
X115672480Y-47554432D01*
X115642986Y-47619012D01*
X115636857Y-47625595D01*
X115025267Y-48237185D01*
X115015125Y-48246286D01*
X114985351Y-48270225D01*
X114952813Y-48309002D01*
X114949649Y-48312629D01*
X114947954Y-48314498D01*
X114945760Y-48316692D01*
X114918188Y-48350258D01*
X114917482Y-48351108D01*
X114865748Y-48412763D01*
X114857214Y-48422933D01*
X114854627Y-48427639D01*
X114851218Y-48431789D01*
X114848310Y-48437213D01*
X114848303Y-48437223D01*
X114806939Y-48514368D01*
X114806310Y-48515528D01*
X114761179Y-48597621D01*
X114759555Y-48602741D01*
X114757017Y-48607474D01*
X114740024Y-48663056D01*
X114729648Y-48696993D01*
X114729256Y-48698252D01*
X114702765Y-48781761D01*
X114700902Y-48787635D01*
X114700303Y-48792973D01*
X114698733Y-48798109D01*
X114691273Y-48871556D01*
X114689263Y-48891343D01*
X114689134Y-48892551D01*
X114683500Y-48942784D01*
X114683500Y-48946289D01*
X114683438Y-48947397D01*
X114682990Y-48953092D01*
X114679210Y-48990305D01*
X114679210Y-48990312D01*
X114678588Y-48996435D01*
X114680593Y-49017646D01*
X114682941Y-49042485D01*
X114683500Y-49054343D01*
X114683500Y-50600972D01*
X114663498Y-50669093D01*
X114609842Y-50715586D01*
X114539568Y-50725690D01*
X114474988Y-50696196D01*
X114468405Y-50690067D01*
X112117403Y-48339065D01*
X112086665Y-48288907D01*
X112036568Y-48134726D01*
X112034527Y-48128444D01*
X111939040Y-47963056D01*
X111811253Y-47821134D01*
X111656752Y-47708882D01*
X111650724Y-47706198D01*
X111650722Y-47706197D01*
X111488319Y-47633891D01*
X111488318Y-47633891D01*
X111482288Y-47631206D01*
X111388887Y-47611353D01*
X111301944Y-47592872D01*
X111301939Y-47592872D01*
X111295487Y-47591500D01*
X111104513Y-47591500D01*
X111098061Y-47592872D01*
X111098056Y-47592872D01*
X111011113Y-47611353D01*
X110917712Y-47631206D01*
X110911682Y-47633891D01*
X110911681Y-47633891D01*
X110749278Y-47706197D01*
X110749276Y-47706198D01*
X110743248Y-47708882D01*
X110588747Y-47821134D01*
X110460960Y-47963056D01*
X110365473Y-48128444D01*
X110306458Y-48310072D01*
X110305768Y-48316633D01*
X110305768Y-48316635D01*
X110302193Y-48350651D01*
X110286496Y-48500000D01*
X110287186Y-48506565D01*
X110304235Y-48668774D01*
X110306458Y-48689928D01*
X110365473Y-48871556D01*
X110368776Y-48877278D01*
X110368777Y-48877279D01*
X110385264Y-48905835D01*
X110460960Y-49036944D01*
X110465378Y-49041851D01*
X110465379Y-49041852D01*
X110491893Y-49071299D01*
X110588747Y-49178866D01*
X110743248Y-49291118D01*
X110749276Y-49293802D01*
X110749278Y-49293803D01*
X110911681Y-49366109D01*
X110917712Y-49368794D01*
X110924167Y-49370166D01*
X110924176Y-49370169D01*
X110973588Y-49380672D01*
X111036485Y-49414823D01*
X114652697Y-53031035D01*
X114686723Y-53093347D01*
X114689122Y-53109147D01*
X114696012Y-53187892D01*
X114697511Y-53193052D01*
X114698035Y-53198394D01*
X114703543Y-53216635D01*
X114725098Y-53288031D01*
X114725455Y-53289236D01*
X114751628Y-53379322D01*
X114754100Y-53384090D01*
X114755652Y-53389232D01*
X114758547Y-53394677D01*
X114758550Y-53394684D01*
X114799633Y-53471950D01*
X114800213Y-53473054D01*
X114843366Y-53556304D01*
X114846718Y-53560503D01*
X114849239Y-53565244D01*
X114853131Y-53570016D01*
X114908438Y-53637829D01*
X114909266Y-53638855D01*
X114938571Y-53675564D01*
X114940768Y-53678316D01*
X114943263Y-53680811D01*
X114943973Y-53681605D01*
X114947693Y-53685960D01*
X114971337Y-53714951D01*
X114971340Y-53714954D01*
X114975232Y-53719726D01*
X114979980Y-53723654D01*
X114979981Y-53723655D01*
X115010873Y-53749211D01*
X115019652Y-53757200D01*
X115580857Y-54318405D01*
X115614883Y-54380717D01*
X115609818Y-54451532D01*
X115567271Y-54508368D01*
X115500751Y-54533179D01*
X115491762Y-54533500D01*
X108535757Y-54533500D01*
X108467636Y-54513498D01*
X108421143Y-54459842D01*
X108411039Y-54389568D01*
X108440533Y-54324988D01*
X108500259Y-54286604D01*
X108509560Y-54284253D01*
X108529601Y-54279993D01*
X108582288Y-54268794D01*
X108588319Y-54266109D01*
X108750722Y-54193803D01*
X108750724Y-54193802D01*
X108756752Y-54191118D01*
X108911253Y-54078866D01*
X108932290Y-54055502D01*
X109034621Y-53941852D01*
X109034622Y-53941851D01*
X109039040Y-53936944D01*
X109118246Y-53799756D01*
X109131223Y-53777279D01*
X109131224Y-53777278D01*
X109134527Y-53771556D01*
X109193542Y-53589928D01*
X109196137Y-53565244D01*
X109212814Y-53406565D01*
X109213504Y-53400000D01*
X109193542Y-53210072D01*
X109134527Y-53028444D01*
X109130284Y-53021094D01*
X109042341Y-52868774D01*
X109039040Y-52863056D01*
X108911253Y-52721134D01*
X108783648Y-52628423D01*
X108762094Y-52612763D01*
X108762093Y-52612762D01*
X108756752Y-52608882D01*
X108750724Y-52606198D01*
X108750722Y-52606197D01*
X108588319Y-52533891D01*
X108588318Y-52533891D01*
X108582288Y-52531206D01*
X108488888Y-52511353D01*
X108401944Y-52492872D01*
X108401939Y-52492872D01*
X108395487Y-52491500D01*
X108204513Y-52491500D01*
X108198061Y-52492872D01*
X108198056Y-52492872D01*
X108111113Y-52511353D01*
X108017712Y-52531206D01*
X108011682Y-52533891D01*
X108011681Y-52533891D01*
X107849278Y-52606197D01*
X107849276Y-52606198D01*
X107843248Y-52608882D01*
X107837907Y-52612762D01*
X107837906Y-52612763D01*
X107816352Y-52628423D01*
X107688747Y-52721134D01*
X107684332Y-52726037D01*
X107679420Y-52730460D01*
X107677779Y-52728638D01*
X107626790Y-52760050D01*
X107593601Y-52764500D01*
X101915422Y-52764500D01*
X101847301Y-52744498D01*
X101826327Y-52727595D01*
X98346790Y-49248057D01*
X98312764Y-49185745D01*
X98310575Y-49172132D01*
X98294232Y-49016635D01*
X98294232Y-49016633D01*
X98293542Y-49010072D01*
X98234527Y-48828444D01*
X98210452Y-48786744D01*
X98159036Y-48697690D01*
X98139040Y-48663056D01*
X98085282Y-48603351D01*
X98015675Y-48526045D01*
X98015674Y-48526044D01*
X98011253Y-48521134D01*
X97876754Y-48423414D01*
X97862094Y-48412763D01*
X97862093Y-48412762D01*
X97856752Y-48408882D01*
X97850724Y-48406198D01*
X97850722Y-48406197D01*
X97688319Y-48333891D01*
X97688318Y-48333891D01*
X97682288Y-48331206D01*
X97577705Y-48308976D01*
X97501944Y-48292872D01*
X97501939Y-48292872D01*
X97495487Y-48291500D01*
X97304513Y-48291500D01*
X97298061Y-48292872D01*
X97298056Y-48292872D01*
X97222295Y-48308976D01*
X97117712Y-48331206D01*
X97111682Y-48333891D01*
X97111681Y-48333891D01*
X96949278Y-48406197D01*
X96949276Y-48406198D01*
X96943248Y-48408882D01*
X96937907Y-48412762D01*
X96937906Y-48412763D01*
X96923246Y-48423414D01*
X96788747Y-48521134D01*
X96784326Y-48526044D01*
X96784325Y-48526045D01*
X96714719Y-48603351D01*
X96660960Y-48663056D01*
X96640964Y-48697690D01*
X96589549Y-48786744D01*
X96565473Y-48828444D01*
X96506458Y-49010072D01*
X96505768Y-49016633D01*
X96505768Y-49016635D01*
X96501169Y-49060393D01*
X96486496Y-49200000D01*
X96487186Y-49206565D01*
X96503955Y-49366109D01*
X96506458Y-49389928D01*
X96565473Y-49571556D01*
X96660960Y-49736944D01*
X96788747Y-49878866D01*
X96943248Y-49991118D01*
X96949276Y-49993802D01*
X96949278Y-49993803D01*
X97111681Y-50066109D01*
X97117712Y-50068794D01*
X97211113Y-50088647D01*
X97298056Y-50107128D01*
X97298061Y-50107128D01*
X97304513Y-50108500D01*
X97357578Y-50108500D01*
X97425699Y-50128502D01*
X97446673Y-50145405D01*
X99276475Y-51975208D01*
X101094750Y-53793483D01*
X101102326Y-53801809D01*
X101106447Y-53808303D01*
X101112222Y-53813726D01*
X101156265Y-53855085D01*
X101159107Y-53857840D01*
X101178906Y-53877639D01*
X101182031Y-53880063D01*
X101182040Y-53880071D01*
X101182126Y-53880137D01*
X101191151Y-53887845D01*
X101223494Y-53918217D01*
X101230438Y-53922035D01*
X101230440Y-53922036D01*
X101241329Y-53928022D01*
X101257847Y-53938873D01*
X101273933Y-53951350D01*
X101314666Y-53968976D01*
X101325314Y-53974193D01*
X101364197Y-53995569D01*
X101371872Y-53997540D01*
X101371878Y-53997542D01*
X101383911Y-54000631D01*
X101402613Y-54007034D01*
X101421292Y-54015117D01*
X101455128Y-54020476D01*
X101465127Y-54022060D01*
X101476740Y-54024465D01*
X101519718Y-54035500D01*
X101540065Y-54035500D01*
X101559777Y-54037051D01*
X101579879Y-54040235D01*
X101587771Y-54039489D01*
X101624056Y-54036059D01*
X101635914Y-54035500D01*
X107593601Y-54035500D01*
X107661722Y-54055502D01*
X107678908Y-54070109D01*
X107679420Y-54069540D01*
X107684332Y-54073963D01*
X107688747Y-54078866D01*
X107843248Y-54191118D01*
X107849276Y-54193802D01*
X107849278Y-54193803D01*
X108011681Y-54266109D01*
X108017712Y-54268794D01*
X108070399Y-54279993D01*
X108090440Y-54284253D01*
X108152914Y-54317982D01*
X108187235Y-54380131D01*
X108182507Y-54450970D01*
X108140231Y-54508008D01*
X108073830Y-54533135D01*
X108064243Y-54533500D01*
X94349843Y-54533500D01*
X94346787Y-54533800D01*
X94346780Y-54533800D01*
X94287759Y-54539587D01*
X94201606Y-54548035D01*
X94195707Y-54549816D01*
X94195702Y-54549817D01*
X94012523Y-54605122D01*
X93976105Y-54610500D01*
X50170633Y-54610500D01*
X50102512Y-54590498D01*
X50081538Y-54573595D01*
X49526405Y-54018462D01*
X49492379Y-53956150D01*
X49489500Y-53929367D01*
X49489500Y-51132703D01*
X51290743Y-51132703D01*
X51328268Y-51417734D01*
X51404129Y-51695036D01*
X51516923Y-51959476D01*
X51664561Y-52206161D01*
X51844313Y-52430528D01*
X51861397Y-52446740D01*
X52036349Y-52612763D01*
X52052851Y-52628423D01*
X52286317Y-52796186D01*
X52290112Y-52798195D01*
X52290113Y-52798196D01*
X52311869Y-52809715D01*
X52540392Y-52930712D01*
X52810373Y-53029511D01*
X53091264Y-53090755D01*
X53119841Y-53093004D01*
X53314282Y-53108307D01*
X53314291Y-53108307D01*
X53316739Y-53108500D01*
X53472271Y-53108500D01*
X53474407Y-53108354D01*
X53474418Y-53108354D01*
X53682548Y-53094165D01*
X53682554Y-53094164D01*
X53686825Y-53093873D01*
X53691020Y-53093004D01*
X53691022Y-53093004D01*
X53827583Y-53064724D01*
X53968342Y-53035574D01*
X54239343Y-52939607D01*
X54494812Y-52807750D01*
X54498313Y-52805289D01*
X54498317Y-52805287D01*
X54623579Y-52717251D01*
X54730023Y-52642441D01*
X54940622Y-52446740D01*
X55122713Y-52224268D01*
X55272927Y-51979142D01*
X55388483Y-51715898D01*
X55467244Y-51439406D01*
X55507751Y-51154784D01*
X55507845Y-51136951D01*
X55509235Y-50871583D01*
X55509235Y-50871576D01*
X55509257Y-50867297D01*
X55471732Y-50582266D01*
X55395871Y-50304964D01*
X55320603Y-50128502D01*
X55284763Y-50044476D01*
X55284761Y-50044472D01*
X55283077Y-50040524D01*
X55186327Y-49878866D01*
X55137643Y-49797521D01*
X55137640Y-49797517D01*
X55135439Y-49793839D01*
X54955687Y-49569472D01*
X54766487Y-49389928D01*
X54750258Y-49374527D01*
X54750255Y-49374525D01*
X54747149Y-49371577D01*
X54526976Y-49213366D01*
X54517172Y-49206321D01*
X54517171Y-49206320D01*
X54513683Y-49203814D01*
X54491843Y-49192250D01*
X54468654Y-49179972D01*
X54259608Y-49069288D01*
X54043777Y-48990305D01*
X53993658Y-48971964D01*
X53993656Y-48971963D01*
X53989627Y-48970489D01*
X53708736Y-48909245D01*
X53677685Y-48906801D01*
X53485718Y-48891693D01*
X53485709Y-48891693D01*
X53483261Y-48891500D01*
X53327729Y-48891500D01*
X53325593Y-48891646D01*
X53325582Y-48891646D01*
X53117452Y-48905835D01*
X53117446Y-48905836D01*
X53113175Y-48906127D01*
X53108980Y-48906996D01*
X53108978Y-48906996D01*
X52972417Y-48935276D01*
X52831658Y-48964426D01*
X52560657Y-49060393D01*
X52305188Y-49192250D01*
X52301687Y-49194711D01*
X52301683Y-49194713D01*
X52187583Y-49274904D01*
X52069977Y-49357559D01*
X51859378Y-49553260D01*
X51677287Y-49775732D01*
X51527073Y-50020858D01*
X51525347Y-50024791D01*
X51525346Y-50024792D01*
X51505428Y-50070166D01*
X51411517Y-50284102D01*
X51332756Y-50560594D01*
X51292249Y-50845216D01*
X51292227Y-50849505D01*
X51292226Y-50849512D01*
X51290765Y-51128417D01*
X51290743Y-51132703D01*
X49489500Y-51132703D01*
X49489500Y-43180000D01*
X62078496Y-43180000D01*
X62079186Y-43186565D01*
X62084518Y-43237292D01*
X62098458Y-43369928D01*
X62157473Y-43551556D01*
X62252960Y-43716944D01*
X62380747Y-43858866D01*
X62535248Y-43971118D01*
X62541276Y-43973802D01*
X62541278Y-43973803D01*
X62703681Y-44046109D01*
X62709712Y-44048794D01*
X62803113Y-44068647D01*
X62890056Y-44087128D01*
X62890061Y-44087128D01*
X62896513Y-44088500D01*
X63087487Y-44088500D01*
X63093939Y-44087128D01*
X63093944Y-44087128D01*
X63180887Y-44068647D01*
X63274288Y-44048794D01*
X63280319Y-44046109D01*
X63442722Y-43973803D01*
X63442724Y-43973802D01*
X63448752Y-43971118D01*
X63553353Y-43895121D01*
X63586050Y-43871365D01*
X63603253Y-43858866D01*
X63607668Y-43853963D01*
X63612580Y-43849540D01*
X63614221Y-43851362D01*
X63665210Y-43819950D01*
X63698399Y-43815500D01*
X63764630Y-43815500D01*
X63832751Y-43835502D01*
X63879244Y-43889158D01*
X63884462Y-43902561D01*
X63935473Y-44059556D01*
X64030960Y-44224944D01*
X64158747Y-44366866D01*
X64257843Y-44438864D01*
X64290691Y-44462729D01*
X64313248Y-44479118D01*
X64319276Y-44481802D01*
X64319278Y-44481803D01*
X64481681Y-44554109D01*
X64487712Y-44556794D01*
X64575872Y-44575533D01*
X64668056Y-44595128D01*
X64668061Y-44595128D01*
X64674513Y-44596500D01*
X64865487Y-44596500D01*
X64871939Y-44595128D01*
X64871944Y-44595128D01*
X64964128Y-44575533D01*
X65052288Y-44556794D01*
X65058319Y-44554109D01*
X65220722Y-44481803D01*
X65220724Y-44481802D01*
X65226752Y-44479118D01*
X65249310Y-44462729D01*
X65282157Y-44438864D01*
X65381253Y-44366866D01*
X65509040Y-44224944D01*
X65604527Y-44059556D01*
X65663542Y-43877928D01*
X65665138Y-43862749D01*
X65682814Y-43694565D01*
X65683504Y-43688000D01*
X65663542Y-43498072D01*
X65604527Y-43316444D01*
X65509040Y-43151056D01*
X65504038Y-43145500D01*
X65385675Y-43014045D01*
X65385674Y-43014044D01*
X65381253Y-43009134D01*
X65226752Y-42896882D01*
X65220724Y-42894198D01*
X65220722Y-42894197D01*
X65058319Y-42821891D01*
X65058318Y-42821891D01*
X65052288Y-42819206D01*
X64958887Y-42799353D01*
X64871944Y-42780872D01*
X64871939Y-42780872D01*
X64865487Y-42779500D01*
X64813749Y-42779500D01*
X64745628Y-42759498D01*
X64727496Y-42745350D01*
X64705735Y-42724915D01*
X64702893Y-42722160D01*
X64683094Y-42702361D01*
X64679969Y-42699937D01*
X64679960Y-42699929D01*
X64679874Y-42699863D01*
X64670849Y-42692155D01*
X64644285Y-42667210D01*
X64638506Y-42661783D01*
X64620669Y-42651977D01*
X64604153Y-42641127D01*
X64588067Y-42628650D01*
X64547334Y-42611024D01*
X64536686Y-42605807D01*
X64525058Y-42599415D01*
X64497803Y-42584431D01*
X64490128Y-42582460D01*
X64490122Y-42582458D01*
X64478089Y-42579369D01*
X64459387Y-42572966D01*
X64440708Y-42564883D01*
X64406872Y-42559524D01*
X64396873Y-42557940D01*
X64385260Y-42555535D01*
X64342282Y-42544500D01*
X64321935Y-42544500D01*
X64302224Y-42542949D01*
X64289950Y-42541005D01*
X64282121Y-42539765D01*
X64274229Y-42540511D01*
X64237944Y-42543941D01*
X64226086Y-42544500D01*
X63698399Y-42544500D01*
X63630278Y-42524498D01*
X63613092Y-42509891D01*
X63612580Y-42510460D01*
X63607668Y-42506037D01*
X63603253Y-42501134D01*
X63464605Y-42400400D01*
X63454094Y-42392763D01*
X63454093Y-42392762D01*
X63448752Y-42388882D01*
X63442724Y-42386198D01*
X63442722Y-42386197D01*
X63280319Y-42313891D01*
X63280318Y-42313891D01*
X63274288Y-42311206D01*
X63170429Y-42289130D01*
X63093944Y-42272872D01*
X63093939Y-42272872D01*
X63087487Y-42271500D01*
X62896513Y-42271500D01*
X62890061Y-42272872D01*
X62890056Y-42272872D01*
X62813571Y-42289130D01*
X62709712Y-42311206D01*
X62703682Y-42313891D01*
X62703681Y-42313891D01*
X62541278Y-42386197D01*
X62541276Y-42386198D01*
X62535248Y-42388882D01*
X62529907Y-42392762D01*
X62529906Y-42392763D01*
X62519395Y-42400400D01*
X62380747Y-42501134D01*
X62376326Y-42506044D01*
X62376325Y-42506045D01*
X62302307Y-42588251D01*
X62252960Y-42643056D01*
X62157473Y-42808444D01*
X62098458Y-42990072D01*
X62097768Y-42996633D01*
X62097768Y-42996635D01*
X62082122Y-43145500D01*
X62078496Y-43180000D01*
X49489500Y-43180000D01*
X49489500Y-42884384D01*
X49509502Y-42816263D01*
X49563158Y-42769770D01*
X49633432Y-42759666D01*
X49698012Y-42789160D01*
X49717928Y-42812544D01*
X49718125Y-42812388D01*
X49722554Y-42817976D01*
X49722645Y-42818083D01*
X49726522Y-42824348D01*
X49851697Y-42949305D01*
X49857927Y-42953145D01*
X49857928Y-42953146D01*
X49995090Y-43037694D01*
X50002262Y-43042115D01*
X50082005Y-43068564D01*
X50163611Y-43095632D01*
X50163613Y-43095632D01*
X50170139Y-43097797D01*
X50176975Y-43098497D01*
X50176978Y-43098498D01*
X50220031Y-43102909D01*
X50274600Y-43108500D01*
X51625400Y-43108500D01*
X51628646Y-43108163D01*
X51628650Y-43108163D01*
X51724308Y-43098238D01*
X51724312Y-43098237D01*
X51731166Y-43097526D01*
X51737702Y-43095345D01*
X51737704Y-43095345D01*
X51869806Y-43051272D01*
X51898946Y-43041550D01*
X52049348Y-42948478D01*
X52174305Y-42823303D01*
X52206116Y-42771697D01*
X52263275Y-42678968D01*
X52263276Y-42678966D01*
X52267115Y-42672738D01*
X52308996Y-42546471D01*
X52320632Y-42511389D01*
X52320632Y-42511387D01*
X52322797Y-42504861D01*
X52323577Y-42497255D01*
X52329376Y-42440650D01*
X52333500Y-42400400D01*
X52333500Y-41599600D01*
X52327210Y-41538978D01*
X52323238Y-41500692D01*
X52323237Y-41500688D01*
X52322526Y-41493834D01*
X52297374Y-41418443D01*
X52292443Y-41403663D01*
X57221500Y-41403663D01*
X57236235Y-41548727D01*
X57238144Y-41554818D01*
X57292556Y-41728451D01*
X57292558Y-41728456D01*
X57294465Y-41734541D01*
X57341372Y-41819162D01*
X57365036Y-41861852D01*
X57388870Y-41904850D01*
X57393019Y-41909691D01*
X57393022Y-41909695D01*
X57511440Y-42047855D01*
X57515591Y-42052698D01*
X57669453Y-42172046D01*
X57675176Y-42174862D01*
X57675179Y-42174864D01*
X57838444Y-42255200D01*
X57844171Y-42258018D01*
X57850349Y-42259627D01*
X57850351Y-42259628D01*
X58026425Y-42305492D01*
X58026428Y-42305492D01*
X58032607Y-42307102D01*
X58116597Y-42311504D01*
X58220683Y-42316959D01*
X58220687Y-42316959D01*
X58227064Y-42317293D01*
X58382413Y-42293799D01*
X58413285Y-42289130D01*
X58413286Y-42289130D01*
X58419599Y-42288175D01*
X58425585Y-42285972D01*
X58425591Y-42285971D01*
X58596360Y-42223140D01*
X58596365Y-42223138D01*
X58602346Y-42220937D01*
X58767840Y-42118326D01*
X58842362Y-42047855D01*
X58904685Y-41988919D01*
X58909322Y-41984534D01*
X58930564Y-41954198D01*
X58979970Y-41883638D01*
X59021011Y-41825025D01*
X59062802Y-41728451D01*
X59095810Y-41652175D01*
X59095811Y-41652171D01*
X59098345Y-41646316D01*
X59101043Y-41633402D01*
X59137176Y-41460443D01*
X59137177Y-41460438D01*
X59138165Y-41455707D01*
X59138500Y-41449315D01*
X59138500Y-41193770D01*
X59158502Y-41125649D01*
X59212158Y-41079156D01*
X59282432Y-41069052D01*
X59307592Y-41075368D01*
X59418685Y-41115803D01*
X59558769Y-41133500D01*
X59655610Y-41133500D01*
X59790255Y-41118397D01*
X59804622Y-41113394D01*
X59954894Y-41061064D01*
X59954897Y-41061062D01*
X59961552Y-41058745D01*
X59974435Y-41050695D01*
X60109402Y-40966359D01*
X60115376Y-40962626D01*
X60122545Y-40955507D01*
X60239085Y-40839778D01*
X60239088Y-40839774D01*
X60244082Y-40834815D01*
X60341273Y-40681666D01*
X60363339Y-40619697D01*
X60399757Y-40517425D01*
X60399758Y-40517420D01*
X60402119Y-40510790D01*
X60406438Y-40474575D01*
X60422762Y-40337673D01*
X60423596Y-40330680D01*
X60422402Y-40319320D01*
X64576404Y-40319320D01*
X64577140Y-40326323D01*
X64577140Y-40326324D01*
X64592464Y-40472118D01*
X64595364Y-40499712D01*
X64653818Y-40671421D01*
X64673865Y-40704007D01*
X64740659Y-40812578D01*
X64748862Y-40825912D01*
X64753793Y-40830947D01*
X64753795Y-40830950D01*
X64863250Y-40942721D01*
X64875771Y-40955507D01*
X65028238Y-41053765D01*
X65034858Y-41056174D01*
X65034861Y-41056176D01*
X65174908Y-41107149D01*
X65198685Y-41115803D01*
X65338769Y-41133500D01*
X65435610Y-41133500D01*
X65570255Y-41118397D01*
X65694065Y-41075282D01*
X65764972Y-41071768D01*
X65826524Y-41107149D01*
X65859177Y-41170191D01*
X65861500Y-41194273D01*
X65861500Y-41403663D01*
X65876235Y-41548727D01*
X65878144Y-41554818D01*
X65932556Y-41728451D01*
X65932558Y-41728456D01*
X65934465Y-41734541D01*
X65981372Y-41819162D01*
X66005036Y-41861852D01*
X66028870Y-41904850D01*
X66033019Y-41909691D01*
X66033022Y-41909695D01*
X66151440Y-42047855D01*
X66155591Y-42052698D01*
X66309453Y-42172046D01*
X66315176Y-42174862D01*
X66315179Y-42174864D01*
X66478444Y-42255200D01*
X66484171Y-42258018D01*
X66490349Y-42259627D01*
X66490351Y-42259628D01*
X66666425Y-42305492D01*
X66666428Y-42305492D01*
X66672607Y-42307102D01*
X66756597Y-42311504D01*
X66860683Y-42316959D01*
X66860687Y-42316959D01*
X66867064Y-42317293D01*
X67022413Y-42293799D01*
X67053285Y-42289130D01*
X67053286Y-42289130D01*
X67059599Y-42288175D01*
X67065585Y-42285972D01*
X67065591Y-42285971D01*
X67236360Y-42223140D01*
X67236365Y-42223138D01*
X67242346Y-42220937D01*
X67407840Y-42118326D01*
X67482362Y-42047855D01*
X67544685Y-41988919D01*
X67549322Y-41984534D01*
X67570564Y-41954198D01*
X67619970Y-41883638D01*
X67661011Y-41825025D01*
X67702802Y-41728451D01*
X67735810Y-41652175D01*
X67735811Y-41652171D01*
X67738345Y-41646316D01*
X67741043Y-41633402D01*
X67777176Y-41460443D01*
X67777177Y-41460438D01*
X67778165Y-41455707D01*
X67778500Y-41449315D01*
X67778500Y-40206337D01*
X67763765Y-40061273D01*
X67737851Y-39978579D01*
X67707444Y-39881549D01*
X67707442Y-39881544D01*
X67705535Y-39875459D01*
X67621597Y-39724032D01*
X67614223Y-39710729D01*
X67614221Y-39710726D01*
X67611130Y-39705150D01*
X67606981Y-39700309D01*
X67606978Y-39700305D01*
X67488560Y-39562145D01*
X67484409Y-39557302D01*
X67478500Y-39552718D01*
X67335594Y-39441869D01*
X67330547Y-39437954D01*
X67324824Y-39435138D01*
X67324821Y-39435136D01*
X67161556Y-39354800D01*
X67155829Y-39351982D01*
X67149651Y-39350373D01*
X67149649Y-39350372D01*
X66973575Y-39304508D01*
X66973572Y-39304508D01*
X66967393Y-39302898D01*
X66883403Y-39298496D01*
X66779317Y-39293041D01*
X66779313Y-39293041D01*
X66772936Y-39292707D01*
X66617587Y-39316201D01*
X66586715Y-39320870D01*
X66586714Y-39320870D01*
X66580401Y-39321825D01*
X66574415Y-39324028D01*
X66574409Y-39324029D01*
X66403640Y-39386860D01*
X66403635Y-39386862D01*
X66397654Y-39389063D01*
X66335588Y-39427546D01*
X66253682Y-39478330D01*
X66232160Y-39491674D01*
X66227527Y-39496055D01*
X66227526Y-39496056D01*
X66196647Y-39525257D01*
X66090678Y-39625466D01*
X66087019Y-39630692D01*
X66068946Y-39656502D01*
X66013488Y-39700831D01*
X65942869Y-39708139D01*
X65897481Y-39690144D01*
X65751762Y-39596235D01*
X65745142Y-39593826D01*
X65745139Y-39593824D01*
X65587934Y-39536606D01*
X65587933Y-39536606D01*
X65581315Y-39534197D01*
X65441231Y-39516500D01*
X65344390Y-39516500D01*
X65209745Y-39531603D01*
X65203092Y-39533920D01*
X65203091Y-39533920D01*
X65045106Y-39588936D01*
X65045103Y-39588938D01*
X65038448Y-39591255D01*
X65032469Y-39594991D01*
X64968446Y-39634997D01*
X64884624Y-39687374D01*
X64879628Y-39692335D01*
X64879627Y-39692336D01*
X64760915Y-39810222D01*
X64760912Y-39810226D01*
X64755918Y-39815185D01*
X64752144Y-39821131D01*
X64752143Y-39821133D01*
X64738202Y-39843101D01*
X64658727Y-39968334D01*
X64656362Y-39974976D01*
X64600243Y-40132575D01*
X64600242Y-40132580D01*
X64597881Y-40139210D01*
X64597048Y-40146198D01*
X64597047Y-40146201D01*
X64589495Y-40209533D01*
X64576404Y-40319320D01*
X60422402Y-40319320D01*
X60421667Y-40312327D01*
X60405372Y-40157288D01*
X60405371Y-40157286D01*
X60404636Y-40150288D01*
X60346182Y-39978579D01*
X60289283Y-39886092D01*
X60254834Y-39830095D01*
X60254832Y-39830092D01*
X60251138Y-39824088D01*
X60246207Y-39819053D01*
X60246205Y-39819050D01*
X60129157Y-39699525D01*
X60129156Y-39699524D01*
X60124229Y-39694493D01*
X59971762Y-39596235D01*
X59965142Y-39593826D01*
X59965139Y-39593824D01*
X59807934Y-39536606D01*
X59807933Y-39536606D01*
X59801315Y-39534197D01*
X59661231Y-39516500D01*
X59564390Y-39516500D01*
X59429745Y-39531603D01*
X59423092Y-39533920D01*
X59423091Y-39533920D01*
X59265106Y-39588936D01*
X59265103Y-39588938D01*
X59258448Y-39591255D01*
X59252469Y-39594991D01*
X59185288Y-39636970D01*
X59104624Y-39687374D01*
X59103777Y-39686018D01*
X59045774Y-39709489D01*
X58976011Y-39696312D01*
X58937663Y-39666103D01*
X58848560Y-39562145D01*
X58844409Y-39557302D01*
X58838500Y-39552718D01*
X58695594Y-39441869D01*
X58690547Y-39437954D01*
X58684824Y-39435138D01*
X58684821Y-39435136D01*
X58521556Y-39354800D01*
X58515829Y-39351982D01*
X58509651Y-39350373D01*
X58509649Y-39350372D01*
X58333575Y-39304508D01*
X58333572Y-39304508D01*
X58327393Y-39302898D01*
X58243403Y-39298496D01*
X58139317Y-39293041D01*
X58139313Y-39293041D01*
X58132936Y-39292707D01*
X57977587Y-39316201D01*
X57946715Y-39320870D01*
X57946714Y-39320870D01*
X57940401Y-39321825D01*
X57934415Y-39324028D01*
X57934409Y-39324029D01*
X57763640Y-39386860D01*
X57763635Y-39386862D01*
X57757654Y-39389063D01*
X57695588Y-39427546D01*
X57613682Y-39478330D01*
X57592160Y-39491674D01*
X57587527Y-39496055D01*
X57587526Y-39496056D01*
X57499686Y-39579122D01*
X57450678Y-39625466D01*
X57447019Y-39630692D01*
X57447015Y-39630697D01*
X57398275Y-39700305D01*
X57338989Y-39784975D01*
X57323342Y-39821133D01*
X57274656Y-39933641D01*
X57261655Y-39963684D01*
X57260350Y-39969931D01*
X57260349Y-39969934D01*
X57224064Y-40143624D01*
X57221835Y-40154293D01*
X57221500Y-40160685D01*
X57221500Y-41403663D01*
X52292443Y-41403663D01*
X52268868Y-41333002D01*
X52266550Y-41326054D01*
X52173478Y-41175652D01*
X52048303Y-41050695D01*
X52040721Y-41046021D01*
X51996764Y-41018926D01*
X51949271Y-40966154D01*
X51937847Y-40896082D01*
X51966121Y-40830958D01*
X51985045Y-40812582D01*
X51992920Y-40806396D01*
X51996852Y-40801865D01*
X51996855Y-40801862D01*
X52127621Y-40651167D01*
X52131552Y-40646637D01*
X52134552Y-40641451D01*
X52134555Y-40641447D01*
X52234467Y-40468742D01*
X52237473Y-40463546D01*
X52306861Y-40263729D01*
X52314719Y-40209533D01*
X52336352Y-40060336D01*
X52336352Y-40060333D01*
X52337213Y-40054396D01*
X52327433Y-39843101D01*
X52292057Y-39696312D01*
X52279281Y-39643299D01*
X52279280Y-39643297D01*
X52277875Y-39637466D01*
X52274798Y-39630697D01*
X52192806Y-39450368D01*
X52190326Y-39444913D01*
X52089351Y-39302564D01*
X52071412Y-39277275D01*
X52071411Y-39277274D01*
X52067946Y-39272389D01*
X51915150Y-39126119D01*
X51910119Y-39122870D01*
X51910112Y-39122865D01*
X51882393Y-39104967D01*
X51836016Y-39051211D01*
X51826063Y-38980915D01*
X51855696Y-38916398D01*
X51872909Y-38900030D01*
X51987857Y-38809738D01*
X51996506Y-38801501D01*
X52127212Y-38650877D01*
X52134147Y-38641153D01*
X52234010Y-38468533D01*
X52238984Y-38457669D01*
X52304407Y-38269273D01*
X52304648Y-38268284D01*
X52303180Y-38257992D01*
X52289615Y-38254000D01*
X49614598Y-38254000D01*
X49601067Y-38257973D01*
X49599712Y-38267399D01*
X49621194Y-38356537D01*
X49625083Y-38367832D01*
X49707629Y-38549382D01*
X49713576Y-38559724D01*
X49828968Y-38722397D01*
X49836761Y-38731425D01*
X49980831Y-38869342D01*
X49990201Y-38876742D01*
X49993153Y-38878648D01*
X49994305Y-38879983D01*
X49994905Y-38880457D01*
X49994814Y-38880573D01*
X50039531Y-38932403D01*
X50049485Y-39002699D01*
X50019854Y-39067216D01*
X49960045Y-39105472D01*
X49924806Y-39110500D01*
X49729925Y-39110500D01*
X49710214Y-39108949D01*
X49703327Y-39107858D01*
X49703325Y-39107858D01*
X49696810Y-39106826D01*
X49690223Y-39107171D01*
X49690218Y-39107171D01*
X49630008Y-39110327D01*
X49623414Y-39110500D01*
X49603380Y-39110500D01*
X49600106Y-39110844D01*
X49600107Y-39110844D01*
X49583454Y-39112594D01*
X49576880Y-39113111D01*
X49516681Y-39116266D01*
X49516678Y-39116266D01*
X49510085Y-39116612D01*
X49503706Y-39118321D01*
X49503707Y-39118321D01*
X49496977Y-39120124D01*
X49477544Y-39123725D01*
X49470614Y-39124454D01*
X49470610Y-39124455D01*
X49464044Y-39125145D01*
X49400408Y-39145822D01*
X49394101Y-39147690D01*
X49329475Y-39165006D01*
X49323588Y-39168006D01*
X49323587Y-39168006D01*
X49317385Y-39171166D01*
X49299121Y-39178731D01*
X49292504Y-39180881D01*
X49292499Y-39180883D01*
X49286215Y-39182925D01*
X49234250Y-39212927D01*
X49228276Y-39216376D01*
X49222481Y-39219522D01*
X49168762Y-39246894D01*
X49168759Y-39246896D01*
X49162875Y-39249894D01*
X49157741Y-39254051D01*
X49157740Y-39254052D01*
X49152329Y-39258433D01*
X49136044Y-39269626D01*
X49124285Y-39276415D01*
X49119378Y-39280833D01*
X49119377Y-39280834D01*
X49074576Y-39321173D01*
X49069561Y-39325457D01*
X49053994Y-39338063D01*
X49039847Y-39352210D01*
X49035063Y-39356751D01*
X49001624Y-39386860D01*
X48985331Y-39401530D01*
X48977348Y-39412518D01*
X48964511Y-39427546D01*
X48027546Y-40364511D01*
X48012518Y-40377348D01*
X48001530Y-40385331D01*
X47997117Y-40390233D01*
X47997115Y-40390234D01*
X47956751Y-40435063D01*
X47952210Y-40439847D01*
X47938063Y-40453994D01*
X47935986Y-40456559D01*
X47925463Y-40469554D01*
X47921175Y-40474575D01*
X47880830Y-40519381D01*
X47880827Y-40519385D01*
X47876415Y-40524285D01*
X47873119Y-40529995D01*
X47873116Y-40529998D01*
X47869625Y-40536045D01*
X47858432Y-40552330D01*
X47849893Y-40562875D01*
X47835009Y-40592087D01*
X47819523Y-40622480D01*
X47816376Y-40628276D01*
X47782925Y-40686215D01*
X47780884Y-40692497D01*
X47778731Y-40699123D01*
X47771167Y-40717384D01*
X47765006Y-40729476D01*
X47763296Y-40735859D01*
X47747691Y-40794094D01*
X47745818Y-40800418D01*
X47725145Y-40864044D01*
X47724455Y-40870611D01*
X47724454Y-40870615D01*
X47723728Y-40877529D01*
X47720125Y-40896972D01*
X47716611Y-40910085D01*
X47716265Y-40916682D01*
X47716265Y-40916684D01*
X47713110Y-40976887D01*
X47712593Y-40983461D01*
X47710500Y-41003380D01*
X47710500Y-41023407D01*
X47710327Y-41030001D01*
X47707250Y-41088723D01*
X47706826Y-41096810D01*
X47707858Y-41103325D01*
X47707858Y-41103327D01*
X47708949Y-41110214D01*
X47710500Y-41129925D01*
X47710500Y-54270075D01*
X47708949Y-54289785D01*
X47706826Y-54303190D01*
X47707171Y-54309778D01*
X47707171Y-54309782D01*
X47710327Y-54369999D01*
X47710500Y-54376593D01*
X47710500Y-54396620D01*
X47710844Y-54399891D01*
X47710844Y-54399895D01*
X47712593Y-54416539D01*
X47713110Y-54423113D01*
X47715035Y-54459842D01*
X47716611Y-54489915D01*
X47718320Y-54496292D01*
X47718320Y-54496293D01*
X47720124Y-54503023D01*
X47723728Y-54522470D01*
X47725145Y-54535956D01*
X47742867Y-54590498D01*
X47745818Y-54599582D01*
X47747691Y-54605906D01*
X47765006Y-54670524D01*
X47771167Y-54682616D01*
X47778745Y-54700920D01*
X47779430Y-54703031D01*
X47781430Y-54774000D01*
X47744744Y-54834783D01*
X47681020Y-54866084D01*
X47659162Y-54867920D01*
X47134080Y-54866171D01*
X47066027Y-54845942D01*
X47019713Y-54792132D01*
X47008500Y-54740172D01*
X47008500Y-37731716D01*
X49595352Y-37731716D01*
X49596820Y-37742008D01*
X49610385Y-37746000D01*
X50677885Y-37746000D01*
X50693124Y-37741525D01*
X50694329Y-37740135D01*
X50696000Y-37732452D01*
X50696000Y-37727885D01*
X51204000Y-37727885D01*
X51208475Y-37743124D01*
X51209865Y-37744329D01*
X51217548Y-37746000D01*
X52285402Y-37746000D01*
X52298933Y-37742027D01*
X52300288Y-37732601D01*
X52278806Y-37643463D01*
X52274917Y-37632168D01*
X52192371Y-37450618D01*
X52186424Y-37440276D01*
X52071032Y-37277603D01*
X52063239Y-37268575D01*
X51919169Y-37130658D01*
X51909804Y-37123262D01*
X51848476Y-37083663D01*
X57221500Y-37083663D01*
X57236235Y-37228727D01*
X57251552Y-37277603D01*
X57292556Y-37408451D01*
X57292558Y-37408456D01*
X57294465Y-37414541D01*
X57314463Y-37450618D01*
X57379789Y-37568467D01*
X57388870Y-37584850D01*
X57393019Y-37589691D01*
X57393022Y-37589695D01*
X57429426Y-37632168D01*
X57515591Y-37732698D01*
X57520633Y-37736609D01*
X57520634Y-37736610D01*
X57575293Y-37779008D01*
X57669453Y-37852046D01*
X57675176Y-37854862D01*
X57675179Y-37854864D01*
X57838444Y-37935200D01*
X57844171Y-37938018D01*
X57850349Y-37939627D01*
X57850351Y-37939628D01*
X58026425Y-37985492D01*
X58026428Y-37985492D01*
X58032607Y-37987102D01*
X58116597Y-37991504D01*
X58220683Y-37996959D01*
X58220687Y-37996959D01*
X58227064Y-37997293D01*
X58382413Y-37973799D01*
X58413285Y-37969130D01*
X58413286Y-37969130D01*
X58419599Y-37968175D01*
X58425585Y-37965972D01*
X58425591Y-37965971D01*
X58596360Y-37903140D01*
X58596365Y-37903138D01*
X58602346Y-37900937D01*
X58767840Y-37798326D01*
X58842362Y-37727855D01*
X58904685Y-37668919D01*
X58909322Y-37664534D01*
X58930779Y-37633891D01*
X59017346Y-37510259D01*
X59021011Y-37505025D01*
X59062802Y-37408451D01*
X59095810Y-37332175D01*
X59095811Y-37332171D01*
X59098345Y-37326316D01*
X59117460Y-37234818D01*
X59137176Y-37140443D01*
X59137177Y-37140438D01*
X59138165Y-37135707D01*
X59138500Y-37129315D01*
X59138500Y-37083663D01*
X65861500Y-37083663D01*
X65876235Y-37228727D01*
X65891552Y-37277603D01*
X65932556Y-37408451D01*
X65932558Y-37408456D01*
X65934465Y-37414541D01*
X65954463Y-37450618D01*
X66019789Y-37568467D01*
X66028870Y-37584850D01*
X66033019Y-37589691D01*
X66033022Y-37589695D01*
X66069426Y-37632168D01*
X66155591Y-37732698D01*
X66160633Y-37736609D01*
X66160634Y-37736610D01*
X66215293Y-37779008D01*
X66309453Y-37852046D01*
X66315176Y-37854862D01*
X66315179Y-37854864D01*
X66478444Y-37935200D01*
X66484171Y-37938018D01*
X66490349Y-37939627D01*
X66490351Y-37939628D01*
X66666425Y-37985492D01*
X66666428Y-37985492D01*
X66672607Y-37987102D01*
X66756597Y-37991504D01*
X66860683Y-37996959D01*
X66860687Y-37996959D01*
X66867064Y-37997293D01*
X67022413Y-37973799D01*
X67053285Y-37969130D01*
X67053286Y-37969130D01*
X67059599Y-37968175D01*
X67065585Y-37965972D01*
X67065591Y-37965971D01*
X67236360Y-37903140D01*
X67236365Y-37903138D01*
X67242346Y-37900937D01*
X67407840Y-37798326D01*
X67482362Y-37727855D01*
X67544685Y-37668919D01*
X67549322Y-37664534D01*
X67570779Y-37633891D01*
X67657346Y-37510259D01*
X67661011Y-37505025D01*
X67702802Y-37408451D01*
X67735810Y-37332175D01*
X67735811Y-37332171D01*
X67738345Y-37326316D01*
X67757460Y-37234818D01*
X67777176Y-37140443D01*
X67777177Y-37140438D01*
X67778165Y-37135707D01*
X67778500Y-37129315D01*
X67778500Y-36186337D01*
X67764824Y-36051700D01*
X67764410Y-36047622D01*
X67764410Y-36047621D01*
X67763765Y-36041273D01*
X67741917Y-35971556D01*
X67707444Y-35861549D01*
X67707442Y-35861544D01*
X67705535Y-35855459D01*
X67641729Y-35740351D01*
X67614223Y-35690729D01*
X67614221Y-35690726D01*
X67611130Y-35685150D01*
X67606981Y-35680309D01*
X67606978Y-35680305D01*
X67488560Y-35542145D01*
X67484409Y-35537302D01*
X67330547Y-35417954D01*
X67324824Y-35415138D01*
X67324821Y-35415136D01*
X67161556Y-35334800D01*
X67155829Y-35331982D01*
X67149651Y-35330373D01*
X67149649Y-35330372D01*
X66973575Y-35284508D01*
X66973572Y-35284508D01*
X66967393Y-35282898D01*
X66883403Y-35278496D01*
X66779317Y-35273041D01*
X66779313Y-35273041D01*
X66772936Y-35272707D01*
X66617587Y-35296201D01*
X66586715Y-35300870D01*
X66586714Y-35300870D01*
X66580401Y-35301825D01*
X66574415Y-35304028D01*
X66574409Y-35304029D01*
X66403640Y-35366860D01*
X66403635Y-35366862D01*
X66397654Y-35369063D01*
X66232160Y-35471674D01*
X66227527Y-35476055D01*
X66227526Y-35476056D01*
X66096458Y-35600000D01*
X66090678Y-35605466D01*
X66087016Y-35610696D01*
X66087015Y-35610697D01*
X66023405Y-35701542D01*
X65978989Y-35764975D01*
X65976452Y-35770838D01*
X65910776Y-35922607D01*
X65901655Y-35943684D01*
X65900350Y-35949931D01*
X65900349Y-35949934D01*
X65864892Y-36119661D01*
X65861835Y-36134293D01*
X65861500Y-36140685D01*
X65861500Y-37083663D01*
X59138500Y-37083663D01*
X59138500Y-36186337D01*
X59124824Y-36051700D01*
X59124410Y-36047622D01*
X59124410Y-36047621D01*
X59123765Y-36041273D01*
X59101917Y-35971556D01*
X59067444Y-35861549D01*
X59067442Y-35861544D01*
X59065535Y-35855459D01*
X59001729Y-35740351D01*
X58974223Y-35690729D01*
X58974221Y-35690726D01*
X58971130Y-35685150D01*
X58966981Y-35680309D01*
X58966978Y-35680305D01*
X58848560Y-35542145D01*
X58844409Y-35537302D01*
X58690547Y-35417954D01*
X58684824Y-35415138D01*
X58684821Y-35415136D01*
X58521556Y-35334800D01*
X58515829Y-35331982D01*
X58509651Y-35330373D01*
X58509649Y-35330372D01*
X58333575Y-35284508D01*
X58333572Y-35284508D01*
X58327393Y-35282898D01*
X58243403Y-35278496D01*
X58139317Y-35273041D01*
X58139313Y-35273041D01*
X58132936Y-35272707D01*
X57977587Y-35296201D01*
X57946715Y-35300870D01*
X57946714Y-35300870D01*
X57940401Y-35301825D01*
X57934415Y-35304028D01*
X57934409Y-35304029D01*
X57763640Y-35366860D01*
X57763635Y-35366862D01*
X57757654Y-35369063D01*
X57592160Y-35471674D01*
X57587527Y-35476055D01*
X57587526Y-35476056D01*
X57456458Y-35600000D01*
X57450678Y-35605466D01*
X57447016Y-35610696D01*
X57447015Y-35610697D01*
X57383405Y-35701542D01*
X57338989Y-35764975D01*
X57336452Y-35770838D01*
X57270776Y-35922607D01*
X57261655Y-35943684D01*
X57260350Y-35949931D01*
X57260349Y-35949934D01*
X57224892Y-36119661D01*
X57221835Y-36134293D01*
X57221500Y-36140685D01*
X57221500Y-37083663D01*
X51848476Y-37083663D01*
X51742259Y-37015079D01*
X51731655Y-37009583D01*
X51546688Y-36935039D01*
X51535230Y-36931645D01*
X51338072Y-36893143D01*
X51329209Y-36892066D01*
X51326500Y-36892000D01*
X51222115Y-36892000D01*
X51206876Y-36896475D01*
X51205671Y-36897865D01*
X51204000Y-36905548D01*
X51204000Y-37727885D01*
X50696000Y-37727885D01*
X50696000Y-36910115D01*
X50691525Y-36894876D01*
X50690135Y-36893671D01*
X50682452Y-36892000D01*
X50625168Y-36892000D01*
X50619192Y-36892285D01*
X50470506Y-36906471D01*
X50458772Y-36908730D01*
X50267401Y-36964872D01*
X50256325Y-36969302D01*
X50079022Y-37060619D01*
X50068976Y-37067069D01*
X49912143Y-37190262D01*
X49903494Y-37198499D01*
X49772788Y-37349123D01*
X49765853Y-37358847D01*
X49665990Y-37531467D01*
X49661016Y-37542331D01*
X49595593Y-37730727D01*
X49595352Y-37731716D01*
X47008500Y-37731716D01*
X47008500Y-36553250D01*
X47010246Y-36532345D01*
X47012770Y-36517344D01*
X47012770Y-36517341D01*
X47013576Y-36512552D01*
X47013729Y-36500000D01*
X47013040Y-36495186D01*
X47013039Y-36495176D01*
X47012157Y-36489017D01*
X47011206Y-36462172D01*
X47023038Y-36296723D01*
X47025596Y-36278934D01*
X47066999Y-36088607D01*
X47072063Y-36071359D01*
X47140136Y-35888850D01*
X47147604Y-35872498D01*
X47240952Y-35701542D01*
X47250672Y-35686418D01*
X47367402Y-35530486D01*
X47379175Y-35516900D01*
X47516900Y-35379175D01*
X47530486Y-35367402D01*
X47686418Y-35250672D01*
X47701542Y-35240952D01*
X47872498Y-35147604D01*
X47888850Y-35140136D01*
X48071359Y-35072063D01*
X48088608Y-35066999D01*
X48278936Y-35025596D01*
X48296715Y-35023039D01*
X48458605Y-35011460D01*
X48476565Y-35012207D01*
X48484845Y-35012308D01*
X48493724Y-35013691D01*
X48525286Y-35009564D01*
X48541621Y-35008500D01*
X81694220Y-35008500D01*
X81762341Y-35028502D01*
G37*
%TD.AperFunction*%
%TD*%
%TA.AperFunction,Conductor*%
%TO.N,+3.3V*%
G36*
X128506602Y-35028502D02*
G01*
X128553095Y-35082158D01*
X128563199Y-35152432D01*
X128533705Y-35217012D01*
X128492592Y-35248102D01*
X128487054Y-35249950D01*
X128336652Y-35343022D01*
X128211695Y-35468197D01*
X128207855Y-35474427D01*
X128207854Y-35474428D01*
X128183314Y-35514240D01*
X128118885Y-35618762D01*
X128063203Y-35786639D01*
X128052500Y-35891100D01*
X128052500Y-36666900D01*
X128063474Y-36772666D01*
X128119450Y-36940446D01*
X128212522Y-37090848D01*
X128337697Y-37215805D01*
X128342235Y-37218602D01*
X128382824Y-37275853D01*
X128386054Y-37346776D01*
X128350428Y-37408187D01*
X128341932Y-37415562D01*
X128331793Y-37423598D01*
X128217261Y-37538329D01*
X128208249Y-37549740D01*
X128123184Y-37687743D01*
X128117037Y-37700924D01*
X128065862Y-37855210D01*
X128062995Y-37868586D01*
X128053328Y-37962938D01*
X128053000Y-37969355D01*
X128053000Y-38081885D01*
X128057475Y-38097124D01*
X128058865Y-38098329D01*
X128066548Y-38100000D01*
X130500884Y-38100000D01*
X130516123Y-38095525D01*
X130517328Y-38094135D01*
X130518999Y-38086452D01*
X130518999Y-37969405D01*
X130518662Y-37962886D01*
X130508743Y-37867294D01*
X130505851Y-37853900D01*
X130454412Y-37699716D01*
X130448239Y-37686538D01*
X130362937Y-37548693D01*
X130353901Y-37537292D01*
X130239172Y-37422762D01*
X130230238Y-37415706D01*
X130189177Y-37357788D01*
X130185947Y-37286865D01*
X130221574Y-37225454D01*
X130229407Y-37218654D01*
X130235348Y-37214978D01*
X130360305Y-37089803D01*
X130453115Y-36939238D01*
X130508797Y-36771361D01*
X130519500Y-36666900D01*
X130519500Y-35891100D01*
X130519163Y-35887850D01*
X130509238Y-35792192D01*
X130509237Y-35792188D01*
X130508526Y-35785334D01*
X130452550Y-35617554D01*
X130359478Y-35467152D01*
X130234303Y-35342195D01*
X130083738Y-35249385D01*
X130079402Y-35247947D01*
X130026967Y-35201778D01*
X130007506Y-35133501D01*
X130028048Y-35065541D01*
X130082070Y-35019475D01*
X130133502Y-35008500D01*
X144950633Y-35008500D01*
X144970018Y-35010000D01*
X144984851Y-35012310D01*
X144984855Y-35012310D01*
X144993724Y-35013691D01*
X145006397Y-35012034D01*
X145033707Y-35011449D01*
X145161194Y-35022603D01*
X145182817Y-35026415D01*
X145328466Y-35065442D01*
X145349104Y-35072954D01*
X145485760Y-35136678D01*
X145504780Y-35147660D01*
X145628297Y-35234147D01*
X145645122Y-35248265D01*
X145751735Y-35354878D01*
X145765853Y-35371703D01*
X145852340Y-35495220D01*
X145863322Y-35514240D01*
X145927046Y-35650896D01*
X145934557Y-35671534D01*
X145973583Y-35817178D01*
X145977398Y-35838809D01*
X145987947Y-35959393D01*
X145987393Y-35975871D01*
X145987800Y-35975876D01*
X145987690Y-35984853D01*
X145986309Y-35993724D01*
X145987473Y-36002626D01*
X145987473Y-36002628D01*
X145990436Y-36025283D01*
X145991500Y-36041621D01*
X145991500Y-56122623D01*
X145971498Y-56190744D01*
X145917842Y-56237237D01*
X145847568Y-56247341D01*
X145781188Y-56216258D01*
X145778174Y-56213544D01*
X145773753Y-56208634D01*
X145767235Y-56203898D01*
X145624594Y-56100263D01*
X145624593Y-56100262D01*
X145619252Y-56096382D01*
X145613224Y-56093698D01*
X145613222Y-56093697D01*
X145450819Y-56021391D01*
X145450818Y-56021391D01*
X145444788Y-56018706D01*
X145340948Y-55996634D01*
X145264444Y-55980372D01*
X145264439Y-55980372D01*
X145257987Y-55979000D01*
X145067013Y-55979000D01*
X145060561Y-55980372D01*
X145060556Y-55980372D01*
X144984052Y-55996634D01*
X144880212Y-56018706D01*
X144874182Y-56021391D01*
X144874181Y-56021391D01*
X144711778Y-56093697D01*
X144711776Y-56093698D01*
X144705748Y-56096382D01*
X144700407Y-56100262D01*
X144700406Y-56100263D01*
X144666359Y-56125000D01*
X144551247Y-56208634D01*
X144546826Y-56213544D01*
X144546825Y-56213545D01*
X144455540Y-56314928D01*
X144423460Y-56350556D01*
X144405764Y-56381206D01*
X144335863Y-56502279D01*
X144327973Y-56515944D01*
X144268958Y-56697572D01*
X144268268Y-56704133D01*
X144268268Y-56704135D01*
X144266588Y-56720121D01*
X144248996Y-56887500D01*
X144249686Y-56894065D01*
X144249686Y-56895447D01*
X144239324Y-56945485D01*
X144231031Y-56964650D01*
X144225807Y-56975314D01*
X144204431Y-57014197D01*
X144202460Y-57021872D01*
X144202458Y-57021878D01*
X144199369Y-57033911D01*
X144192966Y-57052613D01*
X144184883Y-57071292D01*
X144183644Y-57079117D01*
X144177940Y-57115127D01*
X144175535Y-57126740D01*
X144164500Y-57169717D01*
X144162682Y-57169250D01*
X144138347Y-57225034D01*
X144085958Y-57262140D01*
X144061705Y-57271232D01*
X144061704Y-57271233D01*
X144053295Y-57274385D01*
X143936739Y-57361739D01*
X143849385Y-57478295D01*
X143798255Y-57614684D01*
X143791500Y-57676866D01*
X143791500Y-59273134D01*
X143798255Y-59335316D01*
X143849385Y-59471705D01*
X143936739Y-59588261D01*
X144053295Y-59675615D01*
X144189684Y-59726745D01*
X144251866Y-59733500D01*
X145348134Y-59733500D01*
X145410316Y-59726745D01*
X145546705Y-59675615D01*
X145663261Y-59588261D01*
X145750615Y-59471705D01*
X145753764Y-59463304D01*
X145754981Y-59461082D01*
X145805240Y-59410936D01*
X145874631Y-59395923D01*
X145941123Y-59420809D01*
X145983605Y-59477693D01*
X145991500Y-59521592D01*
X145991500Y-62329461D01*
X145971498Y-62397582D01*
X145917842Y-62444075D01*
X145847568Y-62454179D01*
X145782988Y-62424685D01*
X145754980Y-62389970D01*
X145744788Y-62371354D01*
X145668285Y-62269276D01*
X145655724Y-62256715D01*
X145553649Y-62180214D01*
X145538054Y-62171676D01*
X145417606Y-62126522D01*
X145402351Y-62122895D01*
X145351486Y-62117369D01*
X145344672Y-62117000D01*
X145072115Y-62117000D01*
X145056876Y-62121475D01*
X145055671Y-62122865D01*
X145054000Y-62130548D01*
X145054000Y-64614884D01*
X145058475Y-64630123D01*
X145059865Y-64631328D01*
X145067548Y-64632999D01*
X145344669Y-64632999D01*
X145351490Y-64632629D01*
X145402352Y-64627105D01*
X145417604Y-64623479D01*
X145538054Y-64578324D01*
X145553649Y-64569786D01*
X145655724Y-64493285D01*
X145668285Y-64480724D01*
X145744788Y-64378646D01*
X145754980Y-64360030D01*
X145805238Y-64309884D01*
X145874629Y-64294870D01*
X145941122Y-64319755D01*
X145983605Y-64376638D01*
X145991500Y-64420539D01*
X145991500Y-102450633D01*
X145990000Y-102470018D01*
X145987690Y-102484851D01*
X145987690Y-102484855D01*
X145986309Y-102493724D01*
X145988304Y-102508976D01*
X145989047Y-102534305D01*
X145976962Y-102703279D01*
X145974404Y-102721064D01*
X145956598Y-102802919D01*
X145933001Y-102911392D01*
X145927937Y-102928641D01*
X145859864Y-103111150D01*
X145852396Y-103127502D01*
X145759048Y-103298458D01*
X145749328Y-103313582D01*
X145632598Y-103469514D01*
X145620825Y-103483100D01*
X145483100Y-103620825D01*
X145469514Y-103632598D01*
X145313582Y-103749328D01*
X145298458Y-103759048D01*
X145127502Y-103852396D01*
X145111150Y-103859864D01*
X144928641Y-103927937D01*
X144911393Y-103933001D01*
X144721064Y-103974404D01*
X144703285Y-103976961D01*
X144541395Y-103988540D01*
X144523435Y-103987793D01*
X144515155Y-103987692D01*
X144506276Y-103986309D01*
X144474714Y-103990436D01*
X144458379Y-103991500D01*
X125926000Y-103991500D01*
X125857879Y-103971498D01*
X125811386Y-103917842D01*
X125800000Y-103865500D01*
X125800000Y-101472394D01*
X129195170Y-101472394D01*
X129201925Y-101534576D01*
X129253055Y-101670965D01*
X129340409Y-101787521D01*
X129456965Y-101874875D01*
X129593354Y-101926005D01*
X129655536Y-101932760D01*
X131349464Y-101932760D01*
X131411646Y-101926005D01*
X131548035Y-101874875D01*
X131664591Y-101787521D01*
X131751945Y-101670965D01*
X131803075Y-101534576D01*
X131809830Y-101472394D01*
X131809830Y-99877526D01*
X131803075Y-99815344D01*
X131751945Y-99678955D01*
X131664591Y-99562399D01*
X131548035Y-99475045D01*
X131411646Y-99423915D01*
X131349464Y-99417160D01*
X129655536Y-99417160D01*
X129593354Y-99423915D01*
X129456965Y-99475045D01*
X129340409Y-99562399D01*
X129253055Y-99678955D01*
X129201925Y-99815344D01*
X129195170Y-99877526D01*
X129195170Y-101472394D01*
X125800000Y-101472394D01*
X125800000Y-98787739D01*
X125820002Y-98719618D01*
X125836905Y-98698644D01*
X130351405Y-94184144D01*
X130413717Y-94150118D01*
X130484532Y-94155183D01*
X130541368Y-94197730D01*
X130566179Y-94264250D01*
X130566500Y-94273239D01*
X130566500Y-97476864D01*
X130565422Y-97493307D01*
X130561250Y-97525000D01*
X130566500Y-97564880D01*
X130566500Y-97564885D01*
X130566973Y-97568476D01*
X130582162Y-97683851D01*
X130643476Y-97831876D01*
X130648503Y-97838427D01*
X130648504Y-97838429D01*
X130716520Y-97927069D01*
X130716526Y-97927075D01*
X130741013Y-97958987D01*
X130747568Y-97964017D01*
X130766379Y-97978452D01*
X130778770Y-97989319D01*
X131285685Y-98496234D01*
X131296552Y-98508625D01*
X131316013Y-98533987D01*
X131322563Y-98539013D01*
X131347921Y-98558471D01*
X131347937Y-98558485D01*
X131397305Y-98596366D01*
X131443124Y-98631524D01*
X131591149Y-98692838D01*
X131599336Y-98693916D01*
X131599337Y-98693916D01*
X131610542Y-98695391D01*
X131635252Y-98698644D01*
X131710115Y-98708500D01*
X131710118Y-98708500D01*
X131710126Y-98708501D01*
X131741811Y-98712672D01*
X131750000Y-98713750D01*
X131781693Y-98709578D01*
X131798136Y-98708500D01*
X132618450Y-98708500D01*
X132686571Y-98728502D01*
X132733064Y-98782158D01*
X132743168Y-98852432D01*
X132713674Y-98917012D01*
X132698086Y-98932143D01*
X132651240Y-98970350D01*
X132518933Y-99130281D01*
X132420210Y-99312865D01*
X132358831Y-99511147D01*
X132337135Y-99717575D01*
X132345033Y-99804358D01*
X132352003Y-99880943D01*
X132355947Y-99924286D01*
X132414551Y-100123406D01*
X132417405Y-100128865D01*
X132507860Y-100301890D01*
X132507863Y-100301894D01*
X132510715Y-100307350D01*
X132640776Y-100469114D01*
X132799780Y-100602534D01*
X132805172Y-100605498D01*
X132805176Y-100605501D01*
X132910706Y-100663516D01*
X132981671Y-100702529D01*
X132987538Y-100704390D01*
X132987540Y-100704391D01*
X133173649Y-100763428D01*
X133179519Y-100765290D01*
X133341063Y-100783410D01*
X133452867Y-100783410D01*
X133455922Y-100783110D01*
X133455931Y-100783110D01*
X133526939Y-100776147D01*
X133607214Y-100768276D01*
X133613115Y-100766494D01*
X133613117Y-100766494D01*
X133764392Y-100720821D01*
X133805920Y-100708283D01*
X133989189Y-100610838D01*
X134150040Y-100479650D01*
X134282347Y-100319719D01*
X134381070Y-100137135D01*
X134442449Y-99938853D01*
X134448227Y-99883882D01*
X134463501Y-99738554D01*
X134463501Y-99738552D01*
X134464145Y-99732425D01*
X134445333Y-99525714D01*
X134430421Y-99475045D01*
X134388468Y-99332503D01*
X134386729Y-99326594D01*
X134371301Y-99297084D01*
X134293420Y-99148110D01*
X134293417Y-99148106D01*
X134290565Y-99142650D01*
X134160504Y-98980886D01*
X134101078Y-98931021D01*
X134061751Y-98871912D01*
X134060625Y-98800925D01*
X134098056Y-98740597D01*
X134162160Y-98710083D01*
X134182069Y-98708500D01*
X137617170Y-98708500D01*
X137685291Y-98728502D01*
X137731784Y-98782158D01*
X137741888Y-98852432D01*
X137712394Y-98917012D01*
X137696806Y-98932143D01*
X137649960Y-98970350D01*
X137517653Y-99130281D01*
X137418930Y-99312865D01*
X137357551Y-99511147D01*
X137335855Y-99717575D01*
X137343753Y-99804358D01*
X137350723Y-99880943D01*
X137354667Y-99924286D01*
X137413271Y-100123406D01*
X137416125Y-100128865D01*
X137506580Y-100301890D01*
X137506583Y-100301894D01*
X137509435Y-100307350D01*
X137639496Y-100469114D01*
X137798500Y-100602534D01*
X137803892Y-100605498D01*
X137803896Y-100605501D01*
X137909426Y-100663516D01*
X137980391Y-100702529D01*
X137986258Y-100704390D01*
X137986260Y-100704391D01*
X138172369Y-100763428D01*
X138178239Y-100765290D01*
X138339783Y-100783410D01*
X138451587Y-100783410D01*
X138454642Y-100783110D01*
X138454651Y-100783110D01*
X138525659Y-100776147D01*
X138605934Y-100768276D01*
X138611835Y-100766494D01*
X138611837Y-100766494D01*
X138763112Y-100720821D01*
X138804640Y-100708283D01*
X138909954Y-100652287D01*
X138979491Y-100637968D01*
X139045732Y-100663516D01*
X139087645Y-100720821D01*
X139094417Y-100750368D01*
X139097890Y-100783410D01*
X139106458Y-100864928D01*
X139165473Y-101046556D01*
X139260960Y-101211944D01*
X139388747Y-101353866D01*
X139543248Y-101466118D01*
X139549276Y-101468802D01*
X139549278Y-101468803D01*
X139679363Y-101526720D01*
X139717712Y-101543794D01*
X139811112Y-101563647D01*
X139898056Y-101582128D01*
X139898061Y-101582128D01*
X139904513Y-101583500D01*
X139927938Y-101583500D01*
X139996059Y-101603502D01*
X140040469Y-101654754D01*
X140040593Y-101654686D01*
X140040907Y-101655260D01*
X140042552Y-101657158D01*
X140044452Y-101661735D01*
X140044905Y-101662563D01*
X140048055Y-101670965D01*
X140053435Y-101678144D01*
X140053437Y-101678147D01*
X140117651Y-101763827D01*
X140135409Y-101787521D01*
X140251965Y-101874875D01*
X140388354Y-101926005D01*
X140450536Y-101932760D01*
X142144464Y-101932760D01*
X142206646Y-101926005D01*
X142343035Y-101874875D01*
X142459591Y-101787521D01*
X142546945Y-101670965D01*
X142598075Y-101534576D01*
X142604830Y-101472394D01*
X142604830Y-99877526D01*
X142598075Y-99815344D01*
X142546945Y-99678955D01*
X142459591Y-99562399D01*
X142343035Y-99475045D01*
X142206646Y-99423915D01*
X142144464Y-99417160D01*
X140450536Y-99417160D01*
X140388354Y-99423915D01*
X140251965Y-99475045D01*
X140135409Y-99562399D01*
X140130028Y-99569579D01*
X140053437Y-99671773D01*
X140053435Y-99671776D01*
X140048055Y-99678955D01*
X140044905Y-99687358D01*
X140040593Y-99695234D01*
X140038756Y-99694228D01*
X140003242Y-99741499D01*
X139936679Y-99766194D01*
X139927908Y-99766500D01*
X139904513Y-99766500D01*
X139898061Y-99767872D01*
X139898056Y-99767872D01*
X139824643Y-99783477D01*
X139717712Y-99806206D01*
X139711682Y-99808891D01*
X139711681Y-99808891D01*
X139639561Y-99841001D01*
X139569194Y-99850435D01*
X139504897Y-99820329D01*
X139467083Y-99760240D01*
X139463312Y-99732384D01*
X139462865Y-99732425D01*
X139444612Y-99531853D01*
X139444611Y-99531850D01*
X139444053Y-99525714D01*
X139429141Y-99475045D01*
X139387188Y-99332503D01*
X139385449Y-99326594D01*
X139370021Y-99297084D01*
X139292140Y-99148110D01*
X139292137Y-99148106D01*
X139289285Y-99142650D01*
X139159224Y-98980886D01*
X139099798Y-98931021D01*
X139060471Y-98871912D01*
X139059345Y-98800925D01*
X139096776Y-98740597D01*
X139160880Y-98710083D01*
X139180789Y-98708500D01*
X139576864Y-98708500D01*
X139593307Y-98709578D01*
X139625000Y-98713750D01*
X139633189Y-98712672D01*
X139664874Y-98708501D01*
X139664884Y-98708500D01*
X139664885Y-98708500D01*
X139664901Y-98708498D01*
X139764457Y-98695391D01*
X139775664Y-98693916D01*
X139775666Y-98693915D01*
X139783851Y-98692838D01*
X139931876Y-98631524D01*
X140027062Y-98558485D01*
X140027069Y-98558480D01*
X140027075Y-98558474D01*
X140052434Y-98539015D01*
X140058987Y-98533987D01*
X140064017Y-98527432D01*
X140078452Y-98508621D01*
X140089319Y-98496230D01*
X140596234Y-97989315D01*
X140608625Y-97978448D01*
X140627437Y-97964013D01*
X140633987Y-97958987D01*
X140658474Y-97927075D01*
X140658478Y-97927071D01*
X140731524Y-97831876D01*
X140792838Y-97683851D01*
X140808027Y-97568476D01*
X140808500Y-97564885D01*
X140808500Y-97564880D01*
X140813750Y-97525000D01*
X140809578Y-97493307D01*
X140808500Y-97476864D01*
X140808500Y-94190087D01*
X140828502Y-94121966D01*
X140882158Y-94075473D01*
X140952432Y-94065369D01*
X140978726Y-94072104D01*
X140982389Y-94073477D01*
X140997649Y-94077105D01*
X141048514Y-94082631D01*
X141055328Y-94083000D01*
X141331885Y-94083000D01*
X141347124Y-94078525D01*
X141348329Y-94077135D01*
X141350000Y-94069452D01*
X141350000Y-94064884D01*
X141750000Y-94064884D01*
X141754475Y-94080123D01*
X141755865Y-94081328D01*
X141763548Y-94082999D01*
X142044669Y-94082999D01*
X142051490Y-94082629D01*
X142102352Y-94077105D01*
X142117604Y-94073479D01*
X142238054Y-94028324D01*
X142253649Y-94019786D01*
X142355724Y-93943285D01*
X142368285Y-93930724D01*
X142444786Y-93828649D01*
X142453324Y-93813054D01*
X142498478Y-93692606D01*
X142502105Y-93677351D01*
X142507631Y-93626486D01*
X142508000Y-93619672D01*
X142508000Y-93593115D01*
X142503525Y-93577876D01*
X142502135Y-93576671D01*
X142494452Y-93575000D01*
X141768115Y-93575000D01*
X141752876Y-93579475D01*
X141751671Y-93580865D01*
X141750000Y-93588548D01*
X141750000Y-94064884D01*
X141350000Y-94064884D01*
X141350000Y-93156885D01*
X141750000Y-93156885D01*
X141754475Y-93172124D01*
X141755865Y-93173329D01*
X141763548Y-93175000D01*
X142489884Y-93175000D01*
X142505123Y-93170525D01*
X142506328Y-93169135D01*
X142507999Y-93161452D01*
X142507999Y-93130331D01*
X142507629Y-93123510D01*
X142502105Y-93072648D01*
X142498479Y-93057397D01*
X142484171Y-93019230D01*
X142478988Y-92948423D01*
X142484171Y-92930770D01*
X142498478Y-92892606D01*
X142502105Y-92877351D01*
X142507631Y-92826486D01*
X142508000Y-92819672D01*
X142508000Y-92793115D01*
X142503525Y-92777876D01*
X142502135Y-92776671D01*
X142494452Y-92775000D01*
X141768115Y-92775000D01*
X141752876Y-92779475D01*
X141751671Y-92780865D01*
X141750000Y-92788548D01*
X141750000Y-93156885D01*
X141350000Y-93156885D01*
X141350000Y-92356885D01*
X141750000Y-92356885D01*
X141754475Y-92372124D01*
X141755865Y-92373329D01*
X141763548Y-92375000D01*
X142489884Y-92375000D01*
X142505123Y-92370525D01*
X142506328Y-92369135D01*
X142507999Y-92361452D01*
X142507999Y-92330331D01*
X142507629Y-92323510D01*
X142502105Y-92272648D01*
X142498479Y-92257397D01*
X142484171Y-92219230D01*
X142478988Y-92148423D01*
X142484171Y-92130770D01*
X142498478Y-92092606D01*
X142502105Y-92077351D01*
X142507631Y-92026486D01*
X142508000Y-92019672D01*
X142508000Y-91993115D01*
X142503525Y-91977876D01*
X142502135Y-91976671D01*
X142494452Y-91975000D01*
X141768115Y-91975000D01*
X141752876Y-91979475D01*
X141751671Y-91980865D01*
X141750000Y-91988548D01*
X141750000Y-92356885D01*
X141350000Y-92356885D01*
X141350000Y-91556885D01*
X141750000Y-91556885D01*
X141754475Y-91572124D01*
X141755865Y-91573329D01*
X141763548Y-91575000D01*
X142489884Y-91575000D01*
X142505123Y-91570525D01*
X142506328Y-91569135D01*
X142507999Y-91561452D01*
X142507999Y-91530331D01*
X142507629Y-91523510D01*
X142502105Y-91472648D01*
X142498479Y-91457397D01*
X142484171Y-91419230D01*
X142478988Y-91348423D01*
X142484171Y-91330770D01*
X142498478Y-91292606D01*
X142502105Y-91277351D01*
X142507631Y-91226486D01*
X142508000Y-91219672D01*
X142508000Y-91193115D01*
X142503525Y-91177876D01*
X142502135Y-91176671D01*
X142494452Y-91175000D01*
X141768115Y-91175000D01*
X141752876Y-91179475D01*
X141751671Y-91180865D01*
X141750000Y-91188548D01*
X141750000Y-91556885D01*
X141350000Y-91556885D01*
X141350000Y-90756885D01*
X141750000Y-90756885D01*
X141754475Y-90772124D01*
X141755865Y-90773329D01*
X141763548Y-90775000D01*
X142489884Y-90775000D01*
X142505123Y-90770525D01*
X142506328Y-90769135D01*
X142507999Y-90761452D01*
X142507999Y-90730331D01*
X142507629Y-90723510D01*
X142502105Y-90672648D01*
X142498479Y-90657396D01*
X142453324Y-90536946D01*
X142444786Y-90521351D01*
X142368285Y-90419276D01*
X142355724Y-90406715D01*
X142253649Y-90330214D01*
X142238054Y-90321676D01*
X142117606Y-90276522D01*
X142102351Y-90272895D01*
X142051486Y-90267369D01*
X142044672Y-90267000D01*
X141768115Y-90267000D01*
X141752876Y-90271475D01*
X141751671Y-90272865D01*
X141750000Y-90280548D01*
X141750000Y-90756885D01*
X141350000Y-90756885D01*
X141350000Y-90285116D01*
X141345525Y-90269877D01*
X141326987Y-90253813D01*
X141288604Y-90194087D01*
X141283500Y-90158589D01*
X141283500Y-89923144D01*
X141284578Y-89906698D01*
X141287673Y-89883188D01*
X141288751Y-89875000D01*
X141267838Y-89716150D01*
X141206524Y-89568124D01*
X141133478Y-89472929D01*
X141133474Y-89472925D01*
X141133471Y-89472921D01*
X141114016Y-89447566D01*
X141114013Y-89447563D01*
X141108987Y-89441013D01*
X141097447Y-89432158D01*
X141083621Y-89421548D01*
X141071230Y-89410681D01*
X140774719Y-89114170D01*
X140740693Y-89051858D01*
X140738159Y-89028284D01*
X140738504Y-89025000D01*
X140718542Y-88835072D01*
X140659527Y-88653444D01*
X140647894Y-88633294D01*
X140567341Y-88493774D01*
X140564040Y-88488056D01*
X140521727Y-88441062D01*
X140440675Y-88351045D01*
X140440674Y-88351044D01*
X140436253Y-88346134D01*
X140281752Y-88233882D01*
X140275724Y-88231198D01*
X140275722Y-88231197D01*
X140113319Y-88158891D01*
X140113318Y-88158891D01*
X140107288Y-88156206D01*
X140013888Y-88136353D01*
X139926944Y-88117872D01*
X139926939Y-88117872D01*
X139920487Y-88116500D01*
X139729513Y-88116500D01*
X139723061Y-88117872D01*
X139723056Y-88117872D01*
X139636112Y-88136353D01*
X139542712Y-88156206D01*
X139536682Y-88158891D01*
X139536681Y-88158891D01*
X139374278Y-88231197D01*
X139374276Y-88231198D01*
X139368248Y-88233882D01*
X139213747Y-88346134D01*
X139209326Y-88351044D01*
X139209325Y-88351045D01*
X139128274Y-88441062D01*
X139085960Y-88488056D01*
X139082659Y-88493774D01*
X139002107Y-88633294D01*
X138990473Y-88653444D01*
X138931458Y-88835072D01*
X138930768Y-88841633D01*
X138930768Y-88841635D01*
X138916365Y-88978671D01*
X138889352Y-89044328D01*
X138831130Y-89084957D01*
X138791055Y-89091500D01*
X138729239Y-89091500D01*
X138661118Y-89071498D01*
X138640144Y-89054595D01*
X138347606Y-88762057D01*
X138313580Y-88699745D01*
X138317108Y-88633294D01*
X138345138Y-88548790D01*
X138348005Y-88535414D01*
X138357672Y-88441062D01*
X138358000Y-88434646D01*
X138358000Y-88322115D01*
X138353525Y-88306876D01*
X138352135Y-88305671D01*
X138344452Y-88304000D01*
X136997000Y-88304000D01*
X136928879Y-88283998D01*
X136882386Y-88230342D01*
X136871000Y-88178000D01*
X136871000Y-87922000D01*
X136891002Y-87853879D01*
X136944658Y-87807386D01*
X136997000Y-87796000D01*
X138339884Y-87796000D01*
X138355123Y-87791525D01*
X138356328Y-87790135D01*
X138357999Y-87782452D01*
X138357999Y-87665405D01*
X138357662Y-87658886D01*
X138347743Y-87563294D01*
X138344851Y-87549900D01*
X138293412Y-87395716D01*
X138287239Y-87382538D01*
X138201937Y-87244693D01*
X138192901Y-87233292D01*
X138078172Y-87118762D01*
X138069238Y-87111706D01*
X138028177Y-87053788D01*
X138024947Y-86982865D01*
X138060574Y-86921454D01*
X138068407Y-86914654D01*
X138074348Y-86910978D01*
X138199305Y-86785803D01*
X138242617Y-86715539D01*
X138288275Y-86641468D01*
X138288276Y-86641466D01*
X138292115Y-86635238D01*
X138347797Y-86467361D01*
X138351231Y-86433851D01*
X138358172Y-86366098D01*
X138358500Y-86362900D01*
X138358500Y-85587100D01*
X138347526Y-85481334D01*
X138291550Y-85313554D01*
X138198478Y-85163152D01*
X138073303Y-85038195D01*
X137922738Y-84945385D01*
X137842995Y-84918936D01*
X137761389Y-84891868D01*
X137761387Y-84891868D01*
X137754861Y-84889703D01*
X137748025Y-84889003D01*
X137748022Y-84889002D01*
X137704969Y-84884591D01*
X137650400Y-84879000D01*
X137260739Y-84879000D01*
X137192618Y-84858998D01*
X137146125Y-84805342D01*
X137136021Y-84735068D01*
X137165515Y-84670488D01*
X137171644Y-84663905D01*
X137796234Y-84039315D01*
X137808625Y-84028448D01*
X137827437Y-84014013D01*
X137833987Y-84008987D01*
X137858474Y-83977075D01*
X137858480Y-83977069D01*
X137926496Y-83888429D01*
X137926497Y-83888427D01*
X137931524Y-83881876D01*
X137992838Y-83733851D01*
X137999420Y-83683851D01*
X138008500Y-83614885D01*
X138008500Y-83614880D01*
X138010099Y-83602733D01*
X138034195Y-83543615D01*
X138045233Y-83528888D01*
X138045237Y-83528881D01*
X138050615Y-83521705D01*
X138101745Y-83385316D01*
X138108500Y-83323134D01*
X138108500Y-83029239D01*
X138128502Y-82961118D01*
X138145405Y-82940144D01*
X139334766Y-81750783D01*
X139397078Y-81716757D01*
X139423861Y-81713878D01*
X139515109Y-81713878D01*
X139521561Y-81712506D01*
X139521566Y-81712506D01*
X139608510Y-81694025D01*
X139701910Y-81674172D01*
X139707941Y-81671487D01*
X139870344Y-81599181D01*
X139870346Y-81599180D01*
X139876374Y-81596496D01*
X140030875Y-81484244D01*
X140158662Y-81342322D01*
X140254149Y-81176934D01*
X140313164Y-80995306D01*
X140316744Y-80961250D01*
X140332436Y-80811943D01*
X140333126Y-80805378D01*
X140332436Y-80798813D01*
X140313854Y-80622013D01*
X140313854Y-80622011D01*
X140313164Y-80615450D01*
X140254149Y-80433822D01*
X140158662Y-80268434D01*
X140072639Y-80172895D01*
X140035297Y-80131423D01*
X140035296Y-80131422D01*
X140030875Y-80126512D01*
X139876374Y-80014260D01*
X139870346Y-80011576D01*
X139870344Y-80011575D01*
X139707941Y-79939269D01*
X139707940Y-79939269D01*
X139701910Y-79936584D01*
X139608510Y-79916731D01*
X139521566Y-79898250D01*
X139521561Y-79898250D01*
X139515109Y-79896878D01*
X139324135Y-79896878D01*
X139317683Y-79898250D01*
X139317678Y-79898250D01*
X139230734Y-79916731D01*
X139137334Y-79936584D01*
X139131304Y-79939269D01*
X139131303Y-79939269D01*
X138968900Y-80011575D01*
X138968898Y-80011576D01*
X138962870Y-80014260D01*
X138808369Y-80126512D01*
X138803948Y-80131422D01*
X138803947Y-80131423D01*
X138766606Y-80172895D01*
X138680582Y-80268434D01*
X138585095Y-80433822D01*
X138526080Y-80615450D01*
X138525390Y-80622011D01*
X138525390Y-80622013D01*
X138506808Y-80798813D01*
X138506118Y-80805378D01*
X138506306Y-80807164D01*
X138486806Y-80873574D01*
X138469903Y-80894548D01*
X138323095Y-81041356D01*
X138260783Y-81075382D01*
X138189968Y-81070317D01*
X138133132Y-81027770D01*
X138108321Y-80961250D01*
X138108000Y-80952261D01*
X138107999Y-80630332D01*
X138107629Y-80623510D01*
X138102105Y-80572648D01*
X138098479Y-80557396D01*
X138053324Y-80436946D01*
X138044786Y-80421351D01*
X137968285Y-80319276D01*
X137955724Y-80306715D01*
X137853649Y-80230214D01*
X137838054Y-80221676D01*
X137717606Y-80176522D01*
X137702351Y-80172895D01*
X137651486Y-80167369D01*
X137644672Y-80167000D01*
X137618115Y-80167000D01*
X137602876Y-80171475D01*
X137601671Y-80172865D01*
X137600000Y-80180548D01*
X137600000Y-81199000D01*
X137579998Y-81267121D01*
X137526342Y-81313614D01*
X137474000Y-81325000D01*
X134926000Y-81325000D01*
X134857879Y-81304998D01*
X134811386Y-81251342D01*
X134800000Y-81199000D01*
X134800000Y-80906885D01*
X135200000Y-80906885D01*
X135204475Y-80922124D01*
X135205865Y-80923329D01*
X135213548Y-80925000D01*
X135581885Y-80925000D01*
X135597124Y-80920525D01*
X135598329Y-80919135D01*
X135600000Y-80911452D01*
X135600000Y-80906885D01*
X136000000Y-80906885D01*
X136004475Y-80922124D01*
X136005865Y-80923329D01*
X136013548Y-80925000D01*
X136381885Y-80925000D01*
X136397124Y-80920525D01*
X136398329Y-80919135D01*
X136400000Y-80911452D01*
X136400000Y-80906885D01*
X136800000Y-80906885D01*
X136804475Y-80922124D01*
X136805865Y-80923329D01*
X136813548Y-80925000D01*
X137181885Y-80925000D01*
X137197124Y-80920525D01*
X137198329Y-80919135D01*
X137200000Y-80911452D01*
X137200000Y-80185116D01*
X137195525Y-80169877D01*
X137194135Y-80168672D01*
X137186452Y-80167001D01*
X137155331Y-80167001D01*
X137148510Y-80167371D01*
X137097648Y-80172895D01*
X137082397Y-80176521D01*
X137044230Y-80190829D01*
X136973423Y-80196012D01*
X136955770Y-80190829D01*
X136917606Y-80176522D01*
X136902351Y-80172895D01*
X136851486Y-80167369D01*
X136844672Y-80167000D01*
X136818115Y-80167000D01*
X136802876Y-80171475D01*
X136801671Y-80172865D01*
X136800000Y-80180548D01*
X136800000Y-80906885D01*
X136400000Y-80906885D01*
X136400000Y-80185116D01*
X136395525Y-80169877D01*
X136394135Y-80168672D01*
X136386452Y-80167001D01*
X136355331Y-80167001D01*
X136348510Y-80167371D01*
X136297648Y-80172895D01*
X136282397Y-80176521D01*
X136244230Y-80190829D01*
X136173423Y-80196012D01*
X136155770Y-80190829D01*
X136117606Y-80176522D01*
X136102351Y-80172895D01*
X136051486Y-80167369D01*
X136044672Y-80167000D01*
X136018115Y-80167000D01*
X136002876Y-80171475D01*
X136001671Y-80172865D01*
X136000000Y-80180548D01*
X136000000Y-80906885D01*
X135600000Y-80906885D01*
X135600000Y-80185116D01*
X135595525Y-80169877D01*
X135594135Y-80168672D01*
X135586452Y-80167001D01*
X135555331Y-80167001D01*
X135548510Y-80167371D01*
X135497648Y-80172895D01*
X135482397Y-80176521D01*
X135444230Y-80190829D01*
X135373423Y-80196012D01*
X135355770Y-80190829D01*
X135317606Y-80176522D01*
X135302351Y-80172895D01*
X135251486Y-80167369D01*
X135244672Y-80167000D01*
X135218115Y-80167000D01*
X135202876Y-80171475D01*
X135201671Y-80172865D01*
X135200000Y-80180548D01*
X135200000Y-80906885D01*
X134800000Y-80906885D01*
X134800000Y-80185116D01*
X134795525Y-80169877D01*
X134780211Y-80156607D01*
X134745406Y-80137603D01*
X134711380Y-80075291D01*
X134708500Y-80048506D01*
X134708500Y-79308005D01*
X134728502Y-79239884D01*
X134782158Y-79193391D01*
X134818053Y-79183083D01*
X134853981Y-79178353D01*
X134914457Y-79170391D01*
X134914458Y-79170391D01*
X134925663Y-79168916D01*
X134925664Y-79168916D01*
X134933851Y-79167838D01*
X135081876Y-79106524D01*
X135177072Y-79033477D01*
X135177075Y-79033474D01*
X135208987Y-79008987D01*
X135228458Y-78983613D01*
X135239316Y-78971233D01*
X135412127Y-78798422D01*
X135474439Y-78764396D01*
X135545451Y-78769535D01*
X135557289Y-78773973D01*
X135557291Y-78773973D01*
X135564684Y-78776745D01*
X135572532Y-78777598D01*
X135572534Y-78777598D01*
X135623469Y-78783131D01*
X135626866Y-78783500D01*
X136123134Y-78783500D01*
X136126531Y-78783131D01*
X136177466Y-78777598D01*
X136177468Y-78777598D01*
X136185316Y-78776745D01*
X136192709Y-78773973D01*
X136192711Y-78773973D01*
X136230771Y-78759705D01*
X136301578Y-78754522D01*
X136319229Y-78759705D01*
X136357289Y-78773973D01*
X136357291Y-78773973D01*
X136364684Y-78776745D01*
X136372532Y-78777598D01*
X136372534Y-78777598D01*
X136423469Y-78783131D01*
X136426866Y-78783500D01*
X136923134Y-78783500D01*
X136985316Y-78776745D01*
X137121705Y-78725615D01*
X137238261Y-78638261D01*
X137325615Y-78521705D01*
X137376745Y-78385316D01*
X137383500Y-78323134D01*
X137383500Y-77326866D01*
X137376745Y-77264684D01*
X137325615Y-77128295D01*
X137267047Y-77050148D01*
X137242199Y-76983642D01*
X137257252Y-76914259D01*
X137267047Y-76899018D01*
X137319786Y-76828648D01*
X137328324Y-76813054D01*
X137373478Y-76692606D01*
X137377105Y-76677351D01*
X137382631Y-76626486D01*
X137383000Y-76619672D01*
X137383000Y-76343115D01*
X137378525Y-76327876D01*
X137377135Y-76326671D01*
X137369452Y-76325000D01*
X133585116Y-76325000D01*
X133569877Y-76329475D01*
X133568672Y-76330865D01*
X133567001Y-76338548D01*
X133567001Y-76619669D01*
X133567371Y-76626490D01*
X133572895Y-76677352D01*
X133576521Y-76692604D01*
X133621676Y-76813054D01*
X133630214Y-76828648D01*
X133682953Y-76899018D01*
X133707801Y-76965524D01*
X133692748Y-77034907D01*
X133682953Y-77050148D01*
X133624385Y-77128295D01*
X133573255Y-77264684D01*
X133566500Y-77326866D01*
X133566500Y-77620761D01*
X133546498Y-77688882D01*
X133529595Y-77709856D01*
X132978766Y-78260685D01*
X132966375Y-78271552D01*
X132941013Y-78291013D01*
X132916526Y-78322925D01*
X132916523Y-78322928D01*
X132916517Y-78322936D01*
X132868651Y-78385316D01*
X132843476Y-78418124D01*
X132782162Y-78566149D01*
X132782162Y-78566150D01*
X132766500Y-78685115D01*
X132766500Y-78685120D01*
X132761250Y-78725000D01*
X132765137Y-78754522D01*
X132765422Y-78756690D01*
X132766500Y-78773136D01*
X132766500Y-82495762D01*
X132746498Y-82563883D01*
X132729595Y-82584857D01*
X132647425Y-82667027D01*
X132585113Y-82701053D01*
X132514298Y-82695988D01*
X132457462Y-82653441D01*
X132432651Y-82586921D01*
X132432330Y-82577932D01*
X132432330Y-80677516D01*
X132425575Y-80615334D01*
X132374445Y-80478945D01*
X132287091Y-80362389D01*
X132170535Y-80275035D01*
X132034146Y-80223905D01*
X131971964Y-80217150D01*
X130278036Y-80217150D01*
X130215854Y-80223905D01*
X130079465Y-80275035D01*
X129962909Y-80362389D01*
X129875555Y-80478945D01*
X129824425Y-80615334D01*
X129817670Y-80677516D01*
X129817670Y-83072484D01*
X129824425Y-83134666D01*
X129875555Y-83271055D01*
X129962909Y-83387611D01*
X130079465Y-83474965D01*
X130215854Y-83526095D01*
X130278036Y-83532850D01*
X130390500Y-83532850D01*
X130458621Y-83552852D01*
X130505114Y-83606508D01*
X130516500Y-83658850D01*
X130516500Y-86226864D01*
X130515422Y-86243307D01*
X130511250Y-86275000D01*
X130516500Y-86314880D01*
X130516500Y-86314885D01*
X130528554Y-86406447D01*
X130532162Y-86433851D01*
X130593476Y-86581876D01*
X130598503Y-86588427D01*
X130598504Y-86588429D01*
X130666520Y-86677069D01*
X130666526Y-86677075D01*
X130691013Y-86708987D01*
X130697563Y-86714013D01*
X130697566Y-86714016D01*
X130699551Y-86715539D01*
X130700801Y-86717251D01*
X130703405Y-86719855D01*
X130702999Y-86720261D01*
X130741417Y-86772878D01*
X130745637Y-86843749D01*
X130710872Y-86905651D01*
X130648158Y-86938931D01*
X130622845Y-86941500D01*
X130576866Y-86941500D01*
X130514684Y-86948255D01*
X130487404Y-86958482D01*
X130443174Y-86966500D01*
X125926000Y-86966500D01*
X125857879Y-86946498D01*
X125811386Y-86892842D01*
X125800000Y-86840500D01*
X125800000Y-76275000D01*
X128836496Y-76275000D01*
X128856458Y-76464928D01*
X128915473Y-76646556D01*
X128918776Y-76652278D01*
X128918777Y-76652279D01*
X128933253Y-76677352D01*
X129010960Y-76811944D01*
X129015378Y-76816851D01*
X129015379Y-76816852D01*
X129089362Y-76899018D01*
X129138747Y-76953866D01*
X129293248Y-77066118D01*
X129299276Y-77068802D01*
X129299278Y-77068803D01*
X129461681Y-77141109D01*
X129467712Y-77143794D01*
X129545009Y-77160224D01*
X129648056Y-77182128D01*
X129648061Y-77182128D01*
X129654513Y-77183500D01*
X129845487Y-77183500D01*
X129851942Y-77182128D01*
X129851951Y-77182127D01*
X129980402Y-77154823D01*
X130051193Y-77160224D01*
X130067111Y-77167550D01*
X130072278Y-77170379D01*
X130079465Y-77175765D01*
X130215854Y-77226895D01*
X130278036Y-77233650D01*
X131971964Y-77233650D01*
X132034146Y-77226895D01*
X132170535Y-77175765D01*
X132287091Y-77088411D01*
X132374445Y-76971855D01*
X132425575Y-76835466D01*
X132432330Y-76773284D01*
X132432330Y-75906885D01*
X133567000Y-75906885D01*
X133571475Y-75922124D01*
X133572865Y-75923329D01*
X133580548Y-75925000D01*
X134056885Y-75925000D01*
X134072124Y-75920525D01*
X134073329Y-75919135D01*
X134075000Y-75911452D01*
X134075000Y-75906885D01*
X134475000Y-75906885D01*
X134479475Y-75922124D01*
X134480865Y-75923329D01*
X134488548Y-75925000D01*
X134856885Y-75925000D01*
X134872124Y-75920525D01*
X134873329Y-75919135D01*
X134875000Y-75911452D01*
X134875000Y-75906885D01*
X135275000Y-75906885D01*
X135279475Y-75922124D01*
X135280865Y-75923329D01*
X135288548Y-75925000D01*
X135656885Y-75925000D01*
X135672124Y-75920525D01*
X135673329Y-75919135D01*
X135675000Y-75911452D01*
X135675000Y-75906885D01*
X136075000Y-75906885D01*
X136079475Y-75922124D01*
X136080865Y-75923329D01*
X136088548Y-75925000D01*
X136456885Y-75925000D01*
X136472124Y-75920525D01*
X136473329Y-75919135D01*
X136475000Y-75911452D01*
X136475000Y-75906885D01*
X136875000Y-75906885D01*
X136879475Y-75922124D01*
X136880865Y-75923329D01*
X136888548Y-75925000D01*
X137364884Y-75925000D01*
X137380123Y-75920525D01*
X137381328Y-75919135D01*
X137382999Y-75911452D01*
X137382999Y-75630331D01*
X137382629Y-75623510D01*
X137377105Y-75572648D01*
X137373479Y-75557396D01*
X137328324Y-75436946D01*
X137319786Y-75421351D01*
X137243285Y-75319276D01*
X137230724Y-75306715D01*
X137128649Y-75230214D01*
X137113054Y-75221676D01*
X136992606Y-75176522D01*
X136977351Y-75172895D01*
X136926486Y-75167369D01*
X136919672Y-75167000D01*
X136893115Y-75167000D01*
X136877876Y-75171475D01*
X136876671Y-75172865D01*
X136875000Y-75180548D01*
X136875000Y-75906885D01*
X136475000Y-75906885D01*
X136475000Y-75185116D01*
X136470525Y-75169877D01*
X136469135Y-75168672D01*
X136461452Y-75167001D01*
X136430331Y-75167001D01*
X136423510Y-75167371D01*
X136372648Y-75172895D01*
X136357397Y-75176521D01*
X136319230Y-75190829D01*
X136248423Y-75196012D01*
X136230770Y-75190829D01*
X136192606Y-75176522D01*
X136177351Y-75172895D01*
X136126486Y-75167369D01*
X136119672Y-75167000D01*
X136093115Y-75167000D01*
X136077876Y-75171475D01*
X136076671Y-75172865D01*
X136075000Y-75180548D01*
X136075000Y-75906885D01*
X135675000Y-75906885D01*
X135675000Y-75185116D01*
X135670525Y-75169877D01*
X135669135Y-75168672D01*
X135661452Y-75167001D01*
X135630331Y-75167001D01*
X135623510Y-75167371D01*
X135572648Y-75172895D01*
X135557397Y-75176521D01*
X135519230Y-75190829D01*
X135448423Y-75196012D01*
X135430770Y-75190829D01*
X135392606Y-75176522D01*
X135377351Y-75172895D01*
X135326486Y-75167369D01*
X135319672Y-75167000D01*
X135293115Y-75167000D01*
X135277876Y-75171475D01*
X135276671Y-75172865D01*
X135275000Y-75180548D01*
X135275000Y-75906885D01*
X134875000Y-75906885D01*
X134875000Y-75185116D01*
X134870525Y-75169877D01*
X134869135Y-75168672D01*
X134861452Y-75167001D01*
X134830331Y-75167001D01*
X134823510Y-75167371D01*
X134772648Y-75172895D01*
X134757397Y-75176521D01*
X134719230Y-75190829D01*
X134648423Y-75196012D01*
X134630770Y-75190829D01*
X134592606Y-75176522D01*
X134577351Y-75172895D01*
X134526486Y-75167369D01*
X134519672Y-75167000D01*
X134493115Y-75167000D01*
X134477876Y-75171475D01*
X134476671Y-75172865D01*
X134475000Y-75180548D01*
X134475000Y-75906885D01*
X134075000Y-75906885D01*
X134075000Y-75185116D01*
X134070525Y-75169877D01*
X134069135Y-75168672D01*
X134061452Y-75167001D01*
X134030331Y-75167001D01*
X134023510Y-75167371D01*
X133972648Y-75172895D01*
X133957396Y-75176521D01*
X133836946Y-75221676D01*
X133821351Y-75230214D01*
X133719276Y-75306715D01*
X133706715Y-75319276D01*
X133630214Y-75421351D01*
X133621676Y-75436946D01*
X133576522Y-75557394D01*
X133572895Y-75572649D01*
X133567369Y-75623514D01*
X133567000Y-75630328D01*
X133567000Y-75906885D01*
X132432330Y-75906885D01*
X132432330Y-74378316D01*
X132425575Y-74316134D01*
X132374445Y-74179745D01*
X132287091Y-74063189D01*
X132170535Y-73975835D01*
X132034146Y-73924705D01*
X131971964Y-73917950D01*
X130278036Y-73917950D01*
X130215854Y-73924705D01*
X130079465Y-73975835D01*
X129962909Y-74063189D01*
X129875555Y-74179745D01*
X129824425Y-74316134D01*
X129817670Y-74378316D01*
X129817670Y-75240500D01*
X129797668Y-75308621D01*
X129744012Y-75355114D01*
X129691670Y-75366500D01*
X129654513Y-75366500D01*
X129648061Y-75367872D01*
X129648056Y-75367872D01*
X129561112Y-75386353D01*
X129467712Y-75406206D01*
X129461682Y-75408891D01*
X129461681Y-75408891D01*
X129299278Y-75481197D01*
X129299276Y-75481198D01*
X129293248Y-75483882D01*
X129138747Y-75596134D01*
X129134326Y-75601044D01*
X129134325Y-75601045D01*
X129107959Y-75630328D01*
X129010960Y-75738056D01*
X128915473Y-75903444D01*
X128856458Y-76085072D01*
X128836496Y-76275000D01*
X125800000Y-76275000D01*
X125800000Y-75250922D01*
X125820002Y-75182801D01*
X125836905Y-75161827D01*
X126940925Y-74057808D01*
X129851328Y-71147405D01*
X129913640Y-71113379D01*
X129940423Y-71110500D01*
X134380980Y-71110500D01*
X134392214Y-71111030D01*
X134399719Y-71112708D01*
X134468012Y-71110562D01*
X134471969Y-71110500D01*
X134499983Y-71110500D01*
X134503908Y-71110004D01*
X134503909Y-71110004D01*
X134504004Y-71109992D01*
X134515849Y-71109059D01*
X134545670Y-71108122D01*
X134552282Y-71107914D01*
X134552283Y-71107914D01*
X134560205Y-71107665D01*
X134579749Y-71101987D01*
X134599112Y-71097977D01*
X134611440Y-71096420D01*
X134611442Y-71096420D01*
X134619299Y-71095427D01*
X134626663Y-71092511D01*
X134626668Y-71092510D01*
X134660556Y-71079093D01*
X134671785Y-71075248D01*
X134688465Y-71070402D01*
X134714393Y-71062869D01*
X134721220Y-71058831D01*
X134721223Y-71058830D01*
X134731906Y-71052512D01*
X134749664Y-71043812D01*
X134761215Y-71039239D01*
X134761221Y-71039235D01*
X134768588Y-71036319D01*
X134804491Y-71010234D01*
X134814410Y-71003719D01*
X134845768Y-70985174D01*
X134845772Y-70985171D01*
X134852598Y-70981134D01*
X134866982Y-70966750D01*
X134882016Y-70953909D01*
X134892073Y-70946602D01*
X134898487Y-70941942D01*
X134926778Y-70907744D01*
X134934767Y-70898965D01*
X138546900Y-67286833D01*
X138609212Y-67252807D01*
X138661112Y-67252457D01*
X138838597Y-67288567D01*
X138843772Y-67288757D01*
X138843774Y-67288757D01*
X139056673Y-67296564D01*
X139056677Y-67296564D01*
X139061837Y-67296753D01*
X139066957Y-67296097D01*
X139066959Y-67296097D01*
X139278288Y-67269025D01*
X139278289Y-67269025D01*
X139283416Y-67268368D01*
X139288366Y-67266883D01*
X139492429Y-67205661D01*
X139492434Y-67205659D01*
X139497384Y-67204174D01*
X139697994Y-67105896D01*
X139879860Y-66976173D01*
X140038096Y-66818489D01*
X140168453Y-66637077D01*
X140267430Y-66436811D01*
X140332370Y-66223069D01*
X140361529Y-66001590D01*
X140363156Y-65935000D01*
X140344852Y-65712361D01*
X140290431Y-65495702D01*
X140201354Y-65290840D01*
X140080014Y-65103277D01*
X139929670Y-64938051D01*
X139925619Y-64934852D01*
X139925615Y-64934848D01*
X139758414Y-64802800D01*
X139758410Y-64802798D01*
X139754359Y-64799598D01*
X139718028Y-64779542D01*
X139702136Y-64770769D01*
X139558789Y-64691638D01*
X139553920Y-64689914D01*
X139553916Y-64689912D01*
X139353087Y-64618795D01*
X139353083Y-64618794D01*
X139348212Y-64617069D01*
X139343119Y-64616162D01*
X139343116Y-64616161D01*
X139133373Y-64578800D01*
X139133367Y-64578799D01*
X139128284Y-64577894D01*
X139054452Y-64576992D01*
X138910081Y-64575228D01*
X138910079Y-64575228D01*
X138904911Y-64575165D01*
X138684091Y-64608955D01*
X138471756Y-64678357D01*
X138273607Y-64781507D01*
X138269474Y-64784610D01*
X138269471Y-64784612D01*
X138099100Y-64912530D01*
X138094965Y-64915635D01*
X137940629Y-65077138D01*
X137833201Y-65234621D01*
X137778293Y-65279621D01*
X137707768Y-65287792D01*
X137644021Y-65256538D01*
X137623324Y-65232054D01*
X137542822Y-65107617D01*
X137542820Y-65107614D01*
X137540014Y-65103277D01*
X137389670Y-64938051D01*
X137385619Y-64934852D01*
X137385615Y-64934848D01*
X137218414Y-64802800D01*
X137218410Y-64802798D01*
X137214359Y-64799598D01*
X137178028Y-64779542D01*
X137162136Y-64770769D01*
X137018789Y-64691638D01*
X137013920Y-64689914D01*
X137013916Y-64689912D01*
X136813087Y-64618795D01*
X136813083Y-64618794D01*
X136808212Y-64617069D01*
X136803119Y-64616162D01*
X136803116Y-64616161D01*
X136593373Y-64578800D01*
X136593367Y-64578799D01*
X136588284Y-64577894D01*
X136514452Y-64576992D01*
X136370081Y-64575228D01*
X136370079Y-64575228D01*
X136364911Y-64575165D01*
X136144091Y-64608955D01*
X135931756Y-64678357D01*
X135733607Y-64781507D01*
X135729474Y-64784610D01*
X135729471Y-64784612D01*
X135559100Y-64912530D01*
X135554965Y-64915635D01*
X135400629Y-65077138D01*
X135293204Y-65234618D01*
X135292898Y-65235066D01*
X135237987Y-65280069D01*
X135167462Y-65288240D01*
X135103715Y-65256986D01*
X135083018Y-65232502D01*
X135002426Y-65107926D01*
X134996136Y-65099757D01*
X134852806Y-64942240D01*
X134845273Y-64935215D01*
X134678139Y-64803222D01*
X134669552Y-64797517D01*
X134483117Y-64694599D01*
X134473705Y-64690369D01*
X134272959Y-64619280D01*
X134262988Y-64616646D01*
X134191837Y-64603972D01*
X134178540Y-64605432D01*
X134174000Y-64619989D01*
X134174000Y-67253517D01*
X134178064Y-67267359D01*
X134191478Y-67269393D01*
X134198184Y-67268534D01*
X134208262Y-67266392D01*
X134339021Y-67227162D01*
X134410017Y-67226745D01*
X134469967Y-67264778D01*
X134499839Y-67329184D01*
X134490148Y-67399516D01*
X134464324Y-67436943D01*
X133748672Y-68152595D01*
X133686360Y-68186621D01*
X133659577Y-68189500D01*
X129104020Y-68189500D01*
X129092791Y-68188971D01*
X129085281Y-68187292D01*
X129077355Y-68187541D01*
X129077354Y-68187541D01*
X129017002Y-68189438D01*
X129013044Y-68189500D01*
X128985017Y-68189500D01*
X128980971Y-68190011D01*
X128969143Y-68190942D01*
X128924795Y-68192336D01*
X128917177Y-68194549D01*
X128917178Y-68194549D01*
X128905254Y-68198013D01*
X128885894Y-68202022D01*
X128873566Y-68203579D01*
X128873563Y-68203580D01*
X128865701Y-68204573D01*
X128858335Y-68207490D01*
X128858329Y-68207491D01*
X128824439Y-68220909D01*
X128813212Y-68224753D01*
X128770607Y-68237131D01*
X128763788Y-68241164D01*
X128763783Y-68241166D01*
X128753091Y-68247490D01*
X128735341Y-68256187D01*
X128716412Y-68263681D01*
X128709996Y-68268342D01*
X128709995Y-68268343D01*
X128680519Y-68289759D01*
X128670595Y-68296278D01*
X128639224Y-68314830D01*
X128639219Y-68314834D01*
X128632401Y-68318866D01*
X128618014Y-68333253D01*
X128602980Y-68346094D01*
X128586513Y-68358058D01*
X128581460Y-68364166D01*
X128558228Y-68392249D01*
X128550238Y-68401029D01*
X126015095Y-70936172D01*
X125952783Y-70970198D01*
X125881968Y-70965133D01*
X125825132Y-70922586D01*
X125800321Y-70856066D01*
X125800000Y-70847077D01*
X125800000Y-66833134D01*
X130021500Y-66833134D01*
X130028255Y-66895316D01*
X130079385Y-67031705D01*
X130166739Y-67148261D01*
X130283295Y-67235615D01*
X130419684Y-67286745D01*
X130481866Y-67293500D01*
X132278134Y-67293500D01*
X132340316Y-67286745D01*
X132476705Y-67235615D01*
X132593261Y-67148261D01*
X132680615Y-67031705D01*
X132724798Y-66913848D01*
X132767440Y-66857084D01*
X132834001Y-66832384D01*
X132903350Y-66847592D01*
X132938017Y-66875580D01*
X132963218Y-66904673D01*
X132970580Y-66911883D01*
X133134434Y-67047916D01*
X133142881Y-67053831D01*
X133326756Y-67161279D01*
X133336042Y-67165729D01*
X133535001Y-67241703D01*
X133544899Y-67244579D01*
X133648250Y-67265606D01*
X133662299Y-67264410D01*
X133666000Y-67254065D01*
X133666000Y-64618102D01*
X133662082Y-64604758D01*
X133647806Y-64602771D01*
X133609324Y-64608660D01*
X133599288Y-64611051D01*
X133396868Y-64677212D01*
X133387359Y-64681209D01*
X133198463Y-64779542D01*
X133189738Y-64785036D01*
X133019433Y-64912905D01*
X133011726Y-64919748D01*
X132934478Y-65000584D01*
X132872954Y-65036014D01*
X132802042Y-65032557D01*
X132744255Y-64991311D01*
X132725402Y-64957763D01*
X132683767Y-64846703D01*
X132680615Y-64838295D01*
X132593261Y-64721739D01*
X132476705Y-64634385D01*
X132340316Y-64583255D01*
X132278134Y-64576500D01*
X130481866Y-64576500D01*
X130419684Y-64583255D01*
X130283295Y-64634385D01*
X130166739Y-64721739D01*
X130079385Y-64838295D01*
X130028255Y-64974684D01*
X130021500Y-65036866D01*
X130021500Y-66833134D01*
X125800000Y-66833134D01*
X125800000Y-64173134D01*
X140591500Y-64173134D01*
X140598255Y-64235316D01*
X140649385Y-64371705D01*
X140736739Y-64488261D01*
X140853295Y-64575615D01*
X140989684Y-64626745D01*
X141051866Y-64633500D01*
X142148134Y-64633500D01*
X142210316Y-64626745D01*
X142346705Y-64575615D01*
X142463261Y-64488261D01*
X142550615Y-64371705D01*
X142601745Y-64235316D01*
X142608500Y-64173134D01*
X142608500Y-64169669D01*
X143792001Y-64169669D01*
X143792371Y-64176490D01*
X143797895Y-64227352D01*
X143801521Y-64242604D01*
X143846676Y-64363054D01*
X143855214Y-64378649D01*
X143931715Y-64480724D01*
X143944276Y-64493285D01*
X144046351Y-64569786D01*
X144061946Y-64578324D01*
X144182394Y-64623478D01*
X144197649Y-64627105D01*
X144248514Y-64632631D01*
X144255328Y-64633000D01*
X144527885Y-64633000D01*
X144543124Y-64628525D01*
X144544329Y-64627135D01*
X144546000Y-64619452D01*
X144546000Y-63647115D01*
X144541525Y-63631876D01*
X144540135Y-63630671D01*
X144532452Y-63629000D01*
X143810116Y-63629000D01*
X143794877Y-63633475D01*
X143793672Y-63634865D01*
X143792001Y-63642548D01*
X143792001Y-64169669D01*
X142608500Y-64169669D01*
X142608500Y-63102885D01*
X143792000Y-63102885D01*
X143796475Y-63118124D01*
X143797865Y-63119329D01*
X143805548Y-63121000D01*
X144527885Y-63121000D01*
X144543124Y-63116525D01*
X144544329Y-63115135D01*
X144546000Y-63107452D01*
X144546000Y-62135116D01*
X144541525Y-62119877D01*
X144540135Y-62118672D01*
X144532452Y-62117001D01*
X144255331Y-62117001D01*
X144248510Y-62117371D01*
X144197648Y-62122895D01*
X144182396Y-62126521D01*
X144061946Y-62171676D01*
X144046351Y-62180214D01*
X143944276Y-62256715D01*
X143931715Y-62269276D01*
X143855214Y-62371351D01*
X143846676Y-62386946D01*
X143801522Y-62507394D01*
X143797895Y-62522649D01*
X143792369Y-62573514D01*
X143792000Y-62580328D01*
X143792000Y-63102885D01*
X142608500Y-63102885D01*
X142608500Y-62576866D01*
X142601745Y-62514684D01*
X142550615Y-62378295D01*
X142463261Y-62261739D01*
X142346705Y-62174385D01*
X142210316Y-62123255D01*
X142148134Y-62116500D01*
X141051866Y-62116500D01*
X140989684Y-62123255D01*
X140853295Y-62174385D01*
X140736739Y-62261739D01*
X140649385Y-62378295D01*
X140598255Y-62514684D01*
X140591500Y-62576866D01*
X140591500Y-64173134D01*
X125800000Y-64173134D01*
X125800000Y-58425000D01*
X135561496Y-58425000D01*
X135562186Y-58431565D01*
X135579033Y-58591852D01*
X135581458Y-58614928D01*
X135640473Y-58796556D01*
X135735960Y-58961944D01*
X135863747Y-59103866D01*
X136018248Y-59216118D01*
X136024276Y-59218802D01*
X136024278Y-59218803D01*
X136153938Y-59276531D01*
X136192712Y-59293794D01*
X136286113Y-59313647D01*
X136373056Y-59332128D01*
X136373061Y-59332128D01*
X136379513Y-59333500D01*
X136570487Y-59333500D01*
X136576939Y-59332128D01*
X136576944Y-59332128D01*
X136663887Y-59313647D01*
X136757288Y-59293794D01*
X136796062Y-59276531D01*
X136925722Y-59218803D01*
X136925724Y-59218802D01*
X136931752Y-59216118D01*
X137086253Y-59103866D01*
X137214040Y-58961944D01*
X137309527Y-58796556D01*
X137368542Y-58614928D01*
X137370968Y-58591852D01*
X137385575Y-58452867D01*
X137412588Y-58387210D01*
X137421790Y-58376942D01*
X137748732Y-58050000D01*
X138561496Y-58050000D01*
X138562186Y-58056565D01*
X138573980Y-58168774D01*
X138581458Y-58239928D01*
X138640473Y-58421556D01*
X138735960Y-58586944D01*
X138740378Y-58591851D01*
X138740379Y-58591852D01*
X138831845Y-58693435D01*
X138863747Y-58728866D01*
X139018248Y-58841118D01*
X139024276Y-58843802D01*
X139024278Y-58843803D01*
X139141978Y-58896206D01*
X139192712Y-58918794D01*
X139286112Y-58938647D01*
X139373056Y-58957128D01*
X139373061Y-58957128D01*
X139379513Y-58958500D01*
X139570487Y-58958500D01*
X139576939Y-58957128D01*
X139576944Y-58957128D01*
X139663888Y-58938647D01*
X139757288Y-58918794D01*
X139808022Y-58896206D01*
X139925722Y-58843803D01*
X139925724Y-58843802D01*
X139931752Y-58841118D01*
X140086253Y-58728866D01*
X140118155Y-58693435D01*
X140209621Y-58591852D01*
X140209622Y-58591851D01*
X140214040Y-58586944D01*
X140309527Y-58421556D01*
X140345667Y-58310329D01*
X140385741Y-58251723D01*
X140451137Y-58224086D01*
X140521094Y-58236193D01*
X140573400Y-58284199D01*
X140591500Y-58349265D01*
X140591500Y-59273134D01*
X140598255Y-59335316D01*
X140649385Y-59471705D01*
X140736739Y-59588261D01*
X140853295Y-59675615D01*
X140989684Y-59726745D01*
X141051866Y-59733500D01*
X142148134Y-59733500D01*
X142210316Y-59726745D01*
X142346705Y-59675615D01*
X142405900Y-59631251D01*
X142472407Y-59606403D01*
X142494639Y-59606768D01*
X142498054Y-59607127D01*
X142504513Y-59608500D01*
X142695487Y-59608500D01*
X142701939Y-59607128D01*
X142701944Y-59607128D01*
X142790703Y-59588261D01*
X142882288Y-59568794D01*
X142988306Y-59521592D01*
X143050722Y-59493803D01*
X143050724Y-59493802D01*
X143056752Y-59491118D01*
X143211253Y-59378866D01*
X143215675Y-59373955D01*
X143334621Y-59241852D01*
X143334622Y-59241851D01*
X143339040Y-59236944D01*
X143434527Y-59071556D01*
X143493542Y-58889928D01*
X143513504Y-58700000D01*
X143502137Y-58591852D01*
X143494232Y-58516635D01*
X143494232Y-58516633D01*
X143493542Y-58510072D01*
X143434527Y-58328444D01*
X143339040Y-58163056D01*
X143333703Y-58157128D01*
X143215675Y-58026045D01*
X143215674Y-58026044D01*
X143211253Y-58021134D01*
X143089602Y-57932749D01*
X143062094Y-57912763D01*
X143062093Y-57912762D01*
X143056752Y-57908882D01*
X143050724Y-57906198D01*
X143050722Y-57906197D01*
X142888319Y-57833891D01*
X142888318Y-57833891D01*
X142882288Y-57831206D01*
X142707978Y-57794155D01*
X142645507Y-57760428D01*
X142611185Y-57698278D01*
X142608500Y-57678729D01*
X142608500Y-57676866D01*
X142601745Y-57614684D01*
X142550615Y-57478295D01*
X142463261Y-57361739D01*
X142346705Y-57274385D01*
X142210316Y-57223255D01*
X142148134Y-57216500D01*
X141483474Y-57216500D01*
X141415353Y-57196498D01*
X141368860Y-57142842D01*
X141358756Y-57072568D01*
X141374106Y-57028958D01*
X141376349Y-57026067D01*
X141384493Y-57007249D01*
X141393969Y-56985350D01*
X141399192Y-56974689D01*
X141416749Y-56942753D01*
X141416751Y-56942748D01*
X141420569Y-56935803D01*
X141422539Y-56928129D01*
X141422542Y-56928122D01*
X141425632Y-56916087D01*
X141432036Y-56897382D01*
X141436967Y-56885987D01*
X141440117Y-56878708D01*
X141447060Y-56834873D01*
X141449467Y-56823251D01*
X141460500Y-56780282D01*
X141460500Y-56759935D01*
X141462051Y-56740224D01*
X141463995Y-56727950D01*
X141465235Y-56720121D01*
X141461059Y-56675944D01*
X141460500Y-56664086D01*
X141460500Y-48690422D01*
X141480502Y-48622301D01*
X141497405Y-48601327D01*
X141678327Y-48420405D01*
X141740639Y-48386379D01*
X141767422Y-48383500D01*
X141820487Y-48383500D01*
X141826939Y-48382128D01*
X141826944Y-48382128D01*
X141918009Y-48362771D01*
X142007288Y-48343794D01*
X142031402Y-48333058D01*
X142175722Y-48268803D01*
X142175724Y-48268802D01*
X142181752Y-48266118D01*
X142217526Y-48240127D01*
X142300870Y-48179573D01*
X142336253Y-48153866D01*
X142371173Y-48115083D01*
X142459621Y-48016852D01*
X142459622Y-48016851D01*
X142464040Y-48011944D01*
X142531229Y-47895569D01*
X142556223Y-47852279D01*
X142556224Y-47852278D01*
X142559527Y-47846556D01*
X142618542Y-47664928D01*
X142638504Y-47475000D01*
X142618542Y-47285072D01*
X142559527Y-47103444D01*
X142464040Y-46938056D01*
X142455386Y-46928444D01*
X142340675Y-46801045D01*
X142340674Y-46801044D01*
X142336253Y-46796134D01*
X142181752Y-46683882D01*
X142175724Y-46681198D01*
X142175722Y-46681197D01*
X142013319Y-46608891D01*
X142013318Y-46608891D01*
X142007288Y-46606206D01*
X141913888Y-46586353D01*
X141826944Y-46567872D01*
X141826939Y-46567872D01*
X141820487Y-46566500D01*
X141629513Y-46566500D01*
X141623061Y-46567872D01*
X141623056Y-46567872D01*
X141536112Y-46586353D01*
X141442712Y-46606206D01*
X141436682Y-46608891D01*
X141436681Y-46608891D01*
X141274278Y-46681197D01*
X141274276Y-46681198D01*
X141268248Y-46683882D01*
X141113747Y-46796134D01*
X141109326Y-46801044D01*
X141109325Y-46801045D01*
X140994615Y-46928444D01*
X140985960Y-46938056D01*
X140890473Y-47103444D01*
X140831458Y-47285072D01*
X140830768Y-47291633D01*
X140830768Y-47291635D01*
X140814425Y-47447132D01*
X140787412Y-47512789D01*
X140778210Y-47523057D01*
X140431517Y-47869750D01*
X140423191Y-47877326D01*
X140416697Y-47881447D01*
X140411274Y-47887222D01*
X140369915Y-47931265D01*
X140367160Y-47934107D01*
X140347361Y-47953906D01*
X140344937Y-47957031D01*
X140344929Y-47957040D01*
X140344863Y-47957126D01*
X140337155Y-47966151D01*
X140306783Y-47998494D01*
X140302965Y-48005438D01*
X140302964Y-48005440D01*
X140296978Y-48016329D01*
X140286127Y-48032847D01*
X140273650Y-48048933D01*
X140256024Y-48089666D01*
X140250807Y-48100314D01*
X140229431Y-48139197D01*
X140227460Y-48146872D01*
X140227458Y-48146878D01*
X140224369Y-48158911D01*
X140217966Y-48177613D01*
X140209883Y-48196292D01*
X140208644Y-48204117D01*
X140202940Y-48240127D01*
X140200535Y-48251740D01*
X140189500Y-48294718D01*
X140189500Y-48315065D01*
X140187949Y-48334776D01*
X140184765Y-48354879D01*
X140185511Y-48362771D01*
X140188941Y-48399056D01*
X140189500Y-48410914D01*
X140189500Y-56384577D01*
X140169498Y-56452698D01*
X140152595Y-56473672D01*
X139521672Y-57104595D01*
X139459360Y-57138621D01*
X139432577Y-57141500D01*
X139379513Y-57141500D01*
X139373061Y-57142872D01*
X139373056Y-57142872D01*
X139286113Y-57161353D01*
X139192712Y-57181206D01*
X139186682Y-57183891D01*
X139186681Y-57183891D01*
X139024278Y-57256197D01*
X139024276Y-57256198D01*
X139018248Y-57258882D01*
X138863747Y-57371134D01*
X138859326Y-57376044D01*
X138859325Y-57376045D01*
X138815747Y-57424444D01*
X138735960Y-57513056D01*
X138640473Y-57678444D01*
X138581458Y-57860072D01*
X138580768Y-57866633D01*
X138580768Y-57866635D01*
X138573820Y-57932745D01*
X138561496Y-58050000D01*
X137748732Y-58050000D01*
X138518962Y-57279771D01*
X139643483Y-56155250D01*
X139651809Y-56147674D01*
X139658303Y-56143553D01*
X139705086Y-56093734D01*
X139707840Y-56090893D01*
X139727639Y-56071094D01*
X139730068Y-56067963D01*
X139730072Y-56067958D01*
X139730139Y-56067872D01*
X139737847Y-56058847D01*
X139762792Y-56032283D01*
X139768217Y-56026506D01*
X139772035Y-56019561D01*
X139772038Y-56019557D01*
X139778026Y-56008666D01*
X139788878Y-55992145D01*
X139790847Y-55989606D01*
X139801350Y-55976066D01*
X139818971Y-55935345D01*
X139824192Y-55924689D01*
X139841748Y-55892755D01*
X139841750Y-55892749D01*
X139845569Y-55885803D01*
X139847540Y-55878128D01*
X139847542Y-55878122D01*
X139850631Y-55866089D01*
X139857034Y-55847387D01*
X139865117Y-55828708D01*
X139866357Y-55820882D01*
X139866358Y-55820877D01*
X139872060Y-55784880D01*
X139874466Y-55773260D01*
X139883528Y-55737963D01*
X139883528Y-55737962D01*
X139885500Y-55730282D01*
X139885500Y-55709934D01*
X139887051Y-55690223D01*
X139888995Y-55677949D01*
X139890235Y-55670120D01*
X139886059Y-55625944D01*
X139885500Y-55614086D01*
X139885500Y-40732817D01*
X139905502Y-40664696D01*
X139959158Y-40618203D01*
X139994697Y-40608500D01*
X139995487Y-40608500D01*
X140182288Y-40568794D01*
X140216381Y-40553615D01*
X140350722Y-40493803D01*
X140350724Y-40493802D01*
X140356752Y-40491118D01*
X140511253Y-40378866D01*
X140639040Y-40236944D01*
X140734527Y-40071556D01*
X140793542Y-39889928D01*
X140795969Y-39866842D01*
X140812814Y-39706565D01*
X140813504Y-39700000D01*
X140793542Y-39510072D01*
X140734527Y-39328444D01*
X140639040Y-39163056D01*
X140511253Y-39021134D01*
X140356752Y-38908882D01*
X140350724Y-38906198D01*
X140350722Y-38906197D01*
X140188319Y-38833891D01*
X140188318Y-38833891D01*
X140182288Y-38831206D01*
X140088888Y-38811353D01*
X140001944Y-38792872D01*
X140001939Y-38792872D01*
X139995487Y-38791500D01*
X139804513Y-38791500D01*
X139798061Y-38792872D01*
X139798056Y-38792872D01*
X139711112Y-38811353D01*
X139617712Y-38831206D01*
X139611682Y-38833891D01*
X139611681Y-38833891D01*
X139449278Y-38906197D01*
X139449276Y-38906198D01*
X139443248Y-38908882D01*
X139288747Y-39021134D01*
X139160960Y-39163056D01*
X139065473Y-39328444D01*
X139006458Y-39510072D01*
X139005768Y-39516633D01*
X139005768Y-39516635D01*
X138989425Y-39672132D01*
X138962412Y-39737789D01*
X138953210Y-39748057D01*
X138856517Y-39844750D01*
X138848191Y-39852326D01*
X138841697Y-39856447D01*
X138816419Y-39883365D01*
X138794915Y-39906265D01*
X138792160Y-39909107D01*
X138772361Y-39928906D01*
X138769937Y-39932031D01*
X138769929Y-39932040D01*
X138769863Y-39932126D01*
X138762155Y-39941151D01*
X138731783Y-39973494D01*
X138727965Y-39980438D01*
X138727964Y-39980440D01*
X138721978Y-39991329D01*
X138711127Y-40007847D01*
X138698650Y-40023933D01*
X138681024Y-40064666D01*
X138675807Y-40075314D01*
X138654431Y-40114197D01*
X138652460Y-40121872D01*
X138652458Y-40121878D01*
X138649369Y-40133911D01*
X138642966Y-40152613D01*
X138634883Y-40171292D01*
X138632435Y-40186751D01*
X138627940Y-40215127D01*
X138625535Y-40226740D01*
X138614500Y-40269718D01*
X138614500Y-40290065D01*
X138612949Y-40309776D01*
X138609765Y-40329879D01*
X138610511Y-40337771D01*
X138613941Y-40374056D01*
X138614500Y-40385914D01*
X138614500Y-55334577D01*
X138594498Y-55402698D01*
X138577595Y-55423672D01*
X136521672Y-57479595D01*
X136459360Y-57513621D01*
X136432577Y-57516500D01*
X136379513Y-57516500D01*
X136373061Y-57517872D01*
X136373056Y-57517872D01*
X136286113Y-57536353D01*
X136192712Y-57556206D01*
X136186682Y-57558891D01*
X136186681Y-57558891D01*
X136024278Y-57631197D01*
X136024276Y-57631198D01*
X136018248Y-57633882D01*
X135863747Y-57746134D01*
X135859326Y-57751044D01*
X135859325Y-57751045D01*
X135745927Y-57876987D01*
X135735960Y-57888056D01*
X135640473Y-58053444D01*
X135581458Y-58235072D01*
X135580768Y-58241633D01*
X135580768Y-58241635D01*
X135573548Y-58310329D01*
X135561496Y-58425000D01*
X125800000Y-58425000D01*
X125800000Y-57250000D01*
X129906496Y-57250000D01*
X129907186Y-57256565D01*
X129924831Y-57424444D01*
X129926458Y-57439928D01*
X129985473Y-57621556D01*
X130080960Y-57786944D01*
X130085378Y-57791851D01*
X130085379Y-57791852D01*
X130173707Y-57889950D01*
X130208747Y-57928866D01*
X130363248Y-58041118D01*
X130369276Y-58043802D01*
X130369278Y-58043803D01*
X130405049Y-58059729D01*
X130537712Y-58118794D01*
X130631112Y-58138647D01*
X130718056Y-58157128D01*
X130718061Y-58157128D01*
X130724513Y-58158500D01*
X130915487Y-58158500D01*
X130921939Y-58157128D01*
X130921944Y-58157128D01*
X131008888Y-58138647D01*
X131102288Y-58118794D01*
X131234951Y-58059729D01*
X131270722Y-58043803D01*
X131270724Y-58043802D01*
X131276752Y-58041118D01*
X131431253Y-57928866D01*
X131435668Y-57923963D01*
X131440580Y-57919540D01*
X131442221Y-57921362D01*
X131493210Y-57889950D01*
X131526399Y-57885500D01*
X131580980Y-57885500D01*
X131592214Y-57886030D01*
X131599719Y-57887708D01*
X131668012Y-57885562D01*
X131671969Y-57885500D01*
X131699983Y-57885500D01*
X131703908Y-57885004D01*
X131703909Y-57885004D01*
X131704004Y-57884992D01*
X131715849Y-57884059D01*
X131745670Y-57883122D01*
X131752282Y-57882914D01*
X131752283Y-57882914D01*
X131760205Y-57882665D01*
X131779749Y-57876987D01*
X131799112Y-57872977D01*
X131811440Y-57871420D01*
X131811442Y-57871420D01*
X131819299Y-57870427D01*
X131826663Y-57867511D01*
X131826668Y-57867510D01*
X131860556Y-57854093D01*
X131871785Y-57850248D01*
X131888465Y-57845402D01*
X131914393Y-57837869D01*
X131921220Y-57833831D01*
X131921223Y-57833830D01*
X131931906Y-57827512D01*
X131949664Y-57818812D01*
X131961215Y-57814239D01*
X131961221Y-57814235D01*
X131968588Y-57811319D01*
X132004491Y-57785234D01*
X132014410Y-57778719D01*
X132045768Y-57760174D01*
X132045772Y-57760171D01*
X132052598Y-57756134D01*
X132066982Y-57741750D01*
X132082016Y-57728909D01*
X132092073Y-57721602D01*
X132098487Y-57716942D01*
X132126777Y-57682746D01*
X132134766Y-57673967D01*
X132457666Y-57351067D01*
X132519978Y-57317041D01*
X132590793Y-57322106D01*
X132631072Y-57346526D01*
X132634325Y-57349455D01*
X132638747Y-57354366D01*
X132735201Y-57424444D01*
X132756513Y-57439928D01*
X132793248Y-57466618D01*
X132799276Y-57469302D01*
X132799278Y-57469303D01*
X132961681Y-57541609D01*
X132967712Y-57544294D01*
X133061112Y-57564147D01*
X133148056Y-57582628D01*
X133148061Y-57582628D01*
X133154513Y-57584000D01*
X133345487Y-57584000D01*
X133351939Y-57582628D01*
X133351944Y-57582628D01*
X133438888Y-57564147D01*
X133532288Y-57544294D01*
X133538319Y-57541609D01*
X133700722Y-57469303D01*
X133700724Y-57469302D01*
X133706752Y-57466618D01*
X133743488Y-57439928D01*
X133764799Y-57424444D01*
X133861253Y-57354366D01*
X133949645Y-57256197D01*
X133984621Y-57217352D01*
X133984622Y-57217351D01*
X133989040Y-57212444D01*
X134084527Y-57047056D01*
X134143542Y-56865428D01*
X134146754Y-56834873D01*
X134162814Y-56682065D01*
X134163504Y-56675500D01*
X134146734Y-56515944D01*
X134144232Y-56492135D01*
X134144232Y-56492133D01*
X134143542Y-56485572D01*
X134084527Y-56303944D01*
X133989040Y-56138556D01*
X133957061Y-56103039D01*
X133865675Y-56001545D01*
X133865674Y-56001544D01*
X133861253Y-55996634D01*
X133762157Y-55924636D01*
X133712094Y-55888263D01*
X133712093Y-55888262D01*
X133706752Y-55884382D01*
X133700724Y-55881698D01*
X133700722Y-55881697D01*
X133538319Y-55809391D01*
X133538318Y-55809391D01*
X133532288Y-55806706D01*
X133438888Y-55786853D01*
X133351944Y-55768372D01*
X133351939Y-55768372D01*
X133345487Y-55767000D01*
X133154513Y-55767000D01*
X133148061Y-55768372D01*
X133148056Y-55768372D01*
X133061112Y-55786853D01*
X132967712Y-55806706D01*
X132961682Y-55809391D01*
X132961681Y-55809391D01*
X132799278Y-55881697D01*
X132799276Y-55881698D01*
X132793248Y-55884382D01*
X132787907Y-55888262D01*
X132787906Y-55888263D01*
X132737770Y-55924689D01*
X132638747Y-55996634D01*
X132634332Y-56001537D01*
X132629420Y-56005960D01*
X132627779Y-56004138D01*
X132576790Y-56035550D01*
X132543601Y-56040000D01*
X132313532Y-56040000D01*
X132302293Y-56039470D01*
X132294781Y-56037791D01*
X132286856Y-56038040D01*
X132286855Y-56038040D01*
X132226470Y-56039938D01*
X132222512Y-56040000D01*
X132194517Y-56040000D01*
X132190583Y-56040497D01*
X132190581Y-56040497D01*
X132190494Y-56040508D01*
X132178660Y-56041440D01*
X132134295Y-56042835D01*
X132126682Y-56045047D01*
X132126681Y-56045047D01*
X132114752Y-56048513D01*
X132095388Y-56052523D01*
X132083060Y-56054080D01*
X132083058Y-56054080D01*
X132075201Y-56055073D01*
X132067837Y-56057989D01*
X132067832Y-56057990D01*
X132033944Y-56071407D01*
X132022715Y-56075252D01*
X132008741Y-56079312D01*
X131980107Y-56087631D01*
X131970994Y-56093021D01*
X131962591Y-56097990D01*
X131944841Y-56106687D01*
X131925912Y-56114181D01*
X131919498Y-56118841D01*
X131890014Y-56140262D01*
X131880094Y-56146778D01*
X131848729Y-56165327D01*
X131848726Y-56165329D01*
X131841902Y-56169365D01*
X131827514Y-56183753D01*
X131812480Y-56196594D01*
X131796013Y-56208558D01*
X131790960Y-56214666D01*
X131767728Y-56242749D01*
X131759738Y-56251529D01*
X131512491Y-56498776D01*
X131450179Y-56532802D01*
X131379364Y-56527737D01*
X131349335Y-56511617D01*
X131336483Y-56502279D01*
X131319955Y-56490271D01*
X131282094Y-56462763D01*
X131282093Y-56462762D01*
X131276752Y-56458882D01*
X131270724Y-56456198D01*
X131270722Y-56456197D01*
X131108319Y-56383891D01*
X131108318Y-56383891D01*
X131102288Y-56381206D01*
X130984993Y-56356274D01*
X130921944Y-56342872D01*
X130921939Y-56342872D01*
X130915487Y-56341500D01*
X130724513Y-56341500D01*
X130718061Y-56342872D01*
X130718056Y-56342872D01*
X130655007Y-56356274D01*
X130537712Y-56381206D01*
X130531682Y-56383891D01*
X130531681Y-56383891D01*
X130369278Y-56456197D01*
X130369276Y-56456198D01*
X130363248Y-56458882D01*
X130357907Y-56462762D01*
X130357906Y-56462763D01*
X130320045Y-56490271D01*
X130208747Y-56571134D01*
X130204326Y-56576044D01*
X130204325Y-56576045D01*
X130100555Y-56691294D01*
X130080960Y-56713056D01*
X129985473Y-56878444D01*
X129926458Y-57060072D01*
X129925768Y-57066633D01*
X129925768Y-57066635D01*
X129917759Y-57142842D01*
X129906496Y-57250000D01*
X125800000Y-57250000D01*
X125800000Y-57034342D01*
X125820002Y-56966221D01*
X125870465Y-56922912D01*
X125870000Y-56922106D01*
X125874291Y-56919629D01*
X125874746Y-56919238D01*
X125875715Y-56918807D01*
X125875724Y-56918802D01*
X125881752Y-56916118D01*
X126036253Y-56803866D01*
X126040675Y-56798955D01*
X126159621Y-56666852D01*
X126159622Y-56666851D01*
X126164040Y-56661944D01*
X126250832Y-56511617D01*
X126256223Y-56502279D01*
X126256224Y-56502278D01*
X126259527Y-56496556D01*
X126318542Y-56314928D01*
X126319697Y-56303944D01*
X126323830Y-56264612D01*
X126350843Y-56198955D01*
X126360045Y-56188687D01*
X131976327Y-50572405D01*
X132038639Y-50538379D01*
X132065422Y-50535500D01*
X132696092Y-50535500D01*
X132764213Y-50555502D01*
X132789724Y-50577186D01*
X132813747Y-50603866D01*
X132968248Y-50716118D01*
X132974276Y-50718802D01*
X132974278Y-50718803D01*
X133136681Y-50791109D01*
X133142712Y-50793794D01*
X133236112Y-50813647D01*
X133323056Y-50832128D01*
X133323061Y-50832128D01*
X133329513Y-50833500D01*
X133520487Y-50833500D01*
X133526939Y-50832128D01*
X133526944Y-50832128D01*
X133613888Y-50813647D01*
X133707288Y-50793794D01*
X133713319Y-50791109D01*
X133875722Y-50718803D01*
X133875724Y-50718802D01*
X133881752Y-50716118D01*
X134036253Y-50603866D01*
X134164040Y-50461944D01*
X134259527Y-50296556D01*
X134318542Y-50114928D01*
X134338504Y-49925000D01*
X134318542Y-49735072D01*
X134259527Y-49553444D01*
X134164040Y-49388056D01*
X134036253Y-49246134D01*
X133881752Y-49133882D01*
X133875724Y-49131198D01*
X133875722Y-49131197D01*
X133713319Y-49058891D01*
X133713318Y-49058891D01*
X133707288Y-49056206D01*
X133613887Y-49036353D01*
X133526944Y-49017872D01*
X133526939Y-49017872D01*
X133520487Y-49016500D01*
X133329513Y-49016500D01*
X133323061Y-49017872D01*
X133323056Y-49017872D01*
X133236113Y-49036353D01*
X133142712Y-49056206D01*
X133073372Y-49087078D01*
X133003006Y-49096512D01*
X132938709Y-49066406D01*
X132900896Y-49006317D01*
X132896814Y-48958801D01*
X132912814Y-48806565D01*
X132913504Y-48800000D01*
X132896502Y-48638232D01*
X132894232Y-48616635D01*
X132894232Y-48616633D01*
X132893542Y-48610072D01*
X132834527Y-48428444D01*
X132739040Y-48263056D01*
X132678926Y-48196292D01*
X132615675Y-48126045D01*
X132615674Y-48126044D01*
X132611253Y-48121134D01*
X132526119Y-48059280D01*
X132482765Y-48003057D01*
X132476690Y-47932321D01*
X132506542Y-47873036D01*
X132539040Y-47836944D01*
X132634527Y-47671556D01*
X132693542Y-47489928D01*
X132713504Y-47300000D01*
X132693542Y-47110072D01*
X132634527Y-46928444D01*
X132539040Y-46763056D01*
X132467752Y-46683882D01*
X132415675Y-46626045D01*
X132415674Y-46626044D01*
X132411253Y-46621134D01*
X132256752Y-46508882D01*
X132250724Y-46506198D01*
X132250722Y-46506197D01*
X132088319Y-46433891D01*
X132088318Y-46433891D01*
X132082288Y-46431206D01*
X131988887Y-46411353D01*
X131901944Y-46392872D01*
X131901939Y-46392872D01*
X131895487Y-46391500D01*
X131704513Y-46391500D01*
X131698061Y-46392872D01*
X131698056Y-46392872D01*
X131611113Y-46411353D01*
X131517712Y-46431206D01*
X131511682Y-46433891D01*
X131511681Y-46433891D01*
X131349278Y-46506197D01*
X131349276Y-46506198D01*
X131343248Y-46508882D01*
X131337907Y-46512762D01*
X131337906Y-46512763D01*
X131230440Y-46590842D01*
X131188747Y-46621134D01*
X131184332Y-46626037D01*
X131179420Y-46630460D01*
X131177779Y-46628638D01*
X131126790Y-46660050D01*
X131093601Y-46664500D01*
X125926000Y-46664500D01*
X125857879Y-46644498D01*
X125811386Y-46590842D01*
X125800000Y-46538500D01*
X125800000Y-44636500D01*
X125820002Y-44568379D01*
X125873658Y-44521886D01*
X125926000Y-44510500D01*
X129581938Y-44510500D01*
X129650059Y-44530502D01*
X129655999Y-44534564D01*
X129768248Y-44616118D01*
X129774276Y-44618802D01*
X129774278Y-44618803D01*
X129936681Y-44691109D01*
X129942712Y-44693794D01*
X130036112Y-44713647D01*
X130123056Y-44732128D01*
X130123061Y-44732128D01*
X130129513Y-44733500D01*
X130320487Y-44733500D01*
X130326939Y-44732128D01*
X130326944Y-44732128D01*
X130413888Y-44713647D01*
X130507288Y-44693794D01*
X130513319Y-44691109D01*
X130675722Y-44618803D01*
X130675724Y-44618802D01*
X130681752Y-44616118D01*
X130836253Y-44503866D01*
X130964040Y-44361944D01*
X131055321Y-44203841D01*
X131106704Y-44154848D01*
X131176417Y-44141412D01*
X131221641Y-44154573D01*
X131272480Y-44180477D01*
X131278276Y-44183624D01*
X131280136Y-44184698D01*
X131336215Y-44217075D01*
X131349125Y-44221270D01*
X131367384Y-44228833D01*
X131379476Y-44234994D01*
X131444138Y-44252320D01*
X131450386Y-44254172D01*
X131514044Y-44274855D01*
X131527536Y-44276273D01*
X131546980Y-44279877D01*
X131553705Y-44281679D01*
X131553710Y-44281680D01*
X131560085Y-44283388D01*
X131566675Y-44283733D01*
X131566679Y-44283734D01*
X131626880Y-44286889D01*
X131633455Y-44287406D01*
X131653380Y-44289500D01*
X131673414Y-44289500D01*
X131680008Y-44289673D01*
X131740218Y-44292829D01*
X131740223Y-44292829D01*
X131746810Y-44293174D01*
X131753325Y-44292142D01*
X131753327Y-44292142D01*
X131760214Y-44291051D01*
X131779925Y-44289500D01*
X132801881Y-44289500D01*
X132828078Y-44292253D01*
X132898056Y-44307128D01*
X132898061Y-44307128D01*
X132904513Y-44308500D01*
X133095487Y-44308500D01*
X133101939Y-44307128D01*
X133101944Y-44307128D01*
X133212001Y-44283734D01*
X133282288Y-44268794D01*
X133288319Y-44266109D01*
X133450722Y-44193803D01*
X133450724Y-44193802D01*
X133456752Y-44191118D01*
X133463020Y-44186564D01*
X133463646Y-44186340D01*
X133467811Y-44183936D01*
X133468251Y-44184698D01*
X133529887Y-44162706D01*
X133537081Y-44162500D01*
X133562919Y-44162500D01*
X133631040Y-44182502D01*
X133636980Y-44186564D01*
X133643248Y-44191118D01*
X133649276Y-44193802D01*
X133649278Y-44193803D01*
X133811681Y-44266109D01*
X133817712Y-44268794D01*
X133887999Y-44283734D01*
X133998056Y-44307128D01*
X133998061Y-44307128D01*
X134004513Y-44308500D01*
X134195487Y-44308500D01*
X134201939Y-44307128D01*
X134201944Y-44307128D01*
X134312001Y-44283734D01*
X134382288Y-44268794D01*
X134388319Y-44266109D01*
X134550722Y-44193803D01*
X134550724Y-44193802D01*
X134556752Y-44191118D01*
X134563020Y-44186564D01*
X134563646Y-44186340D01*
X134567811Y-44183936D01*
X134568251Y-44184698D01*
X134629887Y-44162706D01*
X134637081Y-44162500D01*
X134662919Y-44162500D01*
X134731040Y-44182502D01*
X134736980Y-44186564D01*
X134743248Y-44191118D01*
X134749276Y-44193802D01*
X134749278Y-44193803D01*
X134911681Y-44266109D01*
X134917712Y-44268794D01*
X134987999Y-44283734D01*
X135098056Y-44307128D01*
X135098061Y-44307128D01*
X135104513Y-44308500D01*
X135295487Y-44308500D01*
X135301939Y-44307128D01*
X135301944Y-44307128D01*
X135412001Y-44283734D01*
X135482288Y-44268794D01*
X135488319Y-44266109D01*
X135650722Y-44193803D01*
X135650724Y-44193802D01*
X135656752Y-44191118D01*
X135663329Y-44186340D01*
X135749703Y-44123585D01*
X135811253Y-44078866D01*
X135939040Y-43936944D01*
X136034527Y-43771556D01*
X136093542Y-43589928D01*
X136113504Y-43400000D01*
X136093542Y-43210072D01*
X136034527Y-43028444D01*
X135967875Y-42912999D01*
X135951137Y-42844005D01*
X135967875Y-42787000D01*
X136031223Y-42677279D01*
X136031224Y-42677278D01*
X136034527Y-42671556D01*
X136093542Y-42489928D01*
X136113504Y-42300000D01*
X136093542Y-42110072D01*
X136034527Y-41928444D01*
X135939040Y-41763056D01*
X135811253Y-41621134D01*
X135666637Y-41516064D01*
X135662094Y-41512763D01*
X135662093Y-41512762D01*
X135656752Y-41508882D01*
X135650724Y-41506198D01*
X135650722Y-41506197D01*
X135488319Y-41433891D01*
X135488318Y-41433891D01*
X135482288Y-41431206D01*
X135388888Y-41411353D01*
X135301944Y-41392872D01*
X135301939Y-41392872D01*
X135295487Y-41391500D01*
X135104513Y-41391500D01*
X135098061Y-41392872D01*
X135098056Y-41392872D01*
X135011112Y-41411353D01*
X134917712Y-41431206D01*
X134911682Y-41433891D01*
X134911681Y-41433891D01*
X134749278Y-41506197D01*
X134749276Y-41506198D01*
X134743248Y-41508882D01*
X134737907Y-41512762D01*
X134737906Y-41512763D01*
X134736980Y-41513436D01*
X134736354Y-41513660D01*
X134732189Y-41516064D01*
X134731749Y-41515302D01*
X134670113Y-41537294D01*
X134662919Y-41537500D01*
X134637081Y-41537500D01*
X134568960Y-41517498D01*
X134563020Y-41513436D01*
X134562094Y-41512763D01*
X134562093Y-41512762D01*
X134556752Y-41508882D01*
X134550724Y-41506198D01*
X134550722Y-41506197D01*
X134388319Y-41433891D01*
X134388318Y-41433891D01*
X134382288Y-41431206D01*
X134288888Y-41411353D01*
X134201944Y-41392872D01*
X134201939Y-41392872D01*
X134195487Y-41391500D01*
X134004513Y-41391500D01*
X133998061Y-41392872D01*
X133998056Y-41392872D01*
X133911112Y-41411353D01*
X133817712Y-41431206D01*
X133811682Y-41433891D01*
X133811681Y-41433891D01*
X133649278Y-41506197D01*
X133649276Y-41506198D01*
X133643248Y-41508882D01*
X133637907Y-41512762D01*
X133637906Y-41512763D01*
X133636980Y-41513436D01*
X133636354Y-41513660D01*
X133632189Y-41516064D01*
X133631749Y-41515302D01*
X133570113Y-41537294D01*
X133562919Y-41537500D01*
X133547633Y-41537500D01*
X133479512Y-41517498D01*
X133458538Y-41500595D01*
X132215489Y-40257546D01*
X132202652Y-40242518D01*
X132194669Y-40231530D01*
X132189360Y-40226749D01*
X132144937Y-40186751D01*
X132140153Y-40182210D01*
X132126006Y-40168063D01*
X132110446Y-40155463D01*
X132105425Y-40151175D01*
X132060619Y-40110830D01*
X132060615Y-40110827D01*
X132055715Y-40106415D01*
X132050005Y-40103119D01*
X132050002Y-40103116D01*
X132043955Y-40099625D01*
X132027670Y-40088432D01*
X132017125Y-40079893D01*
X131957520Y-40049523D01*
X131951724Y-40046376D01*
X131945975Y-40043057D01*
X131893785Y-40012925D01*
X131880875Y-40008730D01*
X131862616Y-40001167D01*
X131850524Y-39995006D01*
X131785906Y-39977691D01*
X131779582Y-39975818D01*
X131754643Y-39967715D01*
X131715956Y-39955145D01*
X131709389Y-39954455D01*
X131709385Y-39954454D01*
X131703712Y-39953858D01*
X131702470Y-39953728D01*
X131683028Y-39950125D01*
X131669915Y-39946611D01*
X131663318Y-39946265D01*
X131663316Y-39946265D01*
X131603113Y-39943110D01*
X131596539Y-39942593D01*
X131579895Y-39940844D01*
X131579891Y-39940844D01*
X131576620Y-39940500D01*
X131556593Y-39940500D01*
X131549999Y-39940327D01*
X131489782Y-39937171D01*
X131489778Y-39937171D01*
X131483190Y-39936826D01*
X131476675Y-39937858D01*
X131476673Y-39937858D01*
X131469786Y-39938949D01*
X131450075Y-39940500D01*
X125926000Y-39940500D01*
X125857879Y-39920498D01*
X125811386Y-39866842D01*
X125800000Y-39814500D01*
X125800000Y-38738595D01*
X128053001Y-38738595D01*
X128053338Y-38745114D01*
X128063257Y-38840706D01*
X128066149Y-38854100D01*
X128117588Y-39008284D01*
X128123761Y-39021462D01*
X128209063Y-39159307D01*
X128218099Y-39170708D01*
X128332829Y-39285239D01*
X128344240Y-39294251D01*
X128482243Y-39379316D01*
X128495424Y-39385463D01*
X128649710Y-39436638D01*
X128663086Y-39439505D01*
X128757438Y-39449172D01*
X128763854Y-39449500D01*
X129013885Y-39449500D01*
X129029124Y-39445025D01*
X129030329Y-39443635D01*
X129032000Y-39435952D01*
X129032000Y-39431384D01*
X129540000Y-39431384D01*
X129544475Y-39446623D01*
X129545865Y-39447828D01*
X129553548Y-39449499D01*
X129808095Y-39449499D01*
X129814614Y-39449162D01*
X129910206Y-39439243D01*
X129923600Y-39436351D01*
X130077784Y-39384912D01*
X130090962Y-39378739D01*
X130228807Y-39293437D01*
X130240208Y-39284401D01*
X130354739Y-39169671D01*
X130363751Y-39158260D01*
X130448816Y-39020257D01*
X130454963Y-39007076D01*
X130506138Y-38852790D01*
X130509005Y-38839414D01*
X130518672Y-38745062D01*
X130519000Y-38738646D01*
X130519000Y-38626115D01*
X130514525Y-38610876D01*
X130513135Y-38609671D01*
X130505452Y-38608000D01*
X129558115Y-38608000D01*
X129542876Y-38612475D01*
X129541671Y-38613865D01*
X129540000Y-38621548D01*
X129540000Y-39431384D01*
X129032000Y-39431384D01*
X129032000Y-38626115D01*
X129027525Y-38610876D01*
X129026135Y-38609671D01*
X129018452Y-38608000D01*
X128071116Y-38608000D01*
X128055877Y-38612475D01*
X128054672Y-38613865D01*
X128053001Y-38621548D01*
X128053001Y-38738595D01*
X125800000Y-38738595D01*
X125800000Y-35134500D01*
X125820002Y-35066379D01*
X125873658Y-35019886D01*
X125926000Y-35008500D01*
X128438481Y-35008500D01*
X128506602Y-35028502D01*
G37*
%TD.AperFunction*%
%TD*%
M02*
