M48
; DRILL file {KiCad (6.0.7)} date Sun Oct 16 13:30:05 2022
; FORMAT={-:-/ absolute / inch / decimal}
; #@! TF.CreationDate,2022-10-16T13:30:05+08:00
; #@! TF.GenerationSoftware,Kicad,Pcbnew,(6.0.7)
; #@! TF.FileFunction,NonPlated,1,2,NPTH
FMAT,2
INCH
; #@! TA.AperFunction,NonPlated,NPTH,ComponentDrill
T1C0.0236
; #@! TA.AperFunction,NonPlated,NPTH,ComponentDrill
T2C0.0354
; #@! TA.AperFunction,NonPlated,NPTH,ComponentDrill
T3C0.0433
; #@! TA.AperFunction,NonPlated,NPTH,ComponentDrill
T4C0.0670
; #@! TA.AperFunction,NonPlated,NPTH,ComponentDrill
T5C0.1181
; #@! TA.AperFunction,NonPlated,NPTH,ComponentDrill
T6C0.1260
; #@! TA.AperFunction,NonPlated,NPTH,ComponentDrill
T7C0.1570
%
G90
G05
T1
X2.3469Y-1.5876
X2.5744Y-1.5876
T2
X4.3543Y-1.4201
X4.4724Y-1.4201
T3
X5.252Y-3.9262
X5.4488Y-3.9262
T4
X2.0441Y-2.5984
X2.0441Y-3.3661
X2.0441Y-4.1339
X2.0441Y-4.9016
X2.4441Y-2.5984
X2.4441Y-3.3661
X2.4441Y-4.1339
X2.4441Y-4.9016
X2.8118Y-2.5984
X2.8118Y-3.3661
X2.8118Y-4.1339
X2.8118Y-4.9016
X3.2118Y-2.5984
X3.2118Y-3.3661
X3.2118Y-4.1339
X3.2118Y-4.9016
X3.5795Y-2.5984
X3.5795Y-3.3661
X3.5795Y-4.1339
X3.5795Y-4.9016
X3.9795Y-2.5984
X3.9795Y-3.3661
X3.9795Y-4.1339
X3.9795Y-4.9016
X4.3472Y-2.5984
X4.3472Y-3.3661
X4.3472Y-4.5177
X4.7472Y-2.5984
X4.7472Y-3.3661
X4.7472Y-4.5177
T5
X2.0941Y-2.4984
X2.0941Y-3.2661
X2.0941Y-4.0339
X2.0941Y-4.8016
X2.3441Y-2.3984
X2.3441Y-3.1661
X2.3441Y-3.9339
X2.3441Y-4.7016
X2.8618Y-2.4984
X2.8618Y-3.2661
X2.8618Y-4.0339
X2.8618Y-4.8016
X3.1118Y-2.3984
X3.1118Y-3.1661
X3.1118Y-3.9339
X3.1118Y-4.7016
X3.6295Y-2.4984
X3.6295Y-3.2661
X3.6295Y-4.0339
X3.6295Y-4.8016
X3.8795Y-2.3984
X3.8795Y-3.1661
X3.8795Y-3.9339
X3.8795Y-4.7016
X4.3972Y-2.4984
X4.3972Y-3.2661
X4.3972Y-4.4177
X4.6472Y-2.3984
X4.6472Y-3.1661
X4.6472Y-4.3177
T6
X2.1024Y-2.0079
X4.7185Y-2.0098
T7
X2.2441Y-2.5984
X2.2441Y-3.3661
X2.2441Y-4.1339
X2.2441Y-4.9016
X3.0118Y-2.5984
X3.0118Y-3.3661
X3.0118Y-4.1339
X3.0118Y-4.9016
X3.7795Y-2.5984
X3.7795Y-3.3661
X3.7795Y-4.1339
X3.7795Y-4.9016
X4.5472Y-2.5984
X4.5472Y-3.3661
X4.5472Y-4.5177
T0
M30
