%TF.GenerationSoftware,KiCad,Pcbnew,(6.0.7)*%
%TF.CreationDate,2022-10-16T13:30:08+08:00*%
%TF.ProjectId,numpad-test,6e756d70-6164-42d7-9465-73742e6b6963,rev?*%
%TF.SameCoordinates,Original*%
%TF.FileFunction,Soldermask,Top*%
%TF.FilePolarity,Negative*%
%FSLAX46Y46*%
G04 Gerber Fmt 4.6, Leading zero omitted, Abs format (unit mm)*
G04 Created by KiCad (PCBNEW (6.0.7)) date 2022-10-16 13:30:08*
%MOMM*%
%LPD*%
G01*
G04 APERTURE LIST*
G04 Aperture macros list*
%AMRoundRect*
0 Rectangle with rounded corners*
0 $1 Rounding radius*
0 $2 $3 $4 $5 $6 $7 $8 $9 X,Y pos of 4 corners*
0 Add a 4 corners polygon primitive as box body*
4,1,4,$2,$3,$4,$5,$6,$7,$8,$9,$2,$3,0*
0 Add four circle primitives for the rounded corners*
1,1,$1+$1,$2,$3*
1,1,$1+$1,$4,$5*
1,1,$1+$1,$6,$7*
1,1,$1+$1,$8,$9*
0 Add four rect primitives between the rounded corners*
20,1,$1+$1,$2,$3,$4,$5,0*
20,1,$1+$1,$4,$5,$6,$7,0*
20,1,$1+$1,$6,$7,$8,$9,0*
20,1,$1+$1,$8,$9,$2,$3,0*%
G04 Aperture macros list end*
%ADD10C,3.000000*%
%ADD11C,1.701800*%
%ADD12C,3.987800*%
%ADD13C,3.200000*%
%ADD14RoundRect,0.250000X0.350000X0.450000X-0.350000X0.450000X-0.350000X-0.450000X0.350000X-0.450000X0*%
%ADD15RoundRect,0.250000X-0.350000X-0.450000X0.350000X-0.450000X0.350000X0.450000X-0.350000X0.450000X0*%
%ADD16RoundRect,0.250000X0.337500X0.475000X-0.337500X0.475000X-0.337500X-0.475000X0.337500X-0.475000X0*%
%ADD17RoundRect,0.250000X0.625000X-0.350000X0.625000X0.350000X-0.625000X0.350000X-0.625000X-0.350000X0*%
%ADD18O,1.750000X1.200000*%
%ADD19RoundRect,0.250000X0.450000X-0.350000X0.450000X0.350000X-0.450000X0.350000X-0.450000X-0.350000X0*%
%ADD20RoundRect,0.250000X0.475000X-0.337500X0.475000X0.337500X-0.475000X0.337500X-0.475000X-0.337500X0*%
%ADD21R,1.700000X1.700000*%
%ADD22O,1.700000X1.700000*%
%ADD23RoundRect,0.250000X-0.625000X0.400000X-0.625000X-0.400000X0.625000X-0.400000X0.625000X0.400000X0*%
%ADD24C,0.900000*%
%ADD25R,1.000000X0.800000*%
%ADD26R,0.700000X1.500000*%
%ADD27RoundRect,0.101600X0.798830X-1.149350X0.798830X1.149350X-0.798830X1.149350X-0.798830X-1.149350X0*%
%ADD28C,0.600000*%
%ADD29R,0.600000X1.160000*%
%ADD30R,0.300000X1.160000*%
%ADD31O,0.900000X2.000000*%
%ADD32O,0.900000X1.700000*%
%ADD33RoundRect,0.250000X-0.337500X-0.475000X0.337500X-0.475000X0.337500X0.475000X-0.337500X0.475000X0*%
%ADD34RoundRect,0.150000X-0.512500X-0.150000X0.512500X-0.150000X0.512500X0.150000X-0.512500X0.150000X0*%
%ADD35RoundRect,0.250000X0.325000X0.450000X-0.325000X0.450000X-0.325000X-0.450000X0.325000X-0.450000X0*%
%ADD36RoundRect,0.101600X-0.798830X1.149350X-0.798830X-1.149350X0.798830X-1.149350X0.798830X1.149350X0*%
%ADD37RoundRect,0.150000X-0.825000X-0.150000X0.825000X-0.150000X0.825000X0.150000X-0.825000X0.150000X0*%
%ADD38R,2.000000X0.900000*%
%ADD39R,0.900000X2.000000*%
%ADD40R,5.000000X5.000000*%
%ADD41RoundRect,0.250000X-0.325000X-0.450000X0.325000X-0.450000X0.325000X0.450000X-0.325000X0.450000X0*%
%ADD42R,1.000000X0.300000*%
%ADD43R,0.300000X1.000000*%
%ADD44R,3.400000X3.400000*%
%ADD45C,1.303020*%
G04 APERTURE END LIST*
D10*
%TO.C,SW16*%
X111690000Y-63460000D03*
X118040000Y-60920000D03*
D11*
X120580000Y-66000000D03*
X110420000Y-66000000D03*
D12*
X115500000Y-66000000D03*
%TD*%
D11*
%TO.C,SW12*%
X90920000Y-66000000D03*
X101080000Y-66000000D03*
D10*
X92190000Y-63460000D03*
X98540000Y-60920000D03*
D12*
X96000000Y-66000000D03*
%TD*%
D13*
%TO.C,H2*%
X119850000Y-51050000D03*
%TD*%
D14*
%TO.C,R11*%
X66800000Y-44600000D03*
X64800000Y-44600000D03*
%TD*%
D15*
%TO.C,R10*%
X64800000Y-46700000D03*
X66800000Y-46700000D03*
%TD*%
D16*
%TO.C,C2*%
X121606000Y-37593000D03*
X119531000Y-37593000D03*
%TD*%
D17*
%TO.C,J1*%
X50950000Y-42000000D03*
D18*
X50950000Y-40000000D03*
X50950000Y-38000000D03*
%TD*%
D19*
%TO.C,R9*%
X92837000Y-54070000D03*
X92837000Y-52070000D03*
%TD*%
D20*
%TO.C,C1*%
X117430000Y-43825000D03*
X117430000Y-41750000D03*
%TD*%
%TO.C,C11*%
X99100000Y-43700000D03*
X99100000Y-41625000D03*
%TD*%
%TO.C,C3*%
X124460000Y-37973000D03*
X124460000Y-35898000D03*
%TD*%
D11*
%TO.C,SW10*%
X81580000Y-105000000D03*
D10*
X79040000Y-99920000D03*
D11*
X71420000Y-105000000D03*
D12*
X76500000Y-105000000D03*
D10*
X72690000Y-102460000D03*
%TD*%
D21*
%TO.C,J3*%
X131380000Y-65935000D03*
D22*
X133920000Y-65935000D03*
X136460000Y-65935000D03*
X139000000Y-65935000D03*
%TD*%
D14*
%TO.C,R8*%
X112617000Y-54610000D03*
X110617000Y-54610000D03*
%TD*%
D23*
%TO.C,R6*%
X99100000Y-36475000D03*
X99100000Y-39575000D03*
%TD*%
D17*
%TO.C,J2*%
X84963000Y-42037000D03*
D18*
X84963000Y-40037000D03*
X84963000Y-38037000D03*
%TD*%
D11*
%TO.C,SW5*%
X62080000Y-85500000D03*
D10*
X59540000Y-80420000D03*
D11*
X51920000Y-85500000D03*
D12*
X57000000Y-85500000D03*
D10*
X53190000Y-82960000D03*
%TD*%
D14*
%TO.C,R12*%
X62250000Y-46650000D03*
X60250000Y-46650000D03*
%TD*%
D10*
%TO.C,SW4*%
X53190000Y-63460000D03*
D11*
X51920000Y-66000000D03*
X62080000Y-66000000D03*
D10*
X59540000Y-60920000D03*
D12*
X57000000Y-66000000D03*
%TD*%
D24*
%TO.C,SW1*%
X113600000Y-36070000D03*
D25*
X108450000Y-37180000D03*
D24*
X110600000Y-36070000D03*
D25*
X108450000Y-34970000D03*
X115750000Y-34970000D03*
X115750000Y-37180000D03*
D26*
X114350000Y-37830000D03*
X111350000Y-37830000D03*
X109850000Y-37830000D03*
%TD*%
D11*
%TO.C,SW15*%
X101080000Y-124500000D03*
D10*
X92190000Y-121960000D03*
X98540000Y-119420000D03*
D12*
X96000000Y-124500000D03*
D11*
X90920000Y-124500000D03*
%TD*%
D27*
%TO.C,SW3*%
X103759000Y-47396400D03*
X103759000Y-53695600D03*
%TD*%
D11*
%TO.C,SW11*%
X71420000Y-124500000D03*
D12*
X76500000Y-124500000D03*
D11*
X81580000Y-124500000D03*
D10*
X79040000Y-119420000D03*
X72690000Y-121960000D03*
%TD*%
D28*
%TO.C,J4*%
X59610000Y-40325000D03*
X65390000Y-40325000D03*
D29*
X65700000Y-41385000D03*
X64900000Y-41385000D03*
D30*
X63750000Y-41385000D03*
X62750000Y-41385000D03*
X62250000Y-41385000D03*
X61250000Y-41385000D03*
D29*
X60100000Y-41385000D03*
X59300000Y-41385000D03*
X59300000Y-41385000D03*
X60100000Y-41385000D03*
D30*
X60750000Y-41385000D03*
X61750000Y-41385000D03*
X63250000Y-41385000D03*
X64250000Y-41385000D03*
D29*
X64900000Y-41385000D03*
X65700000Y-41385000D03*
D31*
X58180000Y-40805000D03*
D32*
X58180000Y-36635000D03*
D31*
X66820000Y-40805000D03*
D32*
X66820000Y-36635000D03*
%TD*%
D33*
%TO.C,C6*%
X56007000Y-43815000D03*
X58082000Y-43815000D03*
%TD*%
D34*
%TO.C,U3*%
X119437500Y-39900000D03*
X119437500Y-40850000D03*
X119437500Y-41800000D03*
X121712500Y-41800000D03*
X121712500Y-39900000D03*
%TD*%
D10*
%TO.C,SW13*%
X92190000Y-82960000D03*
D12*
X96000000Y-85500000D03*
D10*
X98540000Y-80420000D03*
D11*
X101080000Y-85500000D03*
X90920000Y-85500000D03*
%TD*%
D10*
%TO.C,SW8*%
X72690000Y-63460000D03*
D11*
X71420000Y-66000000D03*
D10*
X79040000Y-60920000D03*
D11*
X81580000Y-66000000D03*
D12*
X76500000Y-66000000D03*
%TD*%
D20*
%TO.C,C5*%
X92837000Y-50081000D03*
X92837000Y-48006000D03*
%TD*%
D35*
%TO.C,D4*%
X62250000Y-48950000D03*
X60200000Y-48950000D03*
%TD*%
D11*
%TO.C,SW7*%
X51920000Y-124500000D03*
D10*
X53190000Y-121960000D03*
X59540000Y-119420000D03*
D12*
X57000000Y-124500000D03*
D11*
X62080000Y-124500000D03*
%TD*%
D10*
%TO.C,SW9*%
X79040000Y-80420000D03*
X72690000Y-82960000D03*
D12*
X76500000Y-85500000D03*
D11*
X81580000Y-85500000D03*
X71420000Y-85500000D03*
%TD*%
D20*
%TO.C,C9*%
X71755000Y-43455500D03*
X71755000Y-41380500D03*
%TD*%
D12*
%TO.C,SW14*%
X96000000Y-105000000D03*
D10*
X98540000Y-99920000D03*
D11*
X101080000Y-105000000D03*
X90920000Y-105000000D03*
D10*
X92190000Y-102460000D03*
%TD*%
D14*
%TO.C,R7*%
X112617000Y-47625000D03*
X110617000Y-47625000D03*
%TD*%
D33*
%TO.C,C8*%
X73871000Y-45868500D03*
X75946000Y-45868500D03*
%TD*%
%TO.C,C7*%
X73871000Y-43836500D03*
X75946000Y-43836500D03*
%TD*%
D36*
%TO.C,SW2*%
X97409000Y-53695600D03*
X97409000Y-47396400D03*
%TD*%
D37*
%TO.C,U2*%
X91475000Y-38495000D03*
X91475000Y-39765000D03*
X91475000Y-41035000D03*
X91475000Y-42305000D03*
X96425000Y-42305000D03*
X96425000Y-41035000D03*
X96425000Y-39765000D03*
X96425000Y-38495000D03*
%TD*%
D38*
%TO.C,U4*%
X127000000Y-35995000D03*
X127000000Y-37265000D03*
X127000000Y-38535000D03*
X127000000Y-39805000D03*
X127000000Y-41075000D03*
X127000000Y-42345000D03*
X127000000Y-43615000D03*
X127000000Y-44885000D03*
X127000000Y-46155000D03*
X127000000Y-47425000D03*
X127000000Y-48695000D03*
X127000000Y-49965000D03*
X127000000Y-51235000D03*
X127000000Y-52505000D03*
D39*
X129785000Y-53505000D03*
X131055000Y-53505000D03*
X132325000Y-53505000D03*
X133595000Y-53505000D03*
X134865000Y-53505000D03*
X136135000Y-53505000D03*
X137405000Y-53505000D03*
X138675000Y-53505000D03*
X139945000Y-53505000D03*
X141215000Y-53505000D03*
D38*
X144000000Y-52505000D03*
X144000000Y-51235000D03*
X144000000Y-49965000D03*
X144000000Y-48695000D03*
X144000000Y-47425000D03*
X144000000Y-46155000D03*
X144000000Y-44885000D03*
X144000000Y-43615000D03*
X144000000Y-42345000D03*
X144000000Y-41075000D03*
X144000000Y-39805000D03*
X144000000Y-38535000D03*
X144000000Y-37265000D03*
X144000000Y-35995000D03*
D40*
X134500000Y-43495000D03*
%TD*%
D10*
%TO.C,SW6*%
X59540000Y-99920000D03*
D11*
X51920000Y-105000000D03*
D10*
X53190000Y-102460000D03*
D12*
X57000000Y-105000000D03*
D11*
X62080000Y-105000000D03*
%TD*%
D41*
%TO.C,D2*%
X110599000Y-50038000D03*
X112649000Y-50038000D03*
%TD*%
D11*
%TO.C,SW17*%
X110420000Y-85500000D03*
D10*
X111690000Y-82960000D03*
X118040000Y-80420000D03*
D12*
X115500000Y-85500000D03*
D11*
X120580000Y-85500000D03*
%TD*%
%TO.C,SW18*%
X110420000Y-114750000D03*
D10*
X118040000Y-109670000D03*
D11*
X120580000Y-114750000D03*
D12*
X115500000Y-114750000D03*
D10*
X111690000Y-112210000D03*
%TD*%
D41*
%TO.C,D3*%
X110599000Y-52324000D03*
X112649000Y-52324000D03*
%TD*%
D13*
%TO.C,H1*%
X53400000Y-51000000D03*
%TD*%
D42*
%TO.C,U5*%
X73770000Y-37775500D03*
X73770000Y-38275500D03*
X73770000Y-38775500D03*
X73770000Y-39275500D03*
X73770000Y-39775500D03*
X73770000Y-40275500D03*
X73770000Y-40775500D03*
D43*
X74770000Y-41775500D03*
X75270000Y-41775500D03*
X75770000Y-41775500D03*
X76270000Y-41775500D03*
X76770000Y-41775500D03*
X77270000Y-41775500D03*
X77770000Y-41775500D03*
D42*
X78770000Y-40775500D03*
X78770000Y-40275500D03*
X78770000Y-39775500D03*
X78770000Y-39275500D03*
X78770000Y-38775500D03*
X78770000Y-38275500D03*
X78770000Y-37775500D03*
D43*
X77770000Y-36775500D03*
X77270000Y-36775500D03*
X76770000Y-36775500D03*
X76270000Y-36775500D03*
X75770000Y-36775500D03*
X75270000Y-36775500D03*
X74770000Y-36775500D03*
D44*
X76270000Y-39275500D03*
%TD*%
D45*
%TO.C,S1*%
X138399360Y-99725000D03*
X133400640Y-99725000D03*
%TD*%
M02*
