M48
; DRILL file {KiCad (6.0.7)} date Sun Oct 16 13:30:05 2022
; FORMAT={-:-/ absolute / inch / decimal}
; #@! TF.CreationDate,2022-10-16T13:30:05+08:00
; #@! TF.GenerationSoftware,Kicad,Pcbnew,(6.0.7)
; #@! TF.FileFunction,Plated,1,2,PTH
FMAT,2
INCH
; #@! TA.AperFunction,Plated,PTH,ViaDrill
T1C0.0157
; #@! TA.AperFunction,Plated,PTH,ComponentDrill
T2C0.0236
; #@! TA.AperFunction,Plated,PTH,ComponentDrill
T3C0.0295
; #@! TA.AperFunction,Plated,PTH,ComponentDrill
T4C0.0394
%
G90
G05
T1
X1.9Y-2.24
X2.0394Y-1.8268
X2.12Y-2.24
X2.2677Y-1.7874
X2.2835Y-2.0118
X2.2953Y-2.126
X2.315Y-1.7874
X2.47Y-2.24
X2.48Y-1.7
X2.55Y-1.72
X2.5752Y-1.9185
X2.622Y-2.1339
X2.6602Y-1.9035
X2.672Y-1.6681
X2.713Y-1.6681
X2.8024Y-1.8058
X2.8367Y-1.8058
X2.8729Y-1.8058
X2.8976Y-1.9055
X2.9214Y-2.24
X2.935Y-3.615
X2.935Y-3.865
X2.935Y-4.54
X2.935Y-4.635
X2.935Y-3.01
X2.935Y-3.095
X2.9724Y-1.5236
X2.9902Y-1.5728
X3.0177Y-1.5236
X3.0394Y-1.5728
X3.2528Y-1.4016
X3.2913Y-2.1102
X3.2925Y-1.4016
X3.3898Y-2.063
X3.39Y-2.24
X3.4106Y-1.9433
X3.4114Y-1.8535
X3.4646Y-2.3701
X3.5591Y-2.3701
X3.6142Y-1.4567
X3.6181Y-1.8278
X3.685Y-1.5394
X3.705Y-3.61
X3.705Y-3.86
X3.705Y-4.53
X3.705Y-4.63
X3.7087Y-1.8701
X3.7096Y-2.9636
X3.71Y-3.095
X3.7165Y-2.187
X3.7175Y-1.7913
X3.82Y-2.24
X3.8346Y-1.937
X3.974Y-1.8551
X4.0276Y-1.9961
X4.15Y-2.24
X4.2205Y-2.0433
X4.2559Y-1.7087
X4.2638Y-2.1024
X4.3543Y-1.622
X4.378Y-1.9094
X4.4173Y-1.6969
X4.4281Y-1.5157
X4.4685Y-3.6142
X4.4724Y-3.8583
X4.4732Y-1.6268
X4.4764Y-2.9449
X4.48Y-3.105
X4.5148Y-1.8337
X4.7205Y-1.7707
X4.7549Y-1.7707
X4.7894Y-1.7707
X4.7949Y-2.9413
X4.8041Y-3.4941
X4.8051Y-3.4478
X4.8376Y-1.9006
X4.8376Y-3.0492
X4.8386Y-3.6939
X4.8425Y-1.8514
X4.8848Y-3.7126
X4.8937Y-2.3346
X4.9125Y-3.4478
X4.9134Y-3.4941
X4.937Y-3.5935
X4.938Y-2.2096
X4.9764Y-3.6073
X5.09Y-1.43
X5.09Y-1.51
X5.1083Y-3.003
X5.127Y-1.7254
X5.1504Y-2.2539
X5.189Y-1.8622
X5.1969Y-1.9213
X5.2362Y-1.6654
X5.2362Y-1.7087
X5.2461Y-2.2313
X5.253Y-1.9656
X5.2795Y-1.6654
X5.2795Y-1.7087
X5.3159Y-3.4213
X5.3228Y-1.6654
X5.3228Y-1.7087
X5.373Y-2.3002
X5.376Y-3.4104
X5.4409Y-3.6309
X5.4616Y-3.5433
X5.489Y-3.1813
X5.4911Y-2.2854
X5.5049Y-3.5049
X5.5079Y-1.563
X5.5118Y-3.9636
X5.5797Y-1.8691
X5.6142Y-2.311
X5.7151Y-2.2397
T3
X2.0059Y-1.4961
X2.0059Y-1.5748
X2.0059Y-1.6535
X3.345Y-1.4975
X3.345Y-1.5763
X3.345Y-1.655
T4
X5.1724Y-2.5959
X5.2724Y-2.5959
X5.3724Y-2.5959
X5.4724Y-2.5959
T2
G00X2.2906Y-1.4266
M15
G01X2.2906Y-1.4581
M16
G05
G00X2.2906Y-1.5848
M15
G01X2.2906Y-1.6281
M16
G05
G00X2.6307Y-1.4266
M15
G01X2.6307Y-1.4581
M16
G05
G00X2.6307Y-1.5848
M15
G01X2.6307Y-1.6281
M16
G05
T0
M30
